/* XPM */
static char * logo_64x64_xpm[] = {
"65 64 257 2",
"  	c None",
". 	c #FFFFFF",
"+ 	c #FEFEFE",
"@ 	c #FDFDFD",
"# 	c #F0F0F0",
"$ 	c #A4A4A4",
"% 	c #D0D0D0",
"& 	c #DEDEDE",
"* 	c #8B8B8B",
"= 	c #BCBCBC",
"- 	c #D8D8D8",
"; 	c #333333",
"> 	c #7C7C7C",
", 	c #404040",
"' 	c #868686",
") 	c #C0C0C0",
"! 	c #262626",
"~ 	c #939393",
"{ 	c #5D5D5D",
"] 	c #888888",
"^ 	c #B6B6B6",
"/ 	c #6A6A6A",
"( 	c #8F8F8F",
"_ 	c #6C6C6C",
": 	c #3F3F3F",
"< 	c #D3D3D3",
"[ 	c #747474",
"} 	c #1C1C1C",
"| 	c #BFBFBF",
"1 	c #D4D4D4",
"2 	c #D2D2D2",
"3 	c #CFCFCF",
"4 	c #D9D9D9",
"5 	c #484848",
"6 	c #323232",
"7 	c #C2C2C2",
"8 	c #A9A9A9",
"9 	c #737373",
"0 	c #FCFCFC",
"a 	c #9F9F9F",
"b 	c #4C4C4C",
"c 	c #5C5C5C",
"d 	c #909090",
"e 	c #2B2B2B",
"f 	c #A2A2A2",
"g 	c #575757",
"h 	c #363636",
"i 	c #636363",
"j 	c #8A8A8A",
"k 	c #8C8C8C",
"l 	c #7E7E7E",
"m 	c #555555",
"n 	c #626262",
"o 	c #474747",
"p 	c #464646",
"q 	c #141414",
"r 	c #101010",
"s 	c #1E1E1E",
"t 	c #383838",
"u 	c #676767",
"v 	c #4D4D4D",
"w 	c #232323",
"x 	c #B0B0B0",
"y 	c #9A9A9A",
"z 	c #E0E0E0",
"A 	c #F6F6F6",
"B 	c #202020",
"C 	c #4B4B4B",
"D 	c #D7D7D7",
"E 	c #818181",
"F 	c #2E2E2E",
"G 	c #3C3C3C",
"H 	c #4F4F4F",
"I 	c #353535",
"J 	c #717171",
"K 	c #EAEAEA",
"L 	c #222222",
"M 	c #6B6B6B",
"N 	c #7D7D7D",
"O 	c #000000",
"P 	c #131313",
"Q 	c #444444",
"R 	c #585858",
"S 	c #3E3E3E",
"T 	c #ACACAC",
"U 	c #B2B2B2",
"V 	c #929292",
"W 	c #A5A5A5",
"X 	c #121212",
"Y 	c #393939",
"Z 	c #252525",
"` 	c #6F6F6F",
" .	c #707070",
"..	c #848484",
"+.	c #ABABAB",
"@.	c #1D1D1D",
"#.	c #4A4A4A",
"$.	c #E8E8E8",
"%.	c #666666",
"&.	c #DADADA",
"*.	c #BBBBBB",
"=.	c #EEEEEE",
"-.	c #F1F1F1",
";.	c #F7F7F7",
">.	c #E5E5E5",
",.	c #B3B3B3",
"'.	c #494949",
").	c #0F0F0F",
"!.	c #2C2C2C",
"~.	c #181818",
"{.	c #2F2F2F",
"].	c #3B3B3B",
"^.	c #1B1B1B",
"/.	c #0B0B0B",
"(.	c #686868",
"_.	c #8D8D8D",
":.	c #8E8E8E",
"<.	c #C6C6C6",
"[.	c #B1B1B1",
"}.	c #9E9E9E",
"|.	c #292929",
"1.	c #060606",
"2.	c #090909",
"3.	c #282828",
"4.	c #525252",
"5.	c #C8C8C8",
"6.	c #ECECEC",
"7.	c #F3F3F3",
"8.	c #BABABA",
"9.	c #B9B9B9",
"0.	c #050505",
"a.	c #161616",
"b.	c #616161",
"c.	c #BEBEBE",
"d.	c #A0A0A0",
"e.	c #191919",
"f.	c #CDCDCD",
"g.	c #DDDDDD",
"h.	c #030303",
"i.	c #303030",
"j.	c #AAAAAA",
"k.	c #E7E7E7",
"l.	c #424242",
"m.	c #010101",
"n.	c #828282",
"o.	c #080808",
"p.	c #767676",
"q.	c #AEAEAE",
"r.	c #272727",
"s.	c #D1D1D1",
"t.	c #FBFBFB",
"u.	c #999999",
"v.	c #454545",
"w.	c #1F1F1F",
"x.	c #4E4E4E",
"y.	c #434343",
"z.	c #A7A7A7",
"A.	c #797979",
"B.	c #C1C1C1",
"C.	c #B8B8B8",
"D.	c #7B7B7B",
"E.	c #C7C7C7",
"F.	c #515151",
"G.	c #3D3D3D",
"H.	c #5B5B5B",
"I.	c #DCDCDC",
"J.	c #373737",
"K.	c #ADADAD",
"L.	c #A8A8A8",
"M.	c #CCCCCC",
"N.	c #DFDFDF",
"O.	c #414141",
"P.	c #606060",
"Q.	c #919191",
"R.	c #7A7A7A",
"S.	c #535353",
"T.	c #AFAFAF",
"U.	c #5E5E5E",
"V.	c #595959",
"W.	c #959595",
"X.	c #0D0D0D",
"Y.	c #9C9C9C",
"Z.	c #898989",
"`.	c #878787",
" +	c #C3C3C3",
".+	c #E6E6E6",
"++	c #CBCBCB",
"@+	c #B5B5B5",
"#+	c #F2F2F2",
"$+	c #BDBDBD",
"%+	c #777777",
"&+	c #D5D5D5",
"*+	c #CACACA",
"=+	c #6D6D6D",
"-+	c #111111",
";+	c #646464",
">+	c #040404",
",+	c #7F7F7F",
"'+	c #E4E4E4",
")+	c #E2E2E2",
"!+	c #505050",
"~+	c #838383",
"{+	c #171717",
"]+	c #EBEBEB",
"^+	c #979797",
"/+	c #A3A3A3",
"(+	c #E9E9E9",
"_+	c #808080",
":+	c #E1E1E1",
"<+	c #696969",
"[+	c #242424",
"}+	c #2A2A2A",
"|+	c #C4C4C4",
"1+	c #DBDBDB",
"2+	c #9D9D9D",
"3+	c #545454",
"4+	c #787878",
"5+	c #727272",
"6+	c #020202",
"7+	c #F8F8F8",
"8+	c #B4B4B4",
"9+	c #151515",
"0+	c #0A0A0A",
"a+	c #FAFAFA",
"b+	c #949494",
"c+	c #858585",
"d+	c #C9C9C9",
"e+	c #1A1A1A",
"f+	c #5A5A5A",
"g+	c #F9F9F9",
"h+	c #D6D6D6",
"i+	c #212121",
"j+	c #6E6E6E",
"k+	c #9B9B9B",
"l+	c #A6A6A6",
"m+	c #757575",
"n+	c #CECECE",
"o+	c #C5C5C5",
"p+	c #565656",
"q+	c #0E0E0E",
"r+	c #969696",
"s+	c #5F5F5F",
"t+	c #A1A1A1",
"u+	c #E3E3E3",
"v+	c #2D2D2D",
"w+	c #656565",
"x+	c #B7B7B7",
"y+	c #F5F5F5",
"z+	c #313131",
"A+	c #070707",
"B+	c #3A3A3A",
"C+	c #F4F4F4",
"D+	c #343434",
"E+	c #989898",
"F+	c #EFEFEF",
"G+	c #EDEDED",
"H+	c #0C0C0C",
". + + + + . + . + . . + . . + + + + . + . + . . + . . . @ . . . + . + . + . . . + + + + . + . + . . + . . + + + + . + . + . . + . ",
". . + . + . + . + . . . . . . + . + . + . + . + . # $ % . . + . + . + @ . & * = . . . . . + . + . . . . . . + . + . + . + . . . . ",
". . . . + . + . + . . . . . . . . + + + . . . . - ; > , ' . . . . . . . ) ! ~ { ] . . . . . + + . . . . . . . . + . + . + . . . . ",
". + + + + . . . + . . + . . + + + + . . ^ / ( . _ : < [ } | 1 2 % 3 % 4 5 6 7 8 9 0 a b c 2 . + . . + . . + + + + . . . + . . + . ",
". + + + + . + . + . . + . . + + + . . d e f g h i j k l f m n g o p o 5 q r s t u v w x y t z . . . + . . + + + + . + . + . . + . ",
". . + . + . + . + . . . . . . + . . A B C D E F G H I G J K ( L [ M I D N O P w Q R S T U V W . . . . . . . + . + . + . + . . . . ",
". . . . . . . . + . . . . . . + + . A X } Y Z C `  .[ _ ..+.@.#.$.2 %.M &.*.- =.-.;., B i >.,.. . + . . . . . . . . . . + . . . . ",
". . . . . . + . + . . . . + . + . . D '.O ).!.~.{.].6 6 {.^./.e (._.z :.= <.[.}.f |.1.2.3.4.5.6.. . + . . . . . . . + . + . . . . ",
". . . . . . + . + . . . . + . . 7.8.9.> O 0.a.b.9.. -.- c.d.O r e.'.7 l f.g.-.. A O 2.h.i.5 G j.k.0 . . + . . . . . + . + . . . . ",
". . + . . . + + . + 0 0 @ + . 4 ,.W ~ < l.m.].k d.. . . . . b.O n.T } *.. . . . j O o.F p.6.q.r.p.s.# . + . . . @ . . . . . . . . ",
". . . . . . + . + . . t.. . 7 q.u.W 1 u.v.w.O x.y.'.<.z.:.A . E A.B.C.. u.D.E.F.h.J i.G.%.H.I.k.x.: d.<.. E.a z . + + . . . . . . ",
". + + + + . + 0 . +., J.%.K.L.( 9.M._ x.>.. t.. N.O.2.i }.P.+ $. .3 . E x.}.O I &.. . . . x l.z.@ Q.3.R.S.6 / ].T.. . . + . . + . ",
". . . . + . . . % @.f >.U.V.W.1 K.p > . . t.0 t.. . X.S p.Y.Z.`.A. +R.B h E E I.. 0 0 0 0 . .+H.P.++@+~.e.N ;.k b.#+. . + . . . . ",
"+ + + + + + + . ] ).A.$+% V y.%+b 8.. . + + . + @ . _ O O G &+= 9 *+1 R.O q =+. @ + + + + + . . V H v.q -+Y ;+W  +>.. + + . + + . ",
". . . . + + . . @+>+^.G.7 ,+=+O.'+. t.. . . . + 0 . I } ,+)+. ;.n | . . U { !+7.. + . . . . . 0 . ~+{+! >+X.3.=+W =.. . + . . . . ",
"+ + + + + . ]+^+W 2.R ( X O ,.#.0 . . + . + . + . /+>+2 . . (+H.3.; i 6.. . R K.. . . + + + . + . L.O a.O O y _+../ %.:+. + + + + ",
". + + + . (+t <+[+1.V &+} 2.q d . . . + + . @ . 7.t Y.. . . ].}+U $+5 g t.. 1 R ]+. 0 + + + . + 0 . 5 O G.i 9 /+H ) `.H.. . . + . ",
"+ + + + . ] }+U 0.F./+B.(+;+].. 0 + + + . + . . > 6 + . . 5.h.p |+1+2+J  +. . D.E :+. . + + . + 0 . 4.#.. . 3+,.).%.}. +I.. + + + ",
". + + + . d >+G.4+$+E 5+. s.G N.. + @ 0 + . u.6+O W.. @ . ,.O [+Q u < 5.C.. . )+Z /.F 7+. . 0 t.t.. O 8 . + ;+j.J.o.C L.0 . . + + ",
". . + . . A w O } H.Z.] . . v.}.@ . . . 6.% o.O H.] . . . 8+9+/.a.6 `.W.% . . 8+O 0+2.9 9.1+. . a+` 0.1+. . n.2+{ O G &.. + . . . ",
". + + + + . C.b+~+~ l T . - a.o ! B.U Y.Y.% (.0+c+}.. # 8 | V.O O 2.X S ++I.t.d+O X.q U.V.v.J./ F O e+f+. . f 4+]+d.> 0 . + . + . ",
". . . . . g+~ 8 .+;+4.h+.  .O i+( j+|+&.$.K 8.: a.{ z $ ,._.q.8.;+<+B._.3.k+.+l+s n ,.. z *++.R.6+6+{.V g+. j.|.Q H.F.&.. + . . . ",
". . + . . >.J ! h F.w m . $ O w E 8.. . . . . . :+m+z.j.j 3 . . . . . . d+h _ n+&+. . . . . . . y.O i+V . o+X b k+;+J.K.. . + . . ",
"+ + + + . 9.p+L }.g+> O E . y.: n.. . . . . . ]+j.9.Y.^+g+. @ . @ @ + . . '+q+t 8 &+g.. . . . . a+Y.F *+. , r _ =.x %+_+-.. . + + ",
". . + . . V h ^./ y %.i _ c.R % . . h+r+Y.z < d.T.V _+N R l+. . . . . ]+3+s #.T }+u u.| B.j+s+^+@ . %+_.) t+q.t F.l 7.9 % . . + . ",
". + + . )+l Z X.w.w e.H.(.,+..d.)+a |.].G.t ^+l+j u+|+O q { c.M.<.B.++f+0+v+,+. (+H p _+B y. .].c @+x 5.h+)+~ {+9+'.* x.+.. . . + ",
". + . . l+c U G.m.1.O h.M h y.w+(.-+f+.+d+{ x.}.A . 9.O s+q.u.T.d.:.y l.a.j+2+. . . ~ /.3./+. Y.C }.g.9.8+- Y O O P y T.5 ` z.. + ",
"+ . x+G.5 F s.o X.I 4.g.. ].j m+!.~.H c.B.++Z.8.. . . '.i+j . + . . . K Q i+f.. + . K O ! i Y./+4 b+)+J c+. . N.:.0.++x.I r+b ( . ",
"+ y+w.a .+9 h 5 (.. . )+3+^.]+. U O Z G.<+k.8 @+. . K _.. . + . . . + . . ' *+. + . # O a.@.{.> 5.= . n.O z+E.. . v+`._+Y B./+l+-.",
". g.A+U.$ .+s+v ) . ]+m.O ^.k . 0 q 1.@.; 3+H.7.. . = L.. . + . + . + + . $+`.. @ + . 9 O m.a.[+p+y+>.^.O O =+;.. *.q E.Y N j 7 g+",
"+ . !.-+Z.' #.5+A . U O P $ w+. . 2 Z O ~.H 2 . @ . }.x+. + + . + . + . . N.' (+. + . y+'.B+} { )+. :+1.O s E C+. . t n.}.j R f.. ",
"+ . =.u 9 H.x.B.. @ ~ [.G.! N . 0 . . - f+< -.. 0 . Y B.. + + + + . + . . . D.l+. @ . M.N &+. . . . $+O a.i.'. .K . z.w ++R = . @ ",
". . y+j+v+Q w+K.1+..U 1 /+N c I.. . 0 . ..t+'+. + j O $.. . . . + . + . + . ^+a.W.. . a j )+@ @ . & O 9 =.y+$+O.S.g [+O ] E D+t+. ",
"+ . m v.2 :.V.-+>+8 $.. . . E+b.g.. @ . n+M - . y.O O y . @ + . + + + + . . l.O O a .  .K.A . . F+A+S.. . . . $.[+O O s > C+Q.R.# ",
"+ y+r P.2 n+D m ~+... + + 0 . ' J K g+. 7+w+5.|+6+-+-+%.. . + . + . + @ . F+).a.A+#.b+` % . *+U ! Y . . + . + . t O >+{+Y b.d.g.:+",
"@ . @.s G.Z.f.4.K.y . + . + . . ..3+O x.D A.2+<.m+o.J.G ( . . + + . . . - I 5 3.y.8 f+:.2 / o.O e.$.. + . + . . ] O O O 2.q O.f . ",
"+ . t+O o.e I {+S.y+. . . + + . z.O v+W 2+z.9 g.. u+G+2 v.H k.. . . . r+i+$ . -.a+. N T &+z+|.e.~ &.. + . . + . $.].P.B+i+e._ g+. ",
". + . % =+(.1 { u.. + + . . . . | O i+V.- . U.|+]+. . . g+_+i+V }.f i ].D . . . . - j+7 . U O G ,+t.. . . . . . B., G+m+n+. . . + ",
". + + . . * '+B.{.o+. + . . + + . k+> Q.. . ( ~ >.+ 0 @ . . q.O O 6+p a+. . + t.. x m+&.@ . |+k # . + . . + . . ' _+) 4+& . + + . ",
". . + + . W x <.G.m+. . . . . + . E.o+. . . < _ 4 &+. . + . . ^.O H.| . + + . . M./ a t.+ . ]+:.7.. + . . . . ;.C 5.r+_.A . . . . ",
". . + . . k.M ] =+m 4 . . . . . . c.7 . . . ]+p z+L S <.. t.. r+O : 1 . + . A '.@.e G.W . . G+~ >.. . . + . . c.;+1+_ 8.. . + . . ",
". . . . . @ `.m+_.G. +. . + . . . C.f.. t.. P.i+R.Q.C {.'+. + . : :.. 7+;.+ U.P  .@+M }+<.. C+Y.:+. + + + . . c+* < ;+N.. . . . . ",
". . + . . . K.%.W ].4.4 . . + @ . c.'+. . N.X y.h+A a > ' x+T.x T.U U U 8+@+z+L W.0 ^ ^+_.. . ^+,.. + @ . .+w+O _.u.k #+. + . . . ",
". . . . + . I.D.A.@.O O ' . . . z.w s+-.. E.).{.4+W.s.G+..d.k+y ( > m+[ [ 9 i+e+v.[ E+. t+. |+s 0.A.. 0 y+].O O e.].+.. . + . . . ",
". . + . + . . S.I e.q+O B y f d.F O J.( . t.i+9+[+Y V j E+= *.n+v.n d+C.c.M.Q m.{+w g n.*.. ].-+O O O O O >+X.X z+b 6 f . + . . . ",
". . + . . . `.|.}.N Z 0.}+}.~ > w+>+}.*.C+. z+O O q+s m+. . . &+/.^.< . . . F+w O 1.q+v >.. G.O >+i.Z.8 o+Y m./.M F+E+U.k.. . . . ",
". . + . . g+F F.$.D x : K.. . @ 6 O }+` F+$ |.|.m+_ @+. . . . ! O i+p.. . . . . 8 r+(.Y ]+f [ G.e 2+. . . C+D+v y.d /+g.2 . . . . ",
". . + . . t.v+L C G R._.9.y+. . g+n+y+7 V.x.o  +. . . . . (+H.O O O O v 2 . . . . . . B+* &.]+. . . . . 1 Q.9.K i.e+b u.F+. . . . ",
". . + . . . ~ O A+X.6 M E ] @+7.. . s.1 <+O.i C.u.A.h+|+o O 3.V t O.y : O {.t+| 3+M n.m+Z = :+R.8 . I.k+y (+d+o O O z+B.. + . . . ",
". . + . + . . q.{ g O L ; w+R.j j.'.s D+o > 8 A+O O O p j+*.. . . . . . N.3+6+O O O i.=.9.F s.4.B p Y.n+1+s+O O ~+7.t.. + + . . . ",
". . . . + + + . . c+O 1.! ; F.(.!.I 2+%+Q p.. : O O /.<.. . . . . . + . . . I.O O !+t+. [.O (.1+/+C b+g.H+O O , _.#+. . + . . . . ",
". . . . . . + a+. : O O O O 8+8+-+R G+h+8.<+. ~+O O 5+t.. + . . + . . . + 0 . g }+L q.. D.2.o |+$+++z.k.m.6+O 3+C.-.. . . . . . . ",
". . . . + . + @ . ~ O O 1.0.p.5.@.{.(.:.a+d #+. [.v+d . . . + . + . + . . @ . t+] d+. . 8+O w B+P.&+~ Y 2.O O r *.. . . + . . . . ",
"+ + + + + + + . . . k B+` k H+i ].H+L : b.[ K . . ^ I )+. @ . + + + + . + . A { ++. . 7+o O O X.3., 9+Y '+# @+$.. + + + + . + + . ",
". + + + + . + + + @ . . . . 4 v+i+e e+v+o _.-..+. . D+..k.. . . . . . . . $.D.w+#+. g+b.l.m 2+G [+O D.@ . + . . @ . + . + . . + . ",
". . + . + . + . + . . . . + . . 4+^.J ++- ; z..+'+. v+O ).V . . . + + . c./.O ).1+t.b.p , [ C.p+3.9.. . + . + . + . + . + . . . . ",
". . . . + . + . + . . . . . + @ . c.X e.2.O B W 7+k+O 0.F / ^ U x x [.| C O 1.H+l.<+b O.h.O /.H K . @ . . . . . + . + . + . . . . ",
"+ + + + + + + . + . + + . + + + . . @ @.O O A+} u.=.C 6 J._.$ /+k+* j r+B+m.|.Q , '.4.J.} ^.A.h+. + + . + + + + + + + . + . + + . ",
". . . . + . . . + . . . . . . . . . . Y O O m.O r N  +q.g c 9.[.C.x+^ = k+q C I.W c ;+_+, F ,.2 . . . . . . . . + . . . + . . . . ",
". + + + + . + + + . . + + . + + + . . * O m.X !+} z+$+5.>.f T.T 2+r+r+V u.a.S q.x+>.j.i+O m.R.. . . + + . + + + + . + + + . . + + ",
". + + + + . + . + . . + . . + + + + . . k+'.d . p+X B+i K.r+) B.*.x+9.C.d+e -+F R k z ;.l+8.. . + . + . . + + + + . + . + . . + . ",
". . . . + . + . + . . . . . . . . + + + . . . . 4 a.0.9+m A . . . . . . . < } O P ( . . . . . + . . . . . . . . + . + . + . . . . ",
". . + . + . + . + . . . . . . + . + . + . + . + . A z.*.. . + . + . + . + . . 2 $.. . + . + . + . . . . . . + . + . + . + . . . . ",
". + + + + . + . + . . + + . + + + + . + . + . . + . . . @ . . . + . + . . + + . . + . . . + . + . . + + . + + + + . + . + . . + + "};
