/* XPM */
static char * logo_32x32_xpm[] = {
"32 32 237 2",
"  	c None",
". 	c #FFFFFF",
"+ 	c #EFEFEF",
"@ 	c #E6E6E6",
"# 	c #EAEAEA",
"$ 	c #E4E4E4",
"% 	c #FEFEFE",
"& 	c #C1C1C1",
"* 	c #ECECEC",
"= 	c #484848",
"- 	c #6D6D6D",
"; 	c #C9C9C9",
"> 	c #EEEEEE",
", 	c #F2F2F2",
"' 	c #5F5F5F",
") 	c #8F8F8F",
"! 	c #DDDDDD",
"~ 	c #A5A5A5",
"{ 	c #9B9B9B",
"] 	c #939393",
"^ 	c #464646",
"/ 	c #737373",
"( 	c #7F7F7F",
"_ 	c #838383",
": 	c #545454",
"< 	c #5B5B5B",
"[ 	c #6F6F6F",
"} 	c #181818",
"| 	c #474747",
"1 	c #4C4C4C",
"2 	c #9E9E9E",
"3 	c #8D8D8D",
"4 	c #717171",
"5 	c #262626",
"6 	c #2C2C2C",
"7 	c #303030",
"8 	c #444444",
"9 	c #5E5E5E",
"0 	c #4A4A4A",
"a 	c #B4B4B4",
"b 	c #999999",
"c 	c #C8C8C8",
"d 	c #AFAFAF",
"e 	c #989898",
"f 	c #F5F5F5",
"g 	c #B9B9B9",
"h 	c #929292",
"i 	c #050505",
"j 	c #E8E8E8",
"k 	c #B3B3B3",
"l 	c #131313",
"m 	c #707070",
"n 	c #ACACAC",
"o 	c #F0F0F0",
"p 	c #F9F9F9",
"q 	c #141414",
"r 	c #151515",
"s 	c #8E8E8E",
"t 	c #EBEBEB",
"u 	c #F3F3F3",
"v 	c #9D9D9D",
"w 	c #D1D1D1",
"x 	c #AAAAAA",
"y 	c #BBBBBB",
"z 	c #909090",
"A 	c #959595",
"B 	c #313131",
"C 	c #777777",
"D 	c #A9A9A9",
"E 	c #B2B2B2",
"F 	c #C3C3C3",
"G 	c #B6B6B6",
"H 	c #2E2E2E",
"I 	c #A8A8A8",
"J 	c #7D7D7D",
"K 	c #CDCDCD",
"L 	c #555555",
"M 	c #666666",
"N 	c #898989",
"O 	c #DBDBDB",
"P 	c #656565",
"Q 	c #979797",
"R 	c #BABABA",
"S 	c #424242",
"T 	c #9C9C9C",
"U 	c #191919",
"V 	c #5D5D5D",
"W 	c #4F4F4F",
"X 	c #919191",
"Y 	c #F6F6F6",
"Z 	c #616161",
"` 	c #FAFAFA",
" .	c #828282",
"..	c #C2C2C2",
"+.	c #FDFDFD",
"@.	c #D5D5D5",
"#.	c #727272",
"$.	c #292929",
"%.	c #404040",
"&.	c #8B8B8B",
"*.	c #535353",
"=.	c #DEDEDE",
"-.	c #494949",
";.	c #848484",
">.	c #7E7E7E",
",.	c #BEBEBE",
"'.	c #373737",
").	c #797979",
"!.	c #C6C6C6",
"~.	c #232323",
"{.	c #858585",
"].	c #747474",
"^.	c #8C8C8C",
"/.	c #121212",
"(.	c #171717",
"_.	c #A0A0A0",
":.	c #000000",
"<.	c #868686",
"[.	c #B7B7B7",
"}.	c #696969",
"|.	c #1E1E1E",
"1.	c #878787",
"2.	c #8A8A8A",
"3.	c #949494",
"4.	c #C7C7C7",
"5.	c #CFCFCF",
"6.	c #3B3B3B",
"7.	c #767676",
"8.	c #9F9F9F",
"9.	c #626262",
"0.	c #272727",
"a.	c #A1A1A1",
"b.	c #010101",
"c.	c #ADADAD",
"d.	c #585858",
"e.	c #393939",
"f.	c #BCBCBC",
"g.	c #D7D7D7",
"h.	c #E5E5E5",
"i.	c #1C1C1C",
"j.	c #606060",
"k.	c #646464",
"l.	c #C4C4C4",
"m.	c #BFBFBF",
"n.	c #525252",
"o.	c #E9E9E9",
"p.	c #818181",
"q.	c #F1F1F1",
"r.	c #F4F4F4",
"s.	c #B8B8B8",
"t.	c #6B6B6B",
"u.	c #B0B0B0",
"v.	c #0C0C0C",
"w.	c #222222",
"x.	c #6A6A6A",
"y.	c #252525",
"z.	c #A7A7A7",
"A.	c #4B4B4B",
"B.	c #A4A4A4",
"C.	c #595959",
"D.	c #EDEDED",
"E.	c #ABABAB",
"F.	c #C0C0C0",
"G.	c #B1B1B1",
"H.	c #1B1B1B",
"I.	c #3A3A3A",
"J.	c #7A7A7A",
"K.	c #565656",
"L.	c #2B2B2B",
"M.	c #383838",
"N.	c #A3A3A3",
"O.	c #1F1F1F",
"P.	c #3E3E3E",
"Q.	c #DADADA",
"R.	c #3C3C3C",
"S.	c #7B7B7B",
"T.	c #434343",
"U.	c #5A5A5A",
"V.	c #D2D2D2",
"W.	c #E2E2E2",
"X.	c #070707",
"Y.	c #4D4D4D",
"Z.	c #7C7C7C",
"`.	c #636363",
" +	c #E1E1E1",
".+	c #2A2A2A",
"++	c #E0E0E0",
"@+	c #505050",
"#+	c #9A9A9A",
"$+	c #D3D3D3",
"%+	c #E7E7E7",
"&+	c #C5C5C5",
"*+	c #D4D4D4",
"=+	c #6C6C6C",
"-+	c #D6D6D6",
";+	c #282828",
">+	c #414141",
",+	c #F8F8F8",
"'+	c #1D1D1D",
")+	c #787878",
"!+	c #BDBDBD",
"~+	c #F7F7F7",
"{+	c #323232",
"]+	c #D8D8D8",
"^+	c #D9D9D9",
"/+	c #FBFBFB",
"(+	c #B5B5B5",
"_+	c #E3E3E3",
":+	c #808080",
"<+	c #343434",
"[+	c #2D2D2D",
"}+	c #161616",
"|+	c #0F0F0F",
"1+	c #CCCCCC",
"2+	c #575757",
"3+	c #CACACA",
"4+	c #101010",
"5+	c #333333",
"6+	c #888888",
"7+	c #0B0B0B",
"8+	c #111111",
"9+	c #5C5C5C",
"0+	c #676767",
"a+	c #DFDFDF",
"b+	c #202020",
"c+	c #454545",
"d+	c #4E4E4E",
"e+	c #A2A2A2",
"f+	c #CECECE",
"g+	c #030303",
"h+	c #363636",
"i+	c #515151",
"j+	c #686868",
"k+	c #CBCBCB",
"l+	c #6E6E6E",
"m+	c #020202",
"n+	c #A6A6A6",
". . . . . . . . . . . . + @ . . . . # $ . . . % . . . . . . . . ",
". . . . . . . . % . & * = - ; + > , ' ) ! ~ , % . . . . . . . . ",
". . . . . . . . . { ] ^ / ( _ : < [ } | 1 2 3 . % . . . . . . . ",
". . . . . . . . . 4 5 6 7 8 9 0 a b c d [ 5 e . . . . . . . . . ",
". . . . . . . f g h i 1 . j k l m n o p q r 4 s t . . . % . . . ",
". . . % u v w x y _ z A B C D E F G m H x I J K L x 4 a . . . . ",
". . % . M n ( N 3 O . . . 6 P Q R S = * . . % T e U ( ) . . . . ",
". . . . V 1 W X Y . % . t Z u I _ ` T ! . % . . : r 5  ...+.% . ",
". . @.#.$...%.&.. % % . *., =.-.d ;.. >.` . % . ,.'.).).&.... . ",
". . !.~.{.].@.^.. +.. /.>.. ,.(.M _.. k :.O +.. <.[.F }.|.K . . ",
". . p 1.2.3.& 5 b 4.5.6.7.=.8.= '.9.; ^.0.a.z m b.c.. P d.> % . ",
". % $ S 9 e.d U f.. . . s 2 g.. . . 4 k o . . h.i.g j.].k.l.. . ",
"% . m.r k.n.Q z o./ ] k x 9.p.q.r._.%.s.t.n - N g u.E ^ h _.. . ",
"% h.J p.v.w.n.x.y.z. .b . A.B.g x C.P +.D.q E.] F.G G.H.I.J.3 , ",
"@ 9 D K.[.g 0.r.L.M.N.s.% g + . . . x % . H.O.t.o.n.W . P.9.T Q.",
"q.R.S.}.. T.U.y g.H C.Y . F.. . . % V.W.. 5.8 ^.. X.Y.=.K ).Z.j ",
". m ' ' T @.g h . u { Y `.z.. . . %  +.+++e j . ' I $ [ B @+#+$+",
"%+P.l.m s . . &+[.*+( d X.=+. . . . _.i.C ;.K ( 3.. % [.:.w./ -+",
". M ;+>+... % ,+'+)+!+d @ w `.~+. - f.%+,.[.A.{+q.% . t Y.9 Z.~+",
"% . g.]+h . . . Q A . T f . u O.i.^+. . B.h.W.X /+. % &+k (+. . ",
". % _+:+- . % . c q.. #.%.z.. e @+% +.-.%.T . I +.% . z.G $+. . ",
". . . ;.*.h p . B.t @ <+K {.f.[.z x _ 7 [.{ ~+_ > . _.W >.f % . ",
". . . &.[+X.).Q }+A ~+|+>+N 1+l.2+3+d 4+5+6+,.v.7+v.8+w.9+!.. . ",
". . D.6 N.0+K ^+0 B.E.| N a+. %.l ]+. c A d.s.0+F . )+V A F.. . ",
". . . B }+: 2.Q.,+E @+] p.E b+[ @+c+d+e+m #.R h o.x f+6.y.Q.% . ",
". . . . N :.0._ >+2.[ t.:.] ,+. . . =.g+{+` 0 E - (+:.< . . . . ",
". . . . c.i 4+x h+T 2 D.0 a+. % . % . b & r.y.i+n A.7+0+. . . . ",
". . . . . *+ +:+5 ' ).Y Y - # . . . R j+. )+)+e.W Q./+. % . . . ",
". . . . . . % . D {+i ) !+:.j.k+&+f+:.} l+%.l =+. % % . . . . . ",
". . . . . . . % .  .:.m+S.Q p.s.u.a '.G ].^ ^ h.. . . . . . . . ",
". . . . . . . . % $ | n+w.>.u.u.2 N.Y.S [.D #+. % . . . . . . . ",
". . . . . . . . . . . . K u.~+. . . + G o.. . % . . . . . . . . "};
