/* XPM */
static char * logo_48x48_xpm[] = {
"48 48 255 2",
"  	c None",
". 	c #FFFFFF",
"+ 	c #FEFEFE",
"@ 	c #FDFDFD",
"# 	c #BBBBBB",
"$ 	c #7B7B7B",
"% 	c #989898",
"& 	c #F7F7F7",
"* 	c #F9F9F9",
"= 	c #ABABAB",
"- 	c #6D6D6D",
"; 	c #9E9E9E",
"> 	c #F3F3F3",
", 	c #BDBDBD",
"' 	c #C2C2C2",
") 	c #D9D9D9",
"! 	c #4D4D4D",
"~ 	c #B0B0B0",
"{ 	c #464646",
"] 	c #9F9F9F",
"^ 	c #DADADA",
"/ 	c #DCDCDC",
"( 	c #DBDBDB",
"_ 	c #C8C8C8",
": 	c #2B2B2B",
"< 	c #ACACAC",
"[ 	c #8D8D8D",
"} 	c #B7B7B7",
"| 	c #C5C5C5",
"1 	c #969696",
"2 	c #CFCFCF",
"3 	c #FCFCFC",
"4 	c #767676",
"5 	c #797979",
"6 	c #606060",
"7 	c #525252",
"8 	c #707070",
"9 	c #757575",
"0 	c #999999",
"a 	c #696969",
"b 	c #555555",
"c 	c #545454",
"d 	c #4C4C4C",
"e 	c #515151",
"f 	c #0F0F0F",
"g 	c #2A2A2A",
"h 	c #5D5D5D",
"i 	c #4F4F4F",
"j 	c #9C9C9C",
"k 	c #7F7F7F",
"l 	c #CBCBCB",
"m 	c #D0D0D0",
"n 	c #4A4A4A",
"o 	c #5F5F5F",
"p 	c #535353",
"q 	c #5B5B5B",
"r 	c #C6C6C6",
"s 	c #5E5E5E",
"t 	c #CACACA",
"u 	c #575757",
"v 	c #7C7C7C",
"w 	c #868686",
"x 	c #5C5C5C",
"y 	c #808080",
"z 	c #A1A1A1",
"A 	c #CECECE",
"B 	c #D5D5D5",
"C 	c #444444",
"D 	c #0C0C0C",
"E 	c #202020",
"F 	c #2E2E2E",
"G 	c #3F3F3F",
"H 	c #151515",
"I 	c #565656",
"J 	c #A4A4A4",
"K 	c #AFAFAF",
"L 	c #959595",
"M 	c #DDDDDD",
"N 	c #CCCCCC",
"O 	c #BCBCBC",
"P 	c #858585",
"Q 	c #212121",
"R 	c #282828",
"S 	c #FAFAFA",
"T 	c #D6D6D6",
"U 	c #B9B9B9",
"V 	c #0D0D0D",
"W 	c #191919",
"X 	c #616161",
"Y 	c #EAEAEA",
"Z 	c #AAAAAA",
"` 	c #1E1E1E",
" .	c #161616",
"..	c #D8D8D8",
"+.	c #F0F0F0",
"@.	c #E2E2E2",
"#.	c #434343",
"$.	c #000000",
"%.	c #1C1C1C",
"&.	c #494949",
"*.	c #737373",
"=.	c #BFBFBF",
"-.	c #F4F4F4",
";.	c #F1F1F1",
">.	c #A6A6A6",
",.	c #9B9B9B",
"'.	c #383838",
").	c #373737",
"!.	c #6B6B6B",
"~.	c #B8B8B8",
"{.	c #ECECEC",
"].	c #3C3C3C",
"^.	c #B5B5B5",
"/.	c #E9E9E9",
"(.	c #F2F2F2",
"_.	c #242424",
":.	c #585858",
"<.	c #B1B1B1",
"[.	c #A7A7A7",
"}.	c #676767",
"|.	c #EEEEEE",
"1.	c #EFEFEF",
"2.	c #B2B2B2",
"3.	c #A2A2A2",
"4.	c #4E4E4E",
"5.	c #686868",
"6.	c #888888",
"7.	c #F8F8F8",
"8.	c #A3A3A3",
"9.	c #B4B4B4",
"0.	c #E8E8E8",
"a.	c #8C8C8C",
"b.	c #656565",
"c.	c #4B4B4B",
"d.	c #C3C3C3",
"e.	c #C0C0C0",
"f.	c #6F6F6F",
"g.	c #6C6C6C",
"h.	c #909090",
"i.	c #6E6E6E",
"j.	c #A9A9A9",
"k.	c #929292",
"l.	c #363636",
"m.	c #777777",
"n.	c #A5A5A5",
"o.	c #2F2F2F",
"p.	c #6A6A6A",
"q.	c #B6B6B6",
"r.	c #181818",
"s.	c #646464",
"t.	c #1D1D1D",
"u.	c #454545",
"v.	c #9D9D9D",
"w.	c #D3D3D3",
"x.	c #292929",
"y.	c #141414",
"z.	c #2D2D2D",
"A.	c #D7D7D7",
"B.	c #EBEBEB",
"C.	c #ADADAD",
"D.	c #7E7E7E",
"E.	c #717171",
"F.	c #DEDEDE",
"G.	c #070707",
"H.	c #1A1A1A",
"I.	c #636363",
"J.	c #323232",
"K.	c #A0A0A0",
"L.	c #949494",
"M.	c #595959",
"N.	c #3E3E3E",
"O.	c #848484",
"P.	c #E3E3E3",
"Q.	c #666666",
"R.	c #3A3A3A",
"S.	c #BEBEBE",
"T.	c #AEAEAE",
"U.	c #E0E0E0",
"V.	c #BABABA",
"W.	c #A8A8A8",
"X.	c #7D7D7D",
"Y.	c #D1D1D1",
"Z.	c #9A9A9A",
"`.	c #252525",
" +	c #979797",
".+	c #F6F6F6",
"++	c #FBFBFB",
"@+	c #050505",
"#+	c #171717",
"$+	c #F5F5F5",
"%+	c #878787",
"&+	c #313131",
"*+	c #C7C7C7",
"=+	c #787878",
"-+	c #414141",
";+	c #E7E7E7",
">+	c #3D3D3D",
",+	c #7A7A7A",
"'+	c #8A8A8A",
")+	c #8B8B8B",
"!+	c #272727",
"~+	c #E4E4E4",
"{+	c #C1C1C1",
"]+	c #828282",
"^+	c #626262",
"/+	c #8F8F8F",
"(+	c #343434",
"_+	c #474747",
":+	c #393939",
"<+	c #222222",
"[+	c #818181",
"}+	c #404040",
"|+	c #CDCDCD",
"1+	c #C4C4C4",
"2+	c #484848",
"3+	c #747474",
"4+	c #080808",
"5+	c #505050",
"6+	c #111111",
"7+	c #353535",
"8+	c #939393",
"9+	c #727272",
"0+	c #C9C9C9",
"a+	c #262626",
"b+	c #919191",
"c+	c #D2D2D2",
"d+	c #8E8E8E",
"e+	c #EDEDED",
"f+	c #DFDFDF",
"g+	c #E6E6E6",
"h+	c #0A0A0A",
"i+	c #838383",
"j+	c #E1E1E1",
"k+	c #090909",
"l+	c #3B3B3B",
"m+	c #898989",
"n+	c #040404",
"o+	c #B3B3B3",
"p+	c #1B1B1B",
"q+	c #1F1F1F",
"r+	c #D4D4D4",
"s+	c #232323",
"t+	c #424242",
"u+	c #0B0B0B",
"v+	c #030303",
"w+	c #020202",
"x+	c #303030",
"y+	c #0E0E0E",
"z+	c #333333",
"A+	c #101010",
"B+	c #131313",
"C+	c #5A5A5A",
"D+	c #060606",
"E+	c #2C2C2C",
"F+	c #E5E5E5",
". . . . . . . . . . . . . + . . . . + + + + . . . . + + + + . . . . + + . . . . . . . . . . . . ",
". . . . . . . . . . . . + . + @ + . # $ % & + + + + * = - ; @ + @ + . + . . . . . . . . . . . . ",
". . . . . . . . . . . . . . > , ' ) ! ~ { ] ^ / ( / _ : < [ } | 1 2 . . . . . . . . . . . . . . ",
". . . . . . . . . . . . . 3 4 5 6 7 8 9 0 8 a b c d e f g ! h i j k l . + . . . . . . . . . . . ",
". . . . . . . . . . + . . m n a o p q n n r 8 6 = s t u h v w x y z A . . + . . . . . . . . . . ",
". . . . . . . . . + . . . B C D E F G n u h H I J K L M N O P Q R $ r S . . . + . . . . . . . . ",
". . . . . + . . . . . S T U o V W X Y Y r Z `  .n < ; ..+.@.#.$.%.&.*.=.+.. . . . . . + . . . . ",
". . . . + . + * -.S ;._ >.< ,.'.).!.~.{.> @ % ].^.x /.(./.] _.E :.<.[.}.j ( -.+.|.S + . . . . . ",
". . . . . . 1.2.% ^.U z = 3.y 3.3.} 7 4.5.6.7.8.9.0.a.b.c c.d.l e.,.,.O f.g.h.9 i.e.* . . . . . ",
". . . + . * [.! 3.8 P j.k.6.@.. . . . l.q m.n.6.9.,.o.p.*.;.. . . . q.P 2.}.r.m.z k 0.. . + . . ",
". . + . . (.v '.; 3.p.b.n.7.. + + + . s.t.u.( v.[.w.9 : 9 . . + + . . / a x.y.z.!.Z Y . . . + . ",
". . . + -.A.w r.o n c.J > . + + + . B.].C.3 {.D.E.9.+ ( 4 F.. . + + + . ] E G.H.I.w j.m S . . . ",
". . . & z 7 : q [.J.z.K.. . + + . . D.L.3 . X 4.z M.j.. | 1 3 . . + . . A N.z.u L 8 O.g.P.+ . . ",
". . . {.c.Q.R.O.S.~.*.w.. . . . P.T.&.U.. B.r.q V.W.6.. ;.X.0 t . . . . M - _ Y.[.].c Z.^ @ . . ",
". . . > g.`.p.6.Z.*  +j .+& 1.++Q.@+5.(.. ..E #+'.,.[.+ $+%+$.&+*+P.Y |.h.p.F.@.j b.Q m.;.. . . ",
". . . @ B s f.=+~ $+4 -+3.t d.N b.'.9 /.P.2.s Q Q 7 D.l ;+- y.>+,+'+% 9  .-+T . '+)+p } ++. + . ",
". + . S =.k.>.X K.N o.!+9 # ~+B.{+]+s , >.< =.J 6.^.)+P C.L 9 | ;._ ~ c $.-+B 0.X i.^+/+> . . . ",
". + . & )+(+5.8 7 <.f.{ ~.+ . . . 3 j. +n.^ . . . . . Z._+8.( 7.. . . m c ^+F.O.:+Z.]+9 U.+ . . ",
"+ . . ;+X <+k '+d w 3.; +.B K S.T T.< )+k >.+.& 7..+# m.#.w [+K.| 8.j w.m ; *+z I g.% P {+. . . ",
". . + V.x (+H W }+f.b.Z.3.I.I.h m.n.|+3.W &.V.l 1+, (+` L.+ 0 !.2+4.3+p.j.~., B b 4+5+[ w *+-.. ",
"+ +.Z D.h 8 6+N.3+O.u $ 7+&.^.T.3+_ . A >+1 r 2 d.=.3+I # . . % V 8 q.8+K | [.e.6.5+o.] p )+z S ",
"+ n.p L.a o 9+Y.e.}.D...7 E x Z [ P.. ;+ +0+. . . . +.1 , . . , 4+a+b b+c+~.i i.B.$+5+/+C ; P {.",
"@ D.}+~ %+h / Y }+H d+-.< ` D d k.e+. q.f+. . + + . . g+; . . @.M.h+E E.Y z 4+V <.. 1 ]+b.i+z ;.",
"+ A u 8 Q. +. *+&.7+[+j+7.Z :.5.N @ . y f++ . . . + . $+Z.g+. .+< !.L A . m.k+l+X./ & 7 v.f.< . ",
". S 3+s I O.# # e.8+k *+. . ) Z ..3 q.J.~+. . . . + . .+8+b.) |.z c+. . # s '+q.m+5 [+<+O.%+k.& ",
"+ ^.d ~ m+u 5.d.@ . _ 1 T . . ] ' # z.n+m . . + + + . * b G.- l 8+Y . 1+x j . . > :.$.@+i ] h.U.",
"@ a.F L C.- '+Y.. . 3 =.k.[+^. +o+v.Q %.3+B.. . . . . 3.7+a+s.k.,.o+E.>+w & . + . d+D $.p+-+b+;+",
"+ m &+q+}.p 3.$+. + . B.q %.D.C.j 1+2.V.0 k _ . . (.'+[ U U 1+h.} X.$.l+A . + . . A &.{ R.n T.3 ",
". . {+d+P a.w . . . . + y F a.;+L {+. . $+9.*.m.8 3+v.;+. . 0.[ F.S.7 w 0.. + + . _ [ w 3.m * . ",
". . . > 8.S.I.M . . + . |+v.c+. T.q.~+. . . | $.p+O.S . . 3 9.,.S 3 U 9.S . . + . h.^.[+A.. . . ",
". + . & ] m+p.= . + + . F.A.++. _ i.h m.f+. . e z.T . . F.5.e !.2 . B e.@ . + . $+w 2.8+Y + . . ",
". . . 3 _ 3+$ =+. . + . F.A.++. $ I 1 6 D.r+( j.x w.( c+E.N.; D.'+* / t . . . . o+1 % ~ .+. . . ",
". . . . Y ]+i.<+i.( . . C.] > 1.{ e o+, Z.2.o+T.1 ; Z./+:+G ; ~ d.f+=.o V.. . /+s+t+Q.w.@ . + . ",
". . + . > $ :+u+V !., z #.C | ++e _.4.1 d+# {+# M.{+} <.i f ].- } A.E.D E ].).#+v+R i ,+> . . . ",
". . . @ t e 3.s Q Q.r m+%.C e.@ c w+G.{ {+;.@ X 6+[.@ -.t -+f x+% r+_+$.R.L.} q y+&.T.a.c+@ . . ",
". . . 7.,.z+b+y P r . U.P k 0 a.&.L t ^ . . | n+@+i / . . ;+( n.f.N >.[.l . . j.8+M.h j w.3 . . ",
". . . @ 1+A+q+:+3+v.d.-.++..j.s s <.W.j+o+_+_+p R 8 -+5+9.V.d+b+s j 0+~ B.( } Y.z x.D 4 |.. . . ",
". . . . .+V.9+z+` &.9 0 v 5+i p.% '.6+%.6.j.( /.f+B.A.v.n B+t.k =.$  +!.Q.o+9.p r.u | 0.@ . + . ",
". . + . . . _ H w+r.C+8 G j ,.b.Y.F $.z+U.S . . . . . 7.=.$.R < Y.'.$ S.w {+}.$.r.[ $+. . + . . ",
". . . + . . ..s+$.v+^+[ l.*.S.8./.U :+m+7.. . + . + . . +.$ [ |.c+l.l.=+Z v.F $.$.'+-.. + . . . ",
". . . . . . S # s.v ^+-+x+<+c.8 c++ Y.I.e+. . + . + . . j+P 7.@ ] h+D+!+'.G 8._ ' {.+ . . . . . ",
". . . . . . . ++> & /.i+z.#.m+k d.e+. q s.*+. . . . @ q.p i+. q.d ,+K.(+c.| 3 + @ . . + . . . . ",
". . . . . + . . . . . 3 ~ }+#.<+&.t ) s+k+4.A r+r+B *+#+D+l.0 b J.#+z+v @.. . . . . + . . . . . ",
". . . . . . . . . + . . . 2 :+$.4+&.N s z.5.n.[.0 L a.G.R &.5+! z.g w U.. . + + . . . . . . . . ",
". . . . . . . . . . + + . > 2+$.4+$.}+O 3.D.V.# U ~.<.7 b m a.i.l+F K.> . + . . . . . . . . . . ",
". . . . . . . . . . . . . . C.E+d d+7+o [.>.3.K./+/+[ 4.R i.~ ~.=+I.2 . . . . . . . . . . . . . ",
". . . . . . . . . . . . + . @ ++@ . M.%.7+# ++@ @ @ 3 T R %.*.$++ 3 + . + . . . . . . . . . . . ",
". . . . . . . . . . . . . + . . . . ++N F+@ . . . . . + 7.g+3 . . . . + . . . . . . . . . . . . "};
