/* XPM */
static char * fullscreen_xpm[] = {
"23 23 3 1",
" 	c None",
".	c #000000",
"+	c #FFFFFF",
"                       ",
"   .................   ",
"  .                 .  ",
" .         .         . ",
" .        ...        . ",
" .       . . .       . ",
" .         .         . ",
" .         .         . ",
" .                   . ",
" .   .           .   . ",
" .  .             .  . ",
" . .....       ..... . ",
" .  .             .  . ",
" .   .           .   . ",
" .                   . ",
" .         .         . ",
" .         .         . ",
" .       . . .       . ",
" .        ...        . ",
" .         .         . ",
"  .                 .  ",
"   .................   ",
"                       "};
