<?xml version="1.0" encoding="utf-8"?>
<!-- Generator: Adobe Illustrator 15.0.2, SVG Export Plug-In . SVG Version: 6.00 Build 0)  -->
<!DOCTYPE svg PUBLIC "-//W3C//DTD SVG 1.1//EN" "http://www.w3.org/Graphics/SVG/1.1/DTD/svg11.dtd">
<svg version="1.1" xmlns="http://www.w3.org/2000/svg" xmlns:xlink="http://www.w3.org/1999/xlink" x="0px" y="0px"
	 width="552.756px" height="141.732px" viewBox="0 0 552.756 141.732" enable-background="new 0 0 552.756 141.732"
	 xml:space="preserve">
<g id="Hintergrund">
</g>
<g id="Hilfslinien_anzeigen">
</g>
<g id="Vordergrund">
	<path fill-rule="evenodd" clip-rule="evenodd" fill="#A51E37" d="M217.817,37.979c1.895-0.022,6.061-0.336,9.4,3.065
		s3.527,7.623,3.527,9.702c0,5.795-4.76,10.135-10.871,10.135c-2.523,0-5.311-0.429-6.23-0.982c-0.309-0.185-0.432-0.43-0.432-0.737
		V39.084c0-0.368,0.186-0.613,0.492-0.736C214.319,38.163,215.975,38,217.817,37.979z M394.562,38.628l7.727,0.124
		c5.887,0.123,7.357,1.535,7.541,3.378l0.062,0.676c0.062,0.859,0.188,1.044,0.504,1.044c0.25,0,0.438-0.245,0.438-0.798
		c0-0.676,0.189-4.915,0.189-6.758c0-0.368,0-0.737-0.314-0.737c-0.25,0-0.816,0.184-1.736,0.307
		c-0.98,0.185-2.393,0.308-4.354,0.308H381.6c-0.736,0-3.07-0.123-4.852-0.308c-1.658-0.123-2.275-0.737-2.703-0.737
		c-0.248,0-0.492,0.799-0.615,1.167c-0.123,0.491-1.352,5.774-1.352,6.389c0,0.369,0.123,0.553,0.307,0.553
		c0.246,0,0.43-0.123,0.615-0.615c0.184-0.43,0.369-0.86,1.045-1.904c0.982-1.475,2.457-1.905,6.266-1.966l9.092-0.124v25.986
		c0,5.898,0,10.75-0.307,13.331c-0.246,1.782-0.553,3.134-1.783,3.379c-0.551,0.123-1.289,0.245-1.842,0.245
		c-0.369,0-0.492,0.186-0.492,0.369c0,0.369,0.309,0.492,0.984,0.492c1.842,0,5.713-0.186,6.02-0.186s4.174,0.186,7.547,0.186
		c0.676,0,0.98-0.186,0.98-0.492c0-0.184-0.121-0.369-0.488-0.369c-0.553,0-1.902-0.122-2.762-0.245
		c-1.84-0.245-2.207-1.597-2.391-3.379c-0.307-2.58-0.307-7.433-0.307-13.331V38.628z M318.855,38.628l7.725,0.124
		c5.887,0.123,7.359,1.535,7.543,3.378l0.061,0.676c0.064,0.859,0.189,1.044,0.504,1.044c0.25,0,0.439-0.245,0.439-0.798
		c0-0.676,0.188-4.915,0.188-6.758c0-0.368,0-0.737-0.314-0.737c-0.25,0-0.816,0.184-1.736,0.307
		c-0.98,0.185-2.391,0.308-4.354,0.308h-23.02c-0.736,0-3.07-0.123-4.852-0.308c-1.658-0.123-2.273-0.737-2.703-0.737
		c-0.246,0-0.492,0.799-0.615,1.167c-0.123,0.491-1.352,5.774-1.352,6.389c0,0.369,0.123,0.553,0.307,0.553
		c0.246,0,0.432-0.123,0.615-0.615c0.186-0.43,0.369-0.86,1.045-1.904c0.982-1.475,2.457-1.905,6.266-1.966l9.092-0.124v25.986
		c0,5.898,0,10.75-0.307,13.331c-0.246,1.782-0.553,3.134-1.781,3.379c-0.553,0.123-1.291,0.245-1.844,0.245
		c-0.369,0-0.49,0.186-0.49,0.369c0,0.369,0.307,0.492,0.982,0.492c1.844,0,5.713-0.186,6.02-0.186s4.174,0.186,7.547,0.186
		c0.676,0,0.98-0.186,0.98-0.492c0-0.184-0.121-0.369-0.488-0.369c-0.553,0-1.902-0.122-2.76-0.245
		c-1.84-0.245-2.209-1.597-2.393-3.379c-0.305-2.58-0.305-7.433-0.305-13.331V38.628z M287.139,53.803c0-9.584,0-11.304,0.123-13.27
		c0.123-2.15,0.615-3.194,2.273-3.501c0.736-0.124,1.105-0.185,1.535-0.185c0.246,0,0.492-0.123,0.492-0.368
		c0-0.37-0.309-0.492-0.984-0.492c-1.842,0-5.711,0.185-6.02,0.185c-0.307,0-4.178-0.185-6.203-0.185
		c-0.676,0-0.984,0.123-0.984,0.492c0,0.245,0.246,0.368,0.492,0.368c0.43,0,1.229,0.061,1.904,0.246
		c1.352,0.308,1.965,1.352,2.088,3.44c0.123,1.966,0.123,3.686,0.123,13.27v10.812c0,5.898,0,10.75-0.307,13.331
		c-0.246,1.782-0.553,3.134-1.783,3.379c-0.551,0.123-1.289,0.245-1.842,0.245c-0.367,0-0.49,0.186-0.49,0.369
		c0,0.369,0.307,0.492,0.982,0.492c1.842,0,5.713-0.186,6.02-0.186c0.309,0,4.178,0.186,7.557,0.186
		c0.676,0,0.982-0.186,0.982-0.492c0-0.184-0.123-0.369-0.492-0.369c-0.553,0-1.902-0.122-2.764-0.245
		c-1.844-0.245-2.211-1.597-2.396-3.379c-0.307-2.58-0.307-7.433-0.307-13.331V53.803z M255.165,83.29
		c3.316,0,6.633-0.737,9.275-2.58c4.238-3.011,5.221-7.679,5.221-10.197c0-4.915-1.721-8.723-8.969-14.437l-1.721-1.352
		c-5.896-4.607-7.494-6.82-7.494-10.321c0-4.484,3.318-7.126,7.557-7.126c5.652,0,7.311,2.58,7.68,3.255
		c0.367,0.676,0.736,2.334,0.799,3.072c0.061,0.491,0.123,0.798,0.49,0.798c0.309,0,0.432-0.43,0.432-1.414
		c0-4.177,0.244-6.205,0.244-6.511c0-0.308-0.123-0.431-0.615-0.431c-0.49,0-0.982-0.062-2.148-0.307
		c-1.537-0.369-3.318-0.614-5.713-0.614c-7.803,0-12.717,4.484-12.717,11.058c0,4.178,1.475,7.986,7.986,13.331l2.764,2.273
		c5.283,4.361,7.064,6.818,7.064,11.057c0,3.932-2.887,8.171-8.785,8.171c-4.115,0-8.17-1.721-9.092-6.266
		c-0.184-0.861-0.184-1.721-0.184-2.273c0-0.492-0.062-0.676-0.43-0.676c-0.309,0-0.432,0.308-0.492,0.982
		c-0.061,0.983-0.307,3.439-0.307,6.512c0,1.659,0.062,1.905,0.922,2.335C249.45,82.86,252.276,83.29,255.165,83.29z
		 M175.229,64.615c0,5.898,0,10.75-0.307,13.331c-0.246,1.782-0.553,3.134-1.782,3.379c-0.553,0.123-1.29,0.245-1.843,0.245
		c-0.368,0-0.491,0.186-0.491,0.369c0,0.369,0.307,0.492,0.982,0.492c0.921,0,2.335-0.123,3.563-0.123
		c1.291-0.062,2.335-0.062,2.458-0.062c0.921,0,2.396,0.062,4.792,0.186c2.396,0.062,5.774,0.184,10.381,0.184
		c2.396,0,2.888,0,3.317-1.597c0.308-1.29,0.798-5.467,0.798-5.96c0-0.429,0-0.921-0.368-0.921c-0.308,0-0.43,0.245-0.553,0.921
		c-0.43,2.52-1.167,3.748-2.764,4.424s-4.3,0.676-5.897,0.676c-6.021,0-6.942-0.798-7.127-5.037c-0.061-1.29,0-8.417,0-10.505
		v-5.406c0-0.246,0.124-0.43,0.43-0.43c1.044,0,7.126,0.123,8.785,0.307c2.396,0.246,2.949,1.29,3.195,2.15
		c0.245,0.799,0.245,1.413,0.245,2.027c0,0.307,0.123,0.553,0.431,0.553c0.429,0,0.429-0.676,0.429-1.167
		c0-0.43,0.123-2.703,0.246-3.931c0.185-2.028,0.492-3.072,0.492-3.44c0-0.369-0.123-0.492-0.308-0.492
		c-0.246,0-0.491,0.308-0.921,0.799c-0.553,0.615-1.413,0.738-2.887,0.86c-1.413,0.123-8.969,0.123-9.768,0.123
		c-0.308,0-0.369-0.185-0.369-0.614V38.998c0-0.43,0.124-0.615,0.369-0.615c0.676,0,7.372,0.062,8.416,0.185
		c3.317,0.368,3.931,1.106,4.361,2.088c0.308,0.738,0.369,1.782,0.369,2.211c0,0.492,0.123,0.798,0.492,0.798
		c0.246,0,0.368-0.368,0.429-0.676c0.123-0.737,0.247-3.44,0.308-4.054c0.185-1.72,0.491-2.457,0.491-2.887
		c0-0.307-0.061-0.553-0.246-0.553c-0.307,0-0.553,0.246-0.86,0.307c-0.492,0.123-1.475,0.246-2.642,0.307
		c-1.413,0.062-13.638,0.062-14.068,0.062l-2.519-0.123c-1.352-0.062-3.01-0.062-4.424-0.062c-0.676,0-0.982,0.123-0.982,0.492
		c0,0.245,0.246,0.368,0.491,0.368c0.553,0,1.597,0.061,2.088,0.185c2.028,0.429,2.519,1.413,2.642,3.501
		c0.123,1.966,0.123,3.686,0.123,13.27V64.615z M132.678,43.482c-0.921-2.396-1.659-4.301-1.659-5.099
		c0-0.43,0.123-0.922,0.799-1.228c0.553-0.247,1.659-0.308,2.335-0.308c0.429,0,0.614-0.123,0.614-0.43
		c0-0.308-0.553-0.43-1.658-0.43c-2.335,0-5.099,0.185-5.713,0.185c-0.737,0-4.239-0.185-7.188-0.185
		c-0.983,0-1.598,0.062-1.598,0.43c0,0.246,0.123,0.43,0.491,0.43c0.37,0,1.414,0,2.335,0.246c2.149,0.614,3.072,1.29,4.422,4.73
		l15.051,37.658c1.167,2.949,1.474,3.809,2.211,3.809c0.614,0,0.86-0.982,2.58-4.669c1.414-3.011,4.178-9.645,7.926-18.614
		c3.133-7.556,6.205-14.928,6.88-16.647c1.658-4.178,2.58-5.222,3.378-5.775c1.167-0.737,2.519-0.737,2.949-0.737
		c0.491,0,0.737-0.123,0.737-0.43c0-0.308-0.368-0.43-1.044-0.43c-1.781,0-4.423,0.185-4.792,0.185c-0.737,0-3.563-0.185-6.02-0.185
		c-0.983,0-1.352,0.123-1.352,0.492c0,0.306,0.307,0.368,0.676,0.368c0.676,0,1.597,0,2.334,0.246
		c0.615,0.308,0.799,0.921,0.799,1.413c0,0.553-0.246,1.414-0.553,2.335c-1.351,4.423-9.583,25.862-13.146,34.095L132.678,43.482z
		 M339.006,75.673c-1.107,3.071-2.334,5.406-5.162,5.774c-0.49,0.062-1.35,0.122-1.781,0.122c-0.307,0-0.553,0.124-0.553,0.369
		c0,0.369,0.369,0.492,1.168,0.492c2.887,0,6.266-0.186,6.941-0.186s3.318,0.186,4.791,0.186c0.555,0,0.922-0.123,0.922-0.492
		c0-0.245-0.184-0.369-0.613-0.369h-0.615c-1.045,0-2.334-0.552-2.334-1.78c0-1.106,0.307-2.58,0.861-4.116l3.686-10.874
		c0.123-0.308,0.307-0.492,0.613-0.492h13.209c0.307,0,0.43,0.124,0.551,0.37l5.715,15.112c0.367,0.982,0,1.535-0.369,1.658
		c-0.246,0.062-0.43,0.185-0.43,0.43c0,0.368,0.676,0.368,1.842,0.431c4.24,0.123,8.725,0.123,9.646,0.123
		c0.674,0,1.229-0.123,1.229-0.492c0-0.307-0.246-0.369-0.615-0.369c-0.613,0-1.535-0.061-2.457-0.367
		c-1.291-0.369-3.072-1.353-5.283-6.82c-3.748-9.337-13.393-34.708-14.314-37.043c-0.736-1.904-0.98-2.211-1.352-2.211
		c-0.367,0-0.613,0.369-1.35,2.396L339.006,75.673z M347.605,62.096c-0.184,0-0.307-0.123-0.184-0.431l5.406-16.586
		c0.307-0.921,0.613-0.921,0.92,0l5.836,16.586c0.062,0.247,0.062,0.431-0.244,0.431H347.605z M362.52,41.695
		c1.66,0,2.703-1.229,2.703-2.826c0-1.535-1.166-2.457-2.641-2.457c-1.904,0-2.643,1.535-2.643,2.641
		C359.939,40.221,360.678,41.695,362.52,41.695z M346.76,41.695c1.658,0,2.703-1.229,2.703-2.826c0-1.535-1.168-2.457-2.643-2.457
		c-1.904,0-2.641,1.535-2.641,2.641C344.18,40.221,344.916,41.695,346.76,41.695z M111.326,53.803c0-9.584,0-11.304,0.124-13.27
		c0.123-2.15,0.614-3.194,2.272-3.501c0.738-0.124,1.106-0.185,1.537-0.185c0.246,0,0.491-0.123,0.491-0.368
		c0-0.37-0.308-0.492-0.983-0.492c-1.843,0-5.712,0.185-6.02,0.185c-0.307,0-4.178-0.185-6.204-0.185
		c-0.676,0-0.983,0.123-0.983,0.492c0,0.245,0.246,0.368,0.491,0.368c0.43,0,1.229,0.061,1.905,0.246
		c1.352,0.308,1.965,1.352,2.088,3.44c0.123,1.966,0.123,3.686,0.123,13.27v10.812c0,5.898,0,10.75-0.306,13.331
		c-0.246,1.782-0.553,3.134-1.782,3.379c-0.553,0.123-1.29,0.245-1.843,0.245c-0.369,0-0.491,0.186-0.491,0.369
		c0,0.369,0.307,0.492,0.982,0.492c1.843,0,5.713-0.186,6.021-0.186c0.308,0,4.177,0.186,7.556,0.186
		c0.676,0,0.982-0.186,0.982-0.492c0-0.184-0.123-0.369-0.491-0.369c-0.553,0-1.904-0.122-2.764-0.245
		c-1.843-0.245-2.211-1.597-2.396-3.379c-0.307-2.58-0.307-7.433-0.307-13.331V53.803z M55.489,44.649
		c1.966,2.211,8.896,9.952,16.01,17.631C78,69.284,86.831,78.314,87.506,78.929c3.264,3.256,4.007,3.932,4.502,3.932
		c0.434,0,0.558-0.308,0.558-4.362l0.123-35.999c0-3.686,0.246-5.038,2.273-5.467c0.737-0.185,1.167-0.185,1.475-0.185
		c0.429,0,0.676-0.185,0.676-0.43c0-0.369-0.43-0.43-1.106-0.43c-2.519,0-4.555,0.185-5.236,0.185c-0.682,0-3.632-0.185-6.392-0.185
		c-0.736,0-1.226,0.062-1.226,0.43c0,0.246,0.061,0.43,0.49,0.43c0.491,0,1.901,0.061,3.005,0.308
		c1.901,0.491,2.33,1.843,2.392,5.835l0.678,31.208c-1.966-2.027-8.651-9.521-14.723-16.034
		C65.55,48.028,56.412,38.138,55.489,37.093c-0.62-0.614-1.672-1.966-2.167-1.966c-0.495,0-0.681,0.676-0.681,3.072l-0.062,35.2
		c0,5.591-0.307,7.372-1.844,7.803c-0.921,0.307-2.027,0.367-2.519,0.367c-0.307,0-0.491,0.124-0.491,0.369
		c0,0.431,0.368,0.492,0.983,0.492c2.765,0,5.356-0.186,5.913-0.186c0.557,0,3.017,0.186,6.513,0.186
		c0.736,0,1.103-0.123,1.103-0.492c0-0.245-0.184-0.369-0.49-0.369c-0.552,0-1.901-0.061-3.066-0.367
		c-1.656-0.492-2.27-2.089-2.392-7.126L55.489,44.649z M5.344,62.772c0,8.968,2.335,13.269,5.345,16.157
		c4.361,4.115,10.566,4.361,12.655,4.361c3.625,0,8.232-0.613,12.655-4.546c4.915-4.362,5.651-11.733,5.651-18.368v-6.573
		c0-9.584,0-11.304,0.123-13.27c0.123-2.15,0.615-3.132,2.273-3.501c0.737-0.124,1.106-0.185,1.536-0.185
		c0.247,0,0.492-0.123,0.492-0.368c0-0.37-0.308-0.492-0.983-0.492c-1.843,0-4.73,0.185-5.16,0.185
		c-0.369,0-3.748-0.185-6.512-0.185c-0.676,0-0.982,0.123-0.982,0.492c0,0.245,0.246,0.368,0.491,0.368
		c0.553,0,1.597,0.061,2.088,0.185c2.028,0.429,2.519,1.413,2.642,3.501c0.123,1.966,0.123,3.686,0.123,13.27v7.679
		c0,6.328-0.737,11.549-3.563,15.05c-2.211,2.642-5.897,4.424-9.645,4.424c-3.501,0-6.266-0.554-9.276-3.379
		c-2.642-2.52-4.607-6.328-4.607-15.174v-8.6c0-9.584,0-11.304,0.123-13.27c0.123-2.15,0.614-3.255,2.273-3.501
		c0.737-0.124,1.106-0.185,1.535-0.185c0.246,0,0.492-0.123,0.492-0.368c0-0.37-0.308-0.492-0.983-0.492
		c-1.843,0-5.528,0.185-6.082,0.185s-4.301-0.185-7.065-0.185C0.307,35.987,0,36.11,0,36.479c0,0.245,0.246,0.368,0.491,0.368
		c0.553,0,1.597,0.061,2.088,0.185c2.028,0.429,2.519,1.413,2.642,3.501c0.123,1.966,0.123,3.686,0.123,13.27V62.772z
		 M224.932,61.463c6.41-1.758,10.727-7.109,10.727-14.371c0-3.339-1.764-6.174-3.15-7.497c-1.008-0.945-3.844-3.591-11.717-3.591
		c-2.898,0-8.244,0.194-9.912,0.194c-0.723,0-4.176-0.184-6.938-0.184c-0.675,0-0.982,0.123-0.982,0.492
		c0,0.246,0.246,0.368,0.491,0.368c0.553,0,1.596,0.061,2.087,0.185c2.027,0.429,2.518,1.412,2.641,3.499
		c0.123,1.965,0.123,3.684,0.123,13.263v10.806c0,5.895,0,10.746-0.307,13.323c-0.246,1.782-0.555,3.133-1.782,3.378
		c-0.553,0.123-1.289,0.246-1.842,0.246c-0.368,0-0.491,0.184-0.491,0.367c0,0.37,0.307,0.492,0.982,0.492
		c1.841,0,5.711-0.185,5.771-0.185c0.307,0,4.176,0.185,7.553,0.185c0.676,0,0.982-0.185,0.982-0.492
		c0-0.184-0.123-0.367-0.492-0.367c-0.553,0-1.902-0.123-2.762-0.246c-1.842-0.245-2.211-1.596-2.395-3.378
		c-0.309-2.577-0.309-7.428-0.309-13.323v-1.474c0-0.307,0.123-0.491,0.432-0.491l5.957,0.093c0.369,0,0.693,0.144,0.811,0.398
		c0.934,2.04,2.225,5.485,4.08,9.29c2.535,5.198,2.975,7.502,5.615,8.914c1.596,0.86,3.27,1.076,6.707,1.076h2.959
		c1.105,0,1.475-0.122,1.475-0.492c0-0.184-0.246-0.376-0.553-0.367c-0.607,0.016-1.625-0.155-2.789-0.361
		c-0.996-0.176-3.902-0.881-5.695-4.243C229.965,72.763,227.381,66.645,224.932,61.463z M107.713,98.126
		c0-1.655-1.226-2.696-2.819-2.696c-1.532,0-2.451,1.164-2.451,2.635c0,1.899,1.532,2.634,2.635,2.634
		C106.242,100.698,107.713,99.964,107.713,98.126z M107.713,110.441c0-1.655-1.226-2.696-2.819-2.696
		c-1.532,0-2.451,1.164-2.451,2.635c0,1.899,1.532,2.635,2.635,2.635C106.242,113.015,107.713,112.279,107.713,110.441z
		 M85.81,121.268c0,8.945,2.329,13.234,5.331,16.113c4.35,4.105,10.539,4.351,12.622,4.351c3.615,0,8.21-0.612,12.622-4.534
		c4.902-4.35,5.637-11.703,5.637-18.32v-6.555c0-9.56,0-11.274,0.123-13.236c0.122-2.145,0.613-3.124,2.267-3.491
		c0.735-0.123,1.103-0.185,1.531-0.185c0.246,0,0.491-0.122,0.491-0.367c0-0.368-0.307-0.491-0.98-0.491
		c-1.838,0-4.718,0.185-5.147,0.185c-0.368,0-3.738-0.185-6.495-0.185c-0.674,0-0.98,0.123-0.98,0.491
		c0,0.245,0.245,0.367,0.49,0.367c0.552,0,1.593,0.062,2.083,0.185c2.022,0.428,2.512,1.409,2.635,3.491
		c0.123,1.962,0.123,3.677,0.123,13.236v7.658c0,6.311-0.735,11.52-3.554,15.012c-2.206,2.635-5.882,4.411-9.62,4.411
		c-3.492,0-6.25-0.551-9.252-3.37c-2.635-2.512-4.595-6.311-4.595-15.134v-8.577c0-9.56,0-11.274,0.122-13.236
		c0.123-2.145,0.613-3.246,2.268-3.491c0.735-0.123,1.103-0.185,1.531-0.185c0.245,0,0.491-0.122,0.491-0.367
		c0-0.368-0.307-0.491-0.98-0.491c-1.838,0-5.514,0.185-6.066,0.185s-4.29-0.185-7.047-0.185c-0.674,0-0.979,0.123-0.979,0.491
		c0,0.245,0.245,0.367,0.49,0.367c0.552,0,1.593,0.062,2.083,0.185c2.022,0.428,2.512,1.409,2.635,3.491
		c0.123,1.962,0.123,3.677,0.123,13.236V121.268z M60.018,97.193l7.706,0.122c5.872,0.123,7.339,1.532,7.522,3.37l0.062,0.675
		c0.062,0.857,0.188,1.041,0.501,1.041c0.25,0,0.438-0.245,0.438-0.797c0-0.674,0.188-4.902,0.188-6.74c0-0.366,0-0.734-0.313-0.734
		c-0.25,0-0.814,0.184-1.732,0.306c-0.978,0.184-2.385,0.307-4.342,0.307H47.088c-0.735,0-3.063-0.123-4.84-0.307
		c-1.654-0.122-2.267-0.734-2.695-0.734c-0.246,0-0.491,0.797-0.613,1.163c-0.123,0.49-1.348,5.76-1.348,6.373
		c0,0.367,0.123,0.552,0.307,0.552c0.245,0,0.429-0.123,0.612-0.613c0.184-0.428,0.369-0.857,1.042-1.898
		c0.98-1.471,2.451-1.9,6.249-1.962l9.069-0.122v25.917c0,5.884,0,10.724-0.307,13.296c-0.245,1.778-0.551,3.126-1.777,3.371
		c-0.55,0.122-1.286,0.245-1.838,0.245c-0.368,0-0.49,0.184-0.49,0.367c0,0.368,0.307,0.491,0.98,0.491
		c1.838,0,5.698-0.186,6.004-0.186s4.163,0.186,7.527,0.186c0.673,0,0.979-0.186,0.979-0.491c0-0.184-0.123-0.367-0.489-0.367
		c-0.551,0-1.896-0.123-2.753-0.245c-1.835-0.245-2.202-1.593-2.385-3.371c-0.306-2.572-0.306-7.412-0.306-13.296V97.193z
		 M331.896,103.198c1.961,2.205,8.873,9.926,15.969,17.584c6.484,6.985,15.291,15.993,15.965,16.604
		c3.256,3.248,3.996,3.922,4.49,3.922c0.434,0,0.557-0.306,0.557-4.351L369,101.053c0-3.676,0.244-5.024,2.268-5.452
		c0.734-0.185,1.164-0.185,1.471-0.185c0.428,0,0.672-0.184,0.672-0.429c0-0.368-0.428-0.43-1.102-0.43
		c-2.512,0-4.543,0.185-5.223,0.185s-3.623-0.185-6.375-0.185c-0.734,0-1.223,0.062-1.223,0.43c0,0.245,0.061,0.429,0.488,0.429
		c0.49,0,1.896,0.062,2.996,0.307c1.896,0.49,2.324,1.838,2.387,5.82l0.676,31.126c-1.959-2.021-8.629-9.496-14.684-15.991
		c-9.42-10.11-18.533-19.976-19.455-21.017c-0.617-0.612-1.668-1.96-2.162-1.96c-0.492,0-0.678,0.674-0.678,3.063l-0.062,35.108
		c0,5.576-0.307,7.353-1.838,7.781c-0.92,0.307-2.021,0.368-2.514,0.368c-0.305,0-0.49,0.122-0.49,0.367
		c0,0.429,0.369,0.491,0.982,0.491c2.756,0,5.342-0.186,5.896-0.186c0.557,0,3.01,0.186,6.496,0.186c0.734,0,1.1-0.123,1.1-0.491
		c0-0.245-0.182-0.367-0.488-0.367c-0.551,0-1.895-0.062-3.059-0.368c-1.65-0.489-2.262-2.083-2.385-7.106L331.896,103.198z
		 M296.123,123.11c0,5.884,0,10.724-0.307,13.296c-0.244,1.778-0.551,3.126-1.777,3.371c-0.551,0.122-1.287,0.245-1.838,0.245
		c-0.367,0-0.49,0.184-0.49,0.367c0,0.368,0.307,0.491,0.98,0.491c0.918,0,2.328-0.123,3.553-0.123
		c1.287-0.062,2.33-0.062,2.453-0.062c0.918,0,2.389,0.062,4.779,0.186c2.389,0.06,5.758,0.183,10.354,0.183
		c2.389,0,2.881,0,3.309-1.594c0.307-1.285,0.797-5.452,0.797-5.942c0-0.429,0-0.92-0.367-0.92c-0.307,0-0.43,0.245-0.553,0.92
		c-0.428,2.512-1.164,3.737-2.756,4.412c-1.594,0.674-4.289,0.674-5.883,0.674c-6.004,0-6.924-0.797-7.107-5.024
		c-0.061-1.287,0-8.396,0-10.479v-5.392c0-0.245,0.123-0.429,0.428-0.429c1.043,0,7.109,0.122,8.764,0.307
		c2.389,0.245,2.941,1.286,3.186,2.145c0.246,0.797,0.246,1.409,0.246,2.021c0,0.307,0.121,0.552,0.428,0.552
		c0.428,0,0.428-0.675,0.428-1.164c0-0.429,0.123-2.696,0.246-3.922c0.184-2.021,0.49-3.063,0.49-3.431
		c0-0.368-0.121-0.491-0.307-0.491c-0.244,0-0.49,0.308-0.918,0.797c-0.553,0.614-1.41,0.736-2.881,0.858
		c-1.408,0.123-8.945,0.123-9.742,0.123c-0.307,0-0.367-0.185-0.367-0.612V97.561c0-0.429,0.123-0.612,0.367-0.612
		c0.676,0,7.354,0.062,8.395,0.184c3.309,0.367,3.922,1.104,4.35,2.083c0.307,0.736,0.367,1.777,0.367,2.205
		c0,0.491,0.123,0.798,0.492,0.798c0.244,0,0.367-0.368,0.428-0.675c0.123-0.735,0.246-3.432,0.307-4.044
		c0.184-1.715,0.49-2.45,0.49-2.88c0-0.306-0.061-0.551-0.246-0.551c-0.305,0-0.551,0.245-0.855,0.307
		c-0.492,0.123-1.471,0.244-2.635,0.306c-1.41,0.062-13.604,0.062-14.031,0.062l-2.514-0.123c-1.348-0.062-3.002-0.062-4.412-0.062
		c-0.674,0-0.979,0.123-0.979,0.491c0,0.245,0.244,0.367,0.488,0.367c0.553,0,1.594,0.062,2.084,0.185
		c2.021,0.428,2.512,1.409,2.635,3.492c0.123,1.96,0.123,3.676,0.123,13.234V123.11z M276.944,135.668
		c0,1.041-0.43,1.715-1.225,2.145c-1.594,0.919-4.779,1.286-6.984,1.286c-5.637,0-11.213-1.838-16.053-6.556
		c-2.146-2.084-6.496-8.333-6.496-16.973c0-7.168,2.512-12.744,6.066-15.563c4.656-3.676,9.252-4.043,13.111-4.043
		c7.904,0,12.867,2.634,14.4,4.963c0.918,1.471,1.225,3.186,1.285,4.044c0.061,0.551,0.123,0.919,0.43,0.919
		c0.428,0,0.551-0.307,0.551-1.287c0-6.127,0.43-7.842,0.43-8.7c0-0.246-0.123-0.49-0.736-0.553
		c-1.531-0.06-3.676-0.306-4.962-0.611c-1.164-0.245-5.514-1.042-9.375-1.042c-4.717,0-10.783,0.43-16.297,3.86
		c-5.453,3.432-10.232,10.354-10.232,20.158c0,7.659,3.553,14.215,7.291,17.462c6.801,5.943,15.502,6.557,20.158,6.557
		c3.555,0,9.068-0.674,12.99-2.757c0.734-0.43,0.795-0.553,0.795-3.309v-6.863c0-2.573,0-4.411,0.123-6.372
		c0.123-2.144,0.613-3.187,2.268-3.492c0.734-0.122,1.104-0.185,1.531-0.185c0.244,0,0.49-0.122,0.49-0.367
		c0-0.367-0.305-0.49-0.98-0.49c-1.838,0-5.697,0.184-6.004,0.184s-4.166-0.184-6.923-0.184c-0.674,0-0.98,0.123-0.98,0.49
		c0,0.245,0.246,0.367,0.49,0.367c0.551,0,1.594,0.062,2.084,0.185c2.449,0.674,2.756,1.349,2.756,6.312V135.668z M195.759,103.198
		c1.961,2.205,8.873,9.926,15.968,17.584c6.484,6.985,15.293,15.993,15.965,16.604c3.256,3.248,3.998,3.922,4.49,3.922
		c0.434,0,0.557-0.306,0.557-4.351l0.123-35.905c0-3.676,0.244-5.024,2.268-5.452c0.734-0.185,1.164-0.185,1.471-0.185
		c0.428,0,0.674-0.184,0.674-0.429c0-0.368-0.43-0.43-1.104-0.43c-2.512,0-4.543,0.185-5.223,0.185s-3.623-0.185-6.375-0.185
		c-0.734,0-1.223,0.062-1.223,0.43c0,0.245,0.061,0.429,0.488,0.429c0.49,0,1.896,0.062,2.998,0.307
		c1.896,0.49,2.324,1.838,2.387,5.82l0.674,31.126c-1.959-2.021-8.627-9.496-14.684-15.991
		c-9.419-10.11-18.534-19.976-19.455-21.017c-0.618-0.612-1.668-1.96-2.162-1.96c-0.493,0-0.678,0.674-0.678,3.063l-0.062,35.108
		c0,5.576-0.307,7.353-1.839,7.781c-0.919,0.307-2.021,0.368-2.512,0.368c-0.306,0-0.49,0.122-0.49,0.367
		c0,0.429,0.367,0.491,0.98,0.491c2.757,0,5.342-0.186,5.897-0.186c0.556,0,3.009,0.186,6.496,0.186
		c0.734,0,1.101-0.123,1.101-0.491c0-0.245-0.184-0.367-0.489-0.367c-0.551,0-1.896-0.062-3.058-0.368
		c-1.652-0.489-2.264-2.083-2.386-7.106L195.759,103.198z M177.204,112.327c0-9.559,0-11.274,0.124-13.234
		c0.123-2.145,0.612-3.187,2.266-3.492c0.736-0.123,1.103-0.185,1.532-0.185c0.245,0,0.49-0.122,0.49-0.367
		c0-0.368-0.307-0.491-0.981-0.491c-1.838,0-5.697,0.185-6.004,0.185s-4.167-0.185-6.188-0.185c-0.674,0-0.98,0.123-0.98,0.491
		c0,0.245,0.245,0.367,0.49,0.367c0.429,0,1.226,0.062,1.899,0.245c1.349,0.307,1.961,1.349,2.083,3.432
		c0.123,1.96,0.123,3.676,0.123,13.234v10.783c0,5.884,0,10.724-0.306,13.296c-0.245,1.778-0.551,3.126-1.777,3.371
		c-0.552,0.122-1.286,0.245-1.838,0.245c-0.368,0-0.49,0.184-0.49,0.367c0,0.368,0.306,0.491,0.979,0.491
		c1.838,0,5.699-0.186,6.005-0.186s4.166,0.186,7.536,0.186c0.674,0,0.98-0.186,0.98-0.491c0-0.184-0.123-0.367-0.49-0.367
		c-0.552,0-1.899-0.123-2.757-0.245c-1.838-0.245-2.206-1.593-2.39-3.371c-0.307-2.572-0.307-7.412-0.307-13.296V112.327z
		 M136.265,123.11c0,5.884,0,10.724-0.306,13.296c-0.245,1.778-0.552,3.126-1.777,3.371c-0.552,0.122-1.287,0.245-1.838,0.245
		c-0.367,0-0.49,0.184-0.49,0.367c0,0.368,0.306,0.491,0.98,0.491c0.919,0,2.329-0.123,3.553-0.123
		c1.288-0.062,2.329-0.062,2.452-0.062c0.245,0,1.96,0.062,3.738,0.186c1.776,0.06,3.737,0.183,4.411,0.183
		c10.478,0,15.625-6.801,15.625-13.357c0-7.168-6.066-11.518-10.6-12.929c2.879-3.001,5.76-6.004,5.76-11.028
		c0-3.063-2.206-9.191-12.255-9.191c-2.818,0-5.208,0.185-6.678,0.185c-0.307,0-4.167-0.185-6.924-0.185
		c-0.674,0-0.979,0.123-0.979,0.491c0,0.245,0.245,0.367,0.49,0.367c0.552,0,1.593,0.062,2.083,0.185
		c2.022,0.428,2.512,1.409,2.635,3.492c0.123,1.96,0.123,3.676,0.123,13.234V123.11z M141.167,97.254
		c0-0.367,0.184-0.552,0.736-0.674c0.979-0.245,2.267-0.307,2.94-0.307c6.005,0,8.272,5.454,8.272,10.54
		c0,2.512-0.919,4.718-2.206,6.188c-1.287,1.471-2.145,1.593-5.576,1.593c-2.268,0-3.371-0.185-3.738-0.245
		c-0.307-0.123-0.429-0.246-0.429-0.674V97.254z M141.167,116.678c0-0.307,0.123-0.43,0.368-0.43c0.919,0,3.982,0,4.778,0.123
		c1.471,0.185,3.003,0.367,5.086,1.777c4.717,3.247,5.943,8.578,5.943,12.254c0,6.925-5.331,8.7-8.64,8.7
		c-1.103,0-3.737-0.122-5.392-0.918c-1.9-0.92-1.9-1.778-2.083-4.78c-0.062-0.919-0.062-8.516-0.062-13.235V116.678z
		 M112.615,14.705c0,2.941,0,5.361-0.153,6.648c-0.122,0.889-0.276,1.563-0.889,1.685c-0.276,0.062-0.643,0.123-0.919,0.123
		c-0.184,0-0.245,0.092-0.245,0.184c0,0.185,0.153,0.246,0.49,0.246c0.459,0,1.165-0.061,1.777-0.061
		c0.644-0.031,1.165-0.031,1.226-0.031c0.459,0,1.195,0.031,2.39,0.092c1.195,0.03,2.879,0.092,5.177,0.092
		c1.195,0,1.44,0,1.654-0.797c0.153-0.643,0.398-2.726,0.398-2.972c0-0.214,0-0.459-0.184-0.459c-0.154,0-0.215,0.123-0.276,0.459
		c-0.215,1.256-0.582,1.869-1.379,2.206c-0.796,0.337-2.144,0.337-2.941,0.337c-3.002,0-3.462-0.398-3.554-2.512
		c-0.031-0.644,0-4.198,0-5.239v-2.696c0-0.123,0.062-0.214,0.214-0.214c0.521,0,3.554,0.061,4.381,0.153
		c1.195,0.123,1.471,0.643,1.593,1.072c0.123,0.398,0.123,0.705,0.123,1.011c0,0.153,0.062,0.276,0.214,0.276
		c0.214,0,0.214-0.337,0.214-0.582c0-0.215,0.061-1.348,0.123-1.96c0.092-1.011,0.245-1.532,0.245-1.716
		c0-0.184-0.061-0.246-0.153-0.246c-0.122,0-0.245,0.153-0.459,0.398c-0.275,0.307-0.704,0.368-1.439,0.429
		c-0.705,0.061-4.473,0.061-4.871,0.061c-0.153,0-0.184-0.092-0.184-0.306V1.93c0-0.214,0.062-0.307,0.184-0.307
		c0.337,0,3.676,0.031,4.197,0.092c1.654,0.184,1.96,0.551,2.175,1.042c0.153,0.368,0.184,0.889,0.184,1.103
		c0,0.246,0.061,0.398,0.246,0.398c0.122,0,0.184-0.184,0.214-0.337c0.061-0.368,0.123-1.716,0.153-2.022
		c0.092-0.858,0.245-1.225,0.245-1.44c0-0.153-0.031-0.276-0.123-0.276c-0.153,0-0.276,0.123-0.429,0.153
		c-0.246,0.062-0.735,0.123-1.317,0.153c-0.705,0.031-6.801,0.031-7.016,0.031l-1.256-0.062c-0.674-0.031-1.501-0.031-2.206-0.031
		c-0.337,0-0.49,0.062-0.49,0.246c0,0.123,0.123,0.184,0.245,0.184c0.276,0,0.796,0.03,1.042,0.092
		c1.011,0.214,1.256,0.704,1.317,1.746c0.061,0.98,0.061,1.838,0.061,6.618V14.705z M76.182,14.705c0,2.941,0,5.361-0.153,6.648
		c-0.123,0.889-0.276,1.563-0.889,1.685c-0.276,0.062-0.644,0.123-0.919,0.123c-0.184,0-0.245,0.092-0.245,0.184
		c0,0.185,0.153,0.246,0.49,0.246c0.459,0,1.165-0.061,1.777-0.061c0.644-0.031,1.165-0.031,1.226-0.031
		c0.459,0,1.195,0.031,2.39,0.092c1.195,0.03,2.88,0.092,5.177,0.092c1.195,0,1.44,0,1.654-0.797
		c0.153-0.643,0.398-2.726,0.398-2.972c0-0.214,0-0.459-0.184-0.459c-0.153,0-0.215,0.123-0.276,0.459
		c-0.215,1.256-0.582,1.869-1.378,2.206c-0.797,0.337-2.145,0.337-2.941,0.337c-3.002,0-3.462-0.398-3.554-2.512
		c-0.03-0.644,0-4.198,0-5.239v-2.696c0-0.123,0.062-0.214,0.214-0.214c0.521,0,3.554,0.061,4.381,0.153
		c1.195,0.123,1.471,0.643,1.593,1.072c0.122,0.398,0.122,0.705,0.122,1.011c0,0.153,0.062,0.276,0.215,0.276
		c0.214,0,0.214-0.337,0.214-0.582c0-0.215,0.062-1.348,0.123-1.96c0.092-1.011,0.246-1.532,0.246-1.716
		c0-0.184-0.062-0.246-0.153-0.246c-0.123,0-0.245,0.153-0.459,0.398c-0.276,0.307-0.705,0.368-1.44,0.429
		c-0.705,0.061-4.473,0.061-4.871,0.061c-0.153,0-0.184-0.092-0.184-0.306V1.93c0-0.214,0.062-0.307,0.184-0.307
		c0.337,0,3.676,0.031,4.197,0.092c1.654,0.184,1.96,0.551,2.175,1.042c0.153,0.368,0.184,0.889,0.184,1.103
		c0,0.246,0.062,0.398,0.246,0.398c0.123,0,0.184-0.184,0.214-0.337c0.062-0.368,0.123-1.716,0.153-2.022
		c0.092-0.858,0.245-1.225,0.245-1.44c0-0.153-0.03-0.276-0.123-0.276c-0.153,0-0.276,0.123-0.429,0.153
		c-0.245,0.062-0.735,0.123-1.317,0.153c-0.705,0.031-6.801,0.031-7.016,0.031l-1.256-0.062c-0.674-0.031-1.501-0.031-2.206-0.031
		c-0.337,0-0.49,0.062-0.49,0.246c0,0.123,0.122,0.184,0.245,0.184c0.276,0,0.797,0.03,1.042,0.092
		c1.011,0.214,1.256,0.704,1.317,1.746c0.062,0.98,0.062,1.838,0.062,6.618V14.705z M93.634,14.705c0,2.941,0,5.361-0.153,6.648
		c-0.123,0.889-0.276,1.563-0.889,1.685c-0.276,0.062-0.643,0.123-0.919,0.123c-0.184,0-0.245,0.092-0.245,0.184
		c0,0.185,0.152,0.246,0.49,0.246c0.459,0,1.165-0.061,1.777-0.061c0.644-0.031,1.164-0.031,1.226-0.031
		c0.123,0,0.98,0.031,1.869,0.092c0.889,0.03,1.869,0.092,2.206,0.092c5.239,0,7.812-3.4,7.812-6.679c0-3.584-3.033-5.759-5.3-6.464
		c1.44-1.501,2.88-3.002,2.88-5.514c0-1.532-1.104-4.596-6.128-4.596c-1.409,0-2.604,0.092-3.339,0.092
		c-0.153,0-2.083-0.092-3.462-0.092c-0.337,0-0.49,0.062-0.49,0.246c0,0.123,0.123,0.184,0.245,0.184
		c0.276,0,0.796,0.03,1.042,0.092c1.011,0.214,1.256,0.704,1.317,1.746c0.061,0.98,0.061,1.838,0.061,6.618V14.705z M96.085,1.777
		c0-0.184,0.092-0.276,0.368-0.337c0.49-0.123,1.134-0.153,1.47-0.153c3.002,0,4.136,2.727,4.136,5.27
		c0,1.256-0.459,2.359-1.103,3.094s-1.072,0.797-2.788,0.797c-1.134,0-1.686-0.092-1.869-0.123
		c-0.153-0.062-0.214-0.123-0.214-0.337V1.777z M96.085,11.489c0-0.153,0.061-0.215,0.184-0.215c0.459,0,1.991,0,2.389,0.062
		c0.735,0.092,1.501,0.184,2.543,0.889c2.359,1.624,2.972,4.289,2.972,6.127c0,3.462-2.666,4.35-4.32,4.35
		c-0.551,0-1.869-0.061-2.696-0.459c-0.95-0.459-0.95-0.889-1.042-2.39c-0.031-0.459-0.031-4.258-0.031-6.618V11.489z
		 M166.893,9.313c0-4.779,0-5.637,0.061-6.618c0.062-1.072,0.307-1.593,1.134-1.746c0.368-0.062,0.552-0.092,0.766-0.092
		c0.123,0,0.246-0.061,0.246-0.184c0-0.184-0.153-0.246-0.49-0.246c-0.919,0-2.85,0.092-3.002,0.092
		c-0.153,0-2.083-0.092-3.462-0.092c-0.337,0-0.49,0.062-0.49,0.246c0,0.123,0.123,0.184,0.245,0.184
		c0.276,0,0.797,0.03,1.042,0.092c1.011,0.214,1.256,0.704,1.317,1.746c0.062,0.98,0.062,1.838,0.062,6.618v0.643
		c0,0.153-0.092,0.184-0.184,0.184h-12.989c-0.092,0-0.184-0.031-0.184-0.184V9.313c0-4.779,0-5.637,0.062-6.618
		c0.061-1.072,0.306-1.593,1.133-1.746c0.368-0.062,0.551-0.092,0.766-0.092c0.123,0,0.245-0.061,0.245-0.184
		c0-0.184-0.154-0.246-0.491-0.246c-0.919,0-2.849,0.092-3.002,0.092s-2.083-0.092-3.462-0.092c-0.337,0-0.49,0.062-0.49,0.246
		c0,0.123,0.122,0.184,0.245,0.184c0.276,0,0.796,0.03,1.042,0.092c1.011,0.214,1.256,0.704,1.317,1.746
		c0.061,0.98,0.061,1.838,0.061,6.618v5.392c0,2.941,0,5.361-0.153,6.648c-0.122,0.889-0.276,1.563-0.889,1.685
		c-0.275,0.062-0.643,0.123-0.919,0.123c-0.184,0-0.245,0.092-0.245,0.184c0,0.185,0.153,0.246,0.49,0.246
		c0.919,0,2.849-0.092,3.002-0.092s2.083,0.092,3.768,0.092c0.337,0,0.49-0.092,0.49-0.246c0-0.091-0.062-0.184-0.245-0.184
		c-0.276,0-0.949-0.061-1.378-0.123c-0.919-0.122-1.103-0.796-1.195-1.685c-0.153-1.287-0.153-3.707-0.153-6.648v-3.216
		c0-0.153,0.092-0.184,0.184-0.184h12.989c0.092,0,0.184,0.062,0.184,0.184v3.216c0,2.941,0,5.361-0.153,6.648
		c-0.123,0.889-0.275,1.563-0.888,1.685c-0.276,0.062-0.644,0.123-0.919,0.123c-0.184,0-0.245,0.092-0.245,0.184
		c0,0.185,0.153,0.246,0.49,0.246c0.919,0,2.849-0.092,3.002-0.092c0.153,0,2.083,0.092,3.769,0.092c0.336,0,0.49-0.092,0.49-0.246
		c0-0.091-0.061-0.184-0.245-0.184c-0.276,0-0.95-0.061-1.378-0.123c-0.919-0.122-1.103-0.796-1.195-1.685
		c-0.153-1.287-0.153-3.707-0.153-6.648V9.313z M205.009,13.127c3.199-0.877,5.351-3.547,5.351-7.17c0-1.667-0.879-3.081-1.57-3.741
		c-0.504-0.471-1.917-1.792-5.847-1.792c-1.445,0-4.113,0.097-4.945,0.097c-0.361,0-2.084-0.092-3.462-0.092
		c-0.337,0-0.49,0.062-0.49,0.246c0,0.123,0.123,0.184,0.245,0.184c0.276,0,0.797,0.03,1.042,0.092
		c1.011,0.214,1.256,0.704,1.317,1.746c0.062,0.98,0.062,1.838,0.062,6.618v5.392c0,2.941,0,5.361-0.153,6.648
		c-0.123,0.889-0.276,1.563-0.889,1.685c-0.276,0.062-0.644,0.123-0.919,0.123c-0.184,0-0.245,0.092-0.245,0.184
		c0,0.185,0.153,0.246,0.49,0.246c0.919,0,2.849-0.092,2.88-0.092c0.153,0,2.083,0.092,3.769,0.092c0.337,0,0.49-0.092,0.49-0.246
		c0-0.091-0.061-0.184-0.245-0.184c-0.275,0-0.95-0.061-1.378-0.123c-0.919-0.122-1.103-0.796-1.195-1.685
		c-0.153-1.287-0.153-3.707-0.153-6.648V13.97c0-0.153,0.061-0.245,0.214-0.245l2.973,0.046c0.184,0,0.346,0.072,0.404,0.199
		c0.465,1.018,1.109,2.737,2.036,4.635c1.265,2.594,1.484,3.744,2.802,4.448c0.795,0.429,1.631,0.537,3.348,0.537h1.477
		c0.551,0,0.734-0.061,0.734-0.246c0-0.091-0.123-0.188-0.275-0.184c-0.303,0.008-0.811-0.077-1.393-0.18
		c-0.496-0.088-1.945-0.44-2.842-2.118C207.52,18.765,206.231,15.712,205.009,13.127z M201.458,1.409
		c0.945-0.011,3.024-0.168,4.69,1.529c1.667,1.698,1.76,3.804,1.76,4.841c0,2.892-2.375,5.057-5.423,5.057
		c-1.259,0-2.65-0.214-3.11-0.49c-0.153-0.092-0.214-0.214-0.214-0.368V1.961c0-0.184,0.092-0.307,0.246-0.368
		C199.713,1.501,200.54,1.419,201.458,1.409z M219.215,8.823c0-2.359,0-5.484,0.031-6.525c0-0.337,0.092-0.49,0.367-0.613
		c0.246-0.123,1.379-0.214,1.992-0.214c3.645,0,7.137,0.429,10.018,3.461c1.256,1.317,2.941,3.83,2.941,7.721
		c0,2.818-0.859,5.759-2.451,7.322c-1.809,1.808-4.443,2.849-7.291,2.849c-3.615,0-4.811-0.643-5.209-1.225
		c-0.244-0.337-0.307-1.563-0.336-2.329c-0.031-0.582-0.062-3.4-0.062-6.648V8.823z M216.643,14.705c0,2.941,0,5.361-0.154,6.648
		c-0.121,0.889-0.275,1.563-0.889,1.685c-0.275,0.062-0.643,0.123-0.918,0.123c-0.184,0-0.246,0.092-0.246,0.184
		c0,0.185,0.154,0.246,0.49,0.246c0.459,0,1.164-0.061,1.777-0.061c0.643-0.031,1.164-0.031,1.225-0.031
		c0.154,0,1.195,0.092,2.543,0.184c1.318,0.092,2.941,0.184,4.26,0.184c5.207,0,7.965-2.145,9.281-3.523
		c1.715-1.808,3.309-4.779,3.309-8.639c0-3.646-1.439-6.188-2.971-7.782c-3.646-3.768-9.252-3.493-12.285-3.493
		c-1.838,0-3.768,0.092-4.137,0.092c-0.152,0-2.084-0.092-3.461-0.092c-0.338,0-0.49,0.062-0.49,0.246
		c0,0.123,0.123,0.184,0.244,0.184c0.277,0,0.797,0.03,1.043,0.092c1.01,0.214,1.256,0.704,1.316,1.746
		c0.062,0.98,0.062,1.838,0.062,6.618V14.705z M137.104,13.127c3.198-0.877,5.352-3.547,5.352-7.17c0-1.667-0.88-3.081-1.571-3.741
		c-0.503-0.471-1.917-1.792-5.847-1.792c-1.446,0-4.114,0.097-4.945,0.097c-0.361,0-2.083-0.092-3.462-0.092
		c-0.337,0-0.49,0.062-0.49,0.246c0,0.123,0.123,0.184,0.245,0.184c0.275,0,0.796,0.03,1.042,0.092
		c1.011,0.214,1.256,0.704,1.317,1.746c0.061,0.98,0.061,1.838,0.061,6.618v5.392c0,2.941,0,5.361-0.153,6.648
		c-0.123,0.889-0.276,1.563-0.889,1.685c-0.276,0.062-0.643,0.123-0.919,0.123c-0.184,0-0.245,0.092-0.245,0.184
		c0,0.185,0.153,0.246,0.49,0.246c0.919,0,2.849-0.092,2.88-0.092c0.153,0,2.083,0.092,3.768,0.092c0.337,0,0.49-0.092,0.49-0.246
		c0-0.091-0.061-0.184-0.245-0.184c-0.276,0-0.95-0.061-1.379-0.123c-0.919-0.122-1.103-0.796-1.195-1.685
		c-0.153-1.287-0.153-3.707-0.153-6.648V13.97c0-0.153,0.061-0.245,0.214-0.245l2.973,0.046c0.184,0,0.346,0.072,0.404,0.199
		c0.465,1.018,1.109,2.737,2.036,4.635c1.266,2.594,1.484,3.744,2.802,4.448c0.796,0.429,1.631,0.537,3.347,0.537h1.477
		c0.551,0,0.735-0.061,0.735-0.246c0-0.091-0.123-0.188-0.276-0.184c-0.303,0.008-0.811-0.077-1.392-0.18
		c-0.497-0.088-1.947-0.44-2.842-2.118C139.616,18.765,138.327,15.712,137.104,13.127z M133.554,1.409
		c0.946-0.011,3.025-0.168,4.69,1.529c1.667,1.698,1.76,3.804,1.76,4.841c0,2.892-2.375,5.057-5.424,5.057
		c-1.259,0-2.65-0.214-3.109-0.49c-0.153-0.092-0.214-0.214-0.214-0.368V1.961c0-0.184,0.092-0.307,0.245-0.368
		C131.808,1.501,132.635,1.419,133.554,1.409z M178.475,13.449c-0.092,0-0.153-0.062-0.092-0.215l2.696-8.271
		c0.153-0.459,0.306-0.459,0.459,0l2.91,8.271c0.031,0.123,0.031,0.215-0.123,0.215H178.475z M174.187,20.22
		c-0.552,1.532-1.164,2.696-2.574,2.88c-0.245,0.031-0.674,0.061-0.889,0.061c-0.153,0-0.275,0.061-0.275,0.184
		c0,0.185,0.184,0.246,0.582,0.246c1.44,0,3.125-0.092,3.462-0.092c0.337,0,1.654,0.092,2.39,0.092c0.276,0,0.459-0.061,0.459-0.246
		c0-0.123-0.092-0.184-0.306-0.184h-0.307c-0.521,0-1.164-0.276-1.164-0.888c0-0.552,0.153-1.287,0.429-2.053l1.838-5.422
		c0.061-0.153,0.153-0.246,0.306-0.246h6.586c0.154,0,0.215,0.062,0.276,0.184l2.85,7.537c0.184,0.49,0,0.766-0.184,0.827
		c-0.122,0.031-0.214,0.092-0.214,0.214c0,0.184,0.337,0.184,0.919,0.215c2.114,0.061,4.35,0.061,4.81,0.061
		c0.337,0,0.613-0.061,0.613-0.246c0-0.153-0.122-0.184-0.306-0.184c-0.307,0-0.767-0.03-1.226-0.184
		c-0.643-0.184-1.532-0.674-2.635-3.401c-1.869-4.656-6.678-17.309-7.138-18.473C182.121,0.153,181.999,0,181.814,0
		c-0.184,0-0.306,0.184-0.674,1.195L174.187,20.22z M272.764,13.449c-0.092,0-0.152-0.062-0.092-0.215l2.697-8.271
		c0.152-0.46,0.307-0.46,0.459,0l2.91,8.271c0.031,0.123,0.031,0.215-0.123,0.215H272.764z M271.172,23.59
		c0.275,0,0.459-0.062,0.459-0.246c0-0.123-0.092-0.184-0.307-0.184h-0.307c-0.52,0-1.164-0.276-1.164-0.888
		c0-0.552,0.154-1.287,0.43-2.053l1.838-5.422c0.062-0.153,0.152-0.246,0.307-0.246h6.585c0.154,0,0.215,0.062,0.275,0.184
		l2.85,7.537c0.184,0.49,0,0.766-0.184,0.827c-0.121,0.031-0.215,0.092-0.215,0.214c0,0.184,0.338,0.184,0.92,0.214
		c2.113,0.062,4.35,0.062,4.809,0.062c0.338,0,0.613-0.062,0.613-0.246c0-0.153-0.123-0.184-0.305-0.184
		c-0.309,0-0.768-0.03-1.227-0.184c-0.645-0.184-1.533-0.674-2.635-3.401c-1.869-4.656-6.678-17.309-7.138-18.474
		C276.411,0.153,276.288,0,276.104,0s-0.307,0.184-0.674,1.195l-6.953,19.025c-0.459,1.271-0.959,2.289-1.92,2.704
		c-0.799-0.269-1.594-0.876-2.605-2.011c-2.303-2.587-7.088-8.694-8.225-10.25c0.645-0.767,6.01-6.006,6.775-6.741
		c1.379-1.317,2.053-2.083,3.311-2.635c0.611-0.275,1.256-0.429,1.715-0.429c0.244,0,0.307-0.061,0.307-0.214
		s-0.123-0.215-0.461-0.215c-0.766,0-2.787,0.092-2.939,0.092c-0.736,0-1.686-0.092-2.299-0.092c-0.213,0-0.367,0.062-0.367,0.215
		c0,0.122,0.121,0.184,0.275,0.245c0.246,0.092,0.398,0.276,0.398,0.644c0,0.521-0.797,1.317-1.654,2.206
		c-1.104,1.195-6.648,6.832-7.168,7.414l-0.123-1.838c0-4.779,0-5.637,0.061-6.618c0.062-1.072,0.307-1.593,1.133-1.746
		c0.369-0.062,0.553-0.092,0.768-0.092c0.123,0,0.244-0.061,0.244-0.184c0-0.184-0.152-0.246-0.49-0.246
		c-0.918,0-2.695,0.092-2.971,0.092c-0.184,0-1.992-0.092-3.371-0.092c-0.336,0-0.49,0.062-0.49,0.246
		c0,0.123,0.123,0.184,0.246,0.184c0.275,0,0.797,0.03,1.041,0.092c1.012,0.214,1.256,0.705,1.318,1.746
		c0.061,0.98,0.061,1.838,0.061,6.618v5.392c0,2.941,0,5.361-0.152,6.648c-0.123,0.889-0.275,1.562-0.891,1.685
		c-0.275,0.062-0.643,0.123-0.918,0.123c-0.184,0-0.244,0.092-0.244,0.184c0,0.184,0.152,0.246,0.49,0.246
		c0.918,0,2.695-0.092,2.941-0.092c0.244,0,2.021,0.092,3.521,0.092c0.338,0,0.49-0.092,0.49-0.246c0-0.091-0.061-0.184-0.244-0.184
		c-0.275,0-0.768-0.061-1.195-0.123c-0.918-0.123-1.102-0.796-1.195-1.685c-0.152-1.287-0.152-3.707-0.152-6.648l0.016-2.979
		c0.689,0.955,3.523,4.735,5.398,7.107c1.629,2.063,2.848,3.524,4.156,4.243c0.557,0.306,0.844,0.521,2.266,0.521
		c0,0,2.014-0.103,3.086-0.103C269.438,23.493,270.436,23.59,271.172,23.59z M330.256,24.019c1.654,0,3.309-0.367,4.627-1.287
		c2.113-1.501,2.604-3.829,2.604-5.085c0-2.451-0.857-4.35-4.473-7.199l-0.857-0.674c-2.941-2.297-3.738-3.401-3.738-5.147
		c0-2.236,1.654-3.553,3.77-3.553c2.818,0,3.645,1.286,3.828,1.623c0.184,0.337,0.367,1.164,0.398,1.532
		c0.031,0.245,0.062,0.398,0.246,0.398c0.152,0,0.213-0.214,0.213-0.705c0-2.083,0.123-3.094,0.123-3.247
		c0-0.153-0.061-0.215-0.307-0.215c-0.244,0-0.49-0.031-1.072-0.153C334.852,0.123,333.963,0,332.768,0
		c-3.891,0-6.342,2.236-6.342,5.515c0,2.083,0.736,3.982,3.984,6.648l1.379,1.134c2.633,2.175,3.521,3.4,3.521,5.514
		c0,1.96-1.439,4.074-4.381,4.074c-2.053,0-4.074-0.857-4.533-3.125c-0.092-0.429-0.092-0.857-0.092-1.133
		c0-0.246-0.031-0.337-0.215-0.337c-0.152,0-0.215,0.154-0.246,0.49c-0.029,0.49-0.152,1.715-0.152,3.248
		c0,0.827,0.031,0.95,0.459,1.164C327.406,23.804,328.816,24.019,330.256,24.019z M314.66,9.313c0-4.779,0-5.637,0.062-6.618
		c0.061-1.072,0.305-1.593,1.193-1.746c0.369-0.062,0.797-0.092,1.012-0.092c0.123,0,0.244-0.061,0.244-0.184
		c0-0.184-0.152-0.246-0.488-0.246c-0.92,0-3.156,0.092-3.311,0.092c-0.152,0-2.084-0.092-3.461-0.092
		c-0.338,0-0.49,0.062-0.49,0.246c0,0.123,0.121,0.184,0.244,0.184c0.277,0,0.797,0.03,1.043,0.092
		c1.01,0.214,1.256,0.704,1.316,1.746c0.062,0.98,0.062,1.838,0.062,6.618v5.392c0,2.941,0,5.361-0.154,6.648
		c-0.121,0.889-0.275,1.563-0.889,1.685c-0.275,0.062-0.643,0.123-0.918,0.123c-0.184,0-0.246,0.092-0.246,0.184
		c0,0.185,0.154,0.246,0.49,0.246c0.459,0,1.135-0.031,1.746-0.061c0.613,0,1.135-0.031,1.256-0.031c0.889,0,1.84,0.031,3.125,0.092
		c1.287,0.03,2.881,0.092,5.086,0.092c1.623,0,1.717-0.123,1.93-0.827c0.246-0.889,0.459-2.727,0.459-3.064
		c0-0.337-0.029-0.459-0.184-0.459c-0.184,0-0.244,0.153-0.275,0.398c-0.092,0.582-0.398,1.348-0.797,1.838
		c-0.734,0.889-2.082,0.919-3.707,0.919c-2.389,0-3.186-0.214-3.676-0.705c-0.551-0.552-0.674-2.512-0.674-7.016V9.313z
		 M299.541,13.127c3.197-0.877,5.352-3.547,5.352-7.17c0-1.667-0.881-3.081-1.572-3.741c-0.502-0.471-1.918-1.792-5.846-1.792
		c-1.447,0-4.113,0.097-4.945,0.097c-0.361,0-2.084-0.092-3.463-0.092c-0.336,0-0.49,0.062-0.49,0.246
		c0,0.123,0.123,0.184,0.246,0.184c0.275,0,0.797,0.03,1.041,0.092c1.012,0.214,1.256,0.704,1.318,1.746
		c0.061,0.98,0.061,1.838,0.061,6.618v5.392c0,2.941,0,5.361-0.152,6.648c-0.123,0.889-0.277,1.563-0.889,1.685
		c-0.277,0.062-0.645,0.123-0.92,0.123c-0.184,0-0.246,0.092-0.246,0.184c0,0.185,0.154,0.246,0.492,0.246
		c0.918,0,2.848-0.092,2.879-0.092c0.152,0,2.082,0.092,3.768,0.092c0.338,0,0.49-0.092,0.49-0.246c0-0.091-0.061-0.184-0.244-0.184
		c-0.277,0-0.951-0.061-1.379-0.123c-0.92-0.122-1.104-0.796-1.195-1.685c-0.152-1.287-0.152-3.707-0.152-6.648V13.97
		c0-0.153,0.061-0.245,0.213-0.245l2.975,0.046c0.184,0,0.346,0.072,0.404,0.199c0.465,1.018,1.109,2.737,2.035,4.635
		c1.266,2.594,1.484,3.744,2.801,4.448c0.797,0.429,1.631,0.537,3.348,0.537h1.477c0.551,0,0.736-0.061,0.736-0.246
		c0-0.091-0.123-0.188-0.277-0.184c-0.303,0.008-0.811-0.077-1.391-0.18c-0.498-0.088-1.947-0.44-2.842-2.118
		C302.051,18.765,300.764,15.712,299.541,13.127z M295.99,1.409c0.945-0.011,3.023-0.168,4.689,1.529
		c1.668,1.698,1.76,3.804,1.76,4.841c0,2.892-2.373,5.057-5.422,5.057c-1.26,0-2.65-0.214-3.111-0.49
		c-0.152-0.092-0.213-0.214-0.213-0.368V1.961c0-0.184,0.092-0.307,0.244-0.368C294.244,1.501,295.07,1.419,295.99,1.409z"/>
	<path fill-rule="evenodd" clip-rule="evenodd" fill="#A51E37" d="M531.582,59.772c0.016,0.452,0.113,0.822,0.264,1.141
		c-0.199,0.57-0.295,1.059-0.371,1.776c-0.143,1.335-0.066,2.142,0.322,3.427l0.76-1.628l0.07-2.534
		c0.707,0.7,1.576,1.311,1.943,2.605c0.322,1.141,0.182,2.584-0.395,4.072c-2.201-0.144-3.713-0.883-4.357-2.738
		C529.281,64.344,529.639,60.998,531.582,59.772z M501.688,59.337c1.722-1.346,4.692-1.269,6.035,0.504
		c-1.394,0.06-2.801,0.837-3.587,1.387l-0.835-1.692L501.688,59.337z M501.824,65.542c-1.56-1.268-1.989-3.23-1.101-5.033
		l1.323,0.359l1.311,1.006C502.384,62.836,501.943,64,501.824,65.542z M510.672,13.088c0.91,1.258,1.556,2.812,2.151,4.623
		c-1.41-0.778-2.671-1.371-3.913-1.81L510.672,13.088z M502.755,9.425c2.699,0.167,4.616,0.783,6.051,1.797l0.165,1.376
		c0,0-0.711,1.814-1.246,2.929c-0.812-0.226-1.636-0.391-2.504-0.503c-0.199-0.502-0.42-1.008-0.719-1.323
		c-0.68-0.716-1.157-1.062-2.049-1.488l0.155-1.436L502.755,9.425z M494.324,12.076c1.916-1.526,4.236-2.568,6.88-2.68
		c-0.218,1.135-0.724,2.857-0.956,3.395c0.137,0.14,0.793,1.297,0.971,2.042c-1.062,0.016-2.031,0.071-2.943,0.177
		C497.264,14.251,495.245,12.757,494.324,12.076z M490.26,16.936c0.802-1.434,1.842-2.824,3.093-4.013
		c0.671,0.347,1.141,0.673,1.803,1.235c0.504,0.427,0.811,0.728,1.181,1.171c-2.01,0.438-3.837,1.196-5.939,2.406
		c-0.009-0.137-0.027-0.275-0.059-0.446L490.26,16.936z M523.938,13.907c0.434,0.285,0.648,0.568,0.805,1.059
		c-2.664,1.373-4.289,2.703-6.408,5.163c-0.1-1.859-0.422-3.892,0.508-5.965c0.422-0.178,0.834-0.249,1.389-0.257
		c0.676-0.01,2.02-0.171,2.357-0.309C523.088,13.395,523.486,13.611,523.938,13.907z M526.521,9.292
		c0.584-0.044,1.188-0.057,1.805-0.042c3.121,0.074,5.129,0.893,7.412,3.022c-2.029-0.023-3.65,0.102-5.227,0.457l-2.229-0.566
		L526.521,9.292z M521.402,10.979c1.002-0.729,2.16-1.193,3.436-1.456c0.486,0.361,1.012,1.025,1.293,1.305
		c0.666,0.662,1.092,1.213,1.076,2.151c-0.006,0.345-0.053,0.633-0.152,0.896l-0.873,0.389c-0.406-0.556-0.816-0.915-1.486-1.336
		C524.215,12.625,522.215,11.455,521.402,10.979z M527.605,24.09c-1.33,0.484-2.559,1.121-3.695,1.919
		c-0.447-1.577-0.652-3.222-0.291-3.388c0.918-0.126,1.502-0.05,2.357,0.309C526.705,23.236,527.143,23.542,527.605,24.09z
		 M533.025,22.985c-1.441,0.104-2.787,0.326-4.049,0.669c0.01-0.434,0.002-0.809-0.023-1.342c-0.068-1.35-0.17-2.115-0.465-3.433
		c0.91,0.542,1.402,0.897,2.203,1.591C531.721,21.361,532.32,21.998,533.025,22.985z M540.852,23.783
		c-1.412-0.469-2.918-0.739-4.564-0.832c0.012-0.57,0.01-0.944-0.004-1.56c-0.025-0.981-0.059-1.535-0.154-2.512
		c0.76,0.173,1.188,0.35,1.848,0.766c0.861,0.544,1.273,1.007,1.85,1.849C540.383,22.31,540.639,22.876,540.852,23.783z
		 M544.76,18.615c3.053,2.667,4.732,6.578,3.566,10.243c-1.488-1.586-2.98-2.826-4.562-3.753c-0.459-0.786-0.629-1.439-0.66-2.432
		C543.051,20.962,543.566,19.688,544.76,18.615z M538.15,15.401c0.844,0.19,1.688,0.443,2.531,0.763
		c1.15,0.437,2.23,1.033,3.203,1.75c-0.834,0.771-1.418,1.251-2.41,1.988c-0.443,0.33-0.697,0.51-1.156,0.819
		c-0.926-1.183-1.34-1.981-1.775-3.419C538.32,16.565,538.215,16.078,538.15,15.401z M527.725,15.99
		c2.844-0.955,6.01-1.33,9.246-0.815c-0.699,0.312-1.203,0.687-1.83,1.327c-0.625,0.638-0.867,1.105-1.289,1.892
		c-0.344,0.64-0.508,1.021-0.736,1.71l-1.355-1.001c-1.047-0.772-1.676-1.159-2.688-1.975
		C528.525,16.686,528.178,16.394,527.725,15.99z M518.312,24.345c0.471-1.811,1.355-3.46,2.76-4.642
		c1.537-1.295,3.379-2.423,5.422-3.256c0.01,0.896,0.104,1.507,0.357,2.455c0.162,0.603,0.34,0.917,0.533,1.51
		c0.27,0.833,0.408,1.309,0.625,2.158c-1.35-0.479-2.135-0.696-3.535-0.979c-0.955-0.193-1.5-0.276-2.469-0.376
		c-0.051,0.404-0.051,0.641,0,1.045c0.107,0.844,0.785,1.17,0.824,2.02c0.021,0.481-0.018,0.768-0.176,1.223L518.312,24.345z
		 M518.477,32.094c-0.33-1.144-0.535-2.415-0.58-3.712l1.443,0.39c-0.025-0.486-0.045-0.76-0.09-1.245
		c-0.078-0.871-0.143-1.361-0.287-2.224c1.096,0.282,1.717,0.429,2.822,0.664c0.678,0.145,1.104,0.23,1.711,0.343
		C521.576,27.75,519.924,29.666,518.477,32.094z M485.906,55.366c1.191,0.907,1.914,1.365,3.243,2.058
		c1.202,0.627,1.914,0.931,3.198,1.366c-1.239,0.447-2.008,0.585-3.326,0.596c-0.622,0.004-0.976-0.021-1.59-0.115
		C487.432,59.27,485.938,57.551,485.906,55.366z M546.377,41.97c1.213,2.558,1.371,5.542,0.029,8.079
		c-0.738-1.734-2.094-4.047-4.008-5.713L546.377,41.97z M539.271,36.237c0.434,0.104,0.867,0.233,1.303,0.389
		c2.061,0.739,3.771,2.148,4.959,3.88c-0.229,0.379-0.465,0.679-0.832,1.077c-0.916,0.999-1.691,1.573-2.93,2.246
		c-0.195-0.144-0.393-0.281-0.596-0.41c-0.02-0.951-0.037-1.863-0.252-2.814C540.518,38.804,540.109,37.704,539.271,36.237z
		 M524.125,49.542c-1.355,2.027-2.436,4.348-3.158,6.801c0.162-2.798,0.672-5.412,1.465-7.773L524.125,49.542z M530.648,43.428
		c-2.328,1.209-4.418,3.144-6.119,5.526l-1.695-1.5c0.967-2.503,2.258-4.687,3.783-6.462L530.648,43.428z M538.992,42.44
		c-2.152-0.582-4.258-0.494-6.234,0.118c-0.559-0.719-1.971-1.366-1.971-1.366c-0.541-0.286-2.238-0.96-3.18-1.265
		c1.512-1.492,3.209-2.61,5.018-3.282c0.463,0.228,0.809,0.474,1.271,0.879c0.619,0.545,0.926,0.924,1.332,1.643
		c0.309-0.657,0.471-1.034,0.736-1.709c0.238-0.606,0.387-1.018,0.557-1.538c0.432-0.003,0.867,0.018,1.303,0.066
		c0.566,1.181,1.256,2.886,1.256,2.886l1.303,4.098C539.939,42.751,539.477,42.571,538.992,42.44z M524.863,40.009
		c-0.738,0.944-1.346,1.938-1.834,2.929c-0.535,1.082-1.01,2.205-1.434,3.316l-2.389-1.908l0.664-1.245l1.492-0.642l-0.801-1.245
		c0.699-0.446,1.129-0.656,1.908-0.935c0.666-0.237,1.059-0.538,1.76-0.443C524.488,39.872,524.66,39.917,524.863,40.009z
		 M545.164,37.297l-0.518-0.403c-0.803-0.604-1.607-1.103-2.42-1.502c-0.045-0.626-0.158-1.122-0.396-1.824
		c-0.25-0.729-0.445-1.131-0.869-1.776c-0.213,0.768-0.344,1.198-0.598,1.953l-0.287,0.823c-2.842-0.788-5.799-0.455-9.012,0.796
		c-2.576,1.002-4.547,2.606-6.018,4.416c-0.508-0.297-0.809-0.539-1.242-0.989c-0.566-0.587-0.838-0.988-1.174-1.732
		c0.869-0.326,1.389-0.457,2.307-0.581c0.691-0.093,1.088-0.112,1.783-0.088c-0.053-0.58-0.076-0.907-0.111-1.488
		c-0.037-0.597-0.053-0.935-0.072-1.533c0.852-0.036,1.34-0.006,2.18,0.133c0.744,0.123,1.162,0.232,1.871,0.487
		c0.221-0.492,0.688-3.314,0.729-3.685c0.396,0.32,3.371,2.729,3.934,2.888c-0.004-0.599,0.021-0.94,0.111-1.532
		c0.164-1.065,0.346-1.668,0.803-2.645c0.436,0.459,0.662,0.742,1.018,1.267c0.432,0.636,1.098,2.256,1.156,2.601
		c0.625-0.653,0.973-1.026,1.582-1.692c0.596-0.652,0.93-1.023,1.51-1.688c0.666,0.485,1.793,1.9,2.174,2.63
		C544.09,33.065,545.021,36.734,545.164,37.297z M549.484,33.27c0.381,0.752,0.721,1.553,1.027,2.398
		c1.312,3.612,1.564,6.043-0.674,9.831c-0.371-2.294-1.025-4.064-2.15-5.617c0.018-0.758,0.105-1.464,0.277-2.402
		C548.201,36.19,548.908,34.567,549.484,33.27z M543.936,27.459c2.027,1.039,3.551,2.522,4.736,4.376
		c-0.207,0.412-0.445,0.81-0.707,1.18c-0.574,0.811-0.99,1.227-1.803,1.798c0.035-0.731-0.318-1.389-0.525-2.091
		c-0.254-0.86-0.436-0.973-0.787-1.798C544.297,29.623,544.066,28.766,543.936,27.459z M535.842,25.674
		c1.736-0.022,3.574,0.235,5.568,0.802l0.574,0.175l0.779,0.693c-0.859,0.529-1.318,0.884-2.047,1.582
		c-0.75,0.719-1.133,1.178-1.709,2.042c-0.738-1.086-1.137-1.713-1.803-2.844C536.639,27.166,536.295,26.552,535.842,25.674z
		 M518.477,41.202c0.041-0.377,0.09-0.759,0.143-1.144c0.42-3.056,3.52-8.125,6.783-10.611c0.459,0.093,0.832,0.208,1.361,0.409
		c0.793,0.301,1.229,0.527,1.932,1.001c0.033-0.7,0.029-1.099-0.023-1.798c-0.043-0.598-0.088-0.988-0.182-1.495
		c0.848-0.43,1.699-0.791,2.564-1.079c0.396,0.184,0.732,0.39,1.176,0.705c0.654,0.465,0.996,0.783,1.51,1.399l1.104-2.872
		l0.406-0.026c0.102,1.273,0.068,2.083-0.133,3.412c-0.141,0.942-0.264,1.471-0.553,2.379l-3.734-2.711l-0.713,3.751
		c-0.953-0.229-1.498-0.336-2.467-0.487c-0.992-0.154-1.557-0.218-2.557-0.288c0.012,0.676,0.031,1.058,0.088,1.732
		c0.057,0.669,0.102,1.046,0.205,1.71c-0.871,0.502-1.4,0.737-2.357,1.045c-0.828,0.267-1.316,0.375-2.18,0.487
		c-0.178,0.398,0.338,0.603,0.936,1.001c0.42,0.28,0.504,0.646,0.779,1.09c-0.025,0.252,0.047,0.516-0.182,0.625
		c-0.842,0.398-1.244,0.57-2.041,0.93L518.477,41.202z M518.363,49.384c-0.098-1.431-0.148-2.844-0.127-4.279
		c0.689,0.228,1.104,0.48,1.662,1c0.395,0.368,0.594,0.616,0.863,1.085c-0.277,0.451-0.469,0.691-0.842,1.067
		C519.385,48.796,518.984,49.091,518.363,49.384z M518.85,54.37c-0.176-1.501-0.33-2.939-0.441-4.355l1.947-0.203
		C519.746,51.7,519.268,53.334,518.85,54.37z M541.705,65.875c-1.615,1.982-3.338,3.653-4.633,4.708
		c1.527-2.32,2.174-3.848,2.773-6.561c0.266-1.199,0.432-2.344,0.5-3.425c0.605,0.457,0.951,0.97,1.217,1.773
		c0.271,0.813,0.025,1.341,0.066,2.196C541.654,65.083,541.676,65.469,541.705,65.875z M546.486,55.93
		c-0.033,0.441-0.094,0.893-0.188,1.354c-0.447,2.221-1.641,4.515-3.094,6.605c-0.188-0.892-0.561-2.306-1.273-3.61
		c-0.467-0.856-1.076-1.278-1.574-1.555c-0.021-0.42-0.061-0.829-0.119-1.227c1.074-0.844,1.932-1.223,3.346-1.507
		C544.705,55.766,545.434,55.747,546.486,55.93z M533.375,44.354c0.926-0.21,1.92-0.303,2.986-0.26
		c1.904,0.076,3.932,0.933,5.535,2.199c0.088,0.557,0.195,0.957-0.037,1.728c-0.271,0.891-0.43,1.552-0.959,2.482
		c-0.377-1.223-0.963-3.096-1.262-3.109c-0.441-0.021-2.67,0.804-3.51,0.94c0.068,0.402,0.15,0.82,0.256,1.322
		c0.496-0.151,2.123-0.678,2.666-0.863c0.279,0.753,1.025,3.166,1.068,4.118c0.58-0.312,0.604-0.327,1.26-0.374
		c0.379-0.027,1.068,0.045,1.443,0.111c-0.223,0.487-0.273,1.08-0.516,1.56c-0.432,0.855-0.814,1.339-1.545,1.96
		c-0.248,0.211-0.43,0.336-0.682,0.456l-0.092-0.389c-0.771-2.985-2.727-4.393-5.525-4.994c0.1-1.356,0.059-2.193-0.17-3.582
		C534.076,46.324,533.857,45.522,533.375,44.354z M522.9,55.756c0.455-1.469,1.139-3.057,2.066-4.534
		c1.848-2.949,4.109-5.38,7.131-6.489c0.266,1.043,1.244,3.62,1.244,3.62c-0.041,0.463-0.074,1.874-0.059,2.714
		c-2.979-0.201-5.125,1.589-7.27,3.978c-0.367,0.411-0.688,0.854-0.967,1.31c-0.564,0.091-1.037,0.006-1.619-0.273
		C523.207,55.973,523.068,55.891,522.9,55.756z M523.135,61.321c-0.502-0.942-0.982-1.534-0.871-2.596
		c0.066-0.64,0.199-1.367,0.402-2.143c0.178,0.178,0.35,0.311,0.607,0.477c0.412,0.268,0.727,0.414,1.131,0.513
		C523.764,58.973,523.418,60.37,523.135,61.321z M492.961,18.863c1.864-1.097,3.698-1.784,5.09-1.827
		c-1.729,1.466-3.113,2.919-4.306,4.401c-0.03-0.355-0.076-0.66-0.16-1.09C493.529,20.066,493.221,19.418,492.961,18.863z
		 M487.107,23.849c1.119-1.388,2.523-2.682,3.997-3.761c0.044,0.234,0.106,0.469,0.198,0.758c0.143,0.446,0.77,1.587,1.165,2.286
		c-0.788,1.114-1.502,2.253-2.202,3.433c-0.602-0.577-1.017-0.966-1.693-1.59C488.326,24.748,487.534,24.185,487.107,23.849z
		 M484.318,33.278c-0.387-2.496,0.023-4.966,1.483-7.531c0.126-0.222,0.261-0.443,0.405-0.663c0.215,0.535,0.443,0.924,0.84,1.465
		c0.359,0.491,1.551,1.202,2.273,1.694c-0.781,1.479-1.348,2.828-1.782,4.222L484.318,33.278z M486.299,38.76
		c-0.805-1.491-1.408-2.945-1.76-4.384c0.33-0.136,0.621-0.214,1.046-0.293c0.599-0.111,1.022-0.14,1.53-0.086
		C486.771,35.425,486.525,36.958,486.299,38.76z M498.525,59.683c-0.649,1.146-0.992,2.442-1.008,3.807
		c-0.9-0.755-1.576-1.916-1.991-3.263L498.525,59.683z M502.855,56.051c-0.132,0.045-0.258,0.096-0.379,0.148
		c-1.139,0.508-2.092,1.187-2.85,1.992l-4.438,0.566c-0.303-1.917-0.126-4.026,0.617-5.821c1.57,0.161,2.549,0.443,4.041,1.146
		C501.131,54.687,501.872,55.167,502.855,56.051z M511.49,58.334c-0.489-0.561-1.062-1.022-1.684-1.396
		c-0.417-1.42-1.048-3.021-1.275-3.464c-0.357-0.701-0.751-1.083-1.249-1.543c-0.626,0.334-1.044,0.543-1.584,1.084
		c-0.36,0.359-1.241,1.098-1.479,1.549c-0.286-0.559-0.476-0.863-0.852-1.366c-0.765-1.022-1.314-1.543-2.378-2.249
		c-0.321,0.289-0.468,0.529-0.577,0.948c-0.082,0.314-0.09,0.513-0.032,0.833c-0.792-0.061-1.251-0.189-1.962-0.545
		c-0.669-0.336-1.098-0.645-1.52-1.127c0.363-0.454,0.781-0.861,1.258-1.205C505.534,44.52,511.668,51.561,511.49,58.334z
		 M506.166,25.445c-0.717-0.093-1.466-0.146-2.25-0.161c-0.969-0.018-1.906,0.063-2.811,0.231l1.479-2.547l0.77-0.981
		c0.707,0.565,1.076,0.934,1.641,1.641C505.529,24.298,505.834,24.762,506.166,25.445z M515.839,24.853
		c0.905,2.304,1.054,4.843,0.522,6.992c-2.399-3.37-5.137-5.331-8.69-6.134l1.446-5.3c1.203,0.939,1.811,1.607,2.635,2.892
		c0.551,0.858,1.468,2.816,2.152,4.533c0.117-0.373,0.282-0.742,0.514-1.175C514.849,25.859,515.217,25.381,515.839,24.853z
		 M510.594,19.187c2.031,0.935,3.525,2.429,4.523,4.163c-0.121,0.187-0.249,0.362-0.424,0.586c-0.251,0.322-0.404,0.497-0.691,0.788
		c-0.322-0.213-0.49-0.363-0.738-0.66c-0.576-0.69-1.658-3.113-2.089-3.808C510.924,19.852,510.746,19.529,510.594,19.187z
		 M497.324,20.568c2.379-1.586,5.051-2.412,8.229-2.412c1.085,0,2.086,0.118,3.003,0.334l0.017,0.62
		c-0.156,1.021-0.328,1.598-0.756,2.538c-0.31,0.679-0.525,1.049-0.963,1.654c-0.362-0.312-3.848-2.917-4.32-2.923
		c-0.329,0.988-1.697,4.426-2.359,5.342l-0.25,0.066c-0.258-0.96-0.576-1.536-1.262-2.307c-0.568-0.638-0.975-0.95-1.737-1.333
		l0.257-0.756L497.324,20.568z M492.676,25.008c1.046-1.321,2.121-2.454,3.26-3.4c0.186,0.591,0.323,1.095,0.43,1.599l1.989,1.928
		l0.624,0.95c-1.545,0.544-2.967,1.341-4.243,2.312c-0.37-0.559-0.987-1.477-1.062-1.814c-0.073-0.334-0.542-1.167-0.978-1.566
		L492.676,25.008z M488.752,36.129c0.037-4.109,0.863-6.876,3.073-9.99l0.618,0.201c0.121,0.632,0.246,0.988,0.546,1.558
		c0.274,0.52,0.485,0.819,0.864,1.215C491.586,31.08,489.842,33.592,488.752,36.129z M509.742,40.687
		c-0.549-0.298-1.111-0.526-1.688-0.707c-0.193-0.659-0.293-1.153-0.398-1.928c-0.107-0.784-0.136-1.234-0.129-2.025
		c0.453,0.226,0.7,0.376,1.109,0.674c0.309,0.226,0.477,0.365,0.756,0.627c0.635-0.274,1.061-0.344,1.75-0.289
		c0.537,0.043,0.85,0.129,1.334,0.368c-0.771,0.597-1.171,0.996-1.768,1.767C510.273,39.736,510.031,40.11,509.742,40.687z
		 M513.35,44.268c-0.893-1.456-1.871-2.457-2.913-3.16c0.79-0.833,1.311-1.319,2.231-2.094c0.715-0.602,1.134-0.924,1.897-1.462
		c-0.138,1.379-0.248,2.156-0.499,3.519C513.83,42.345,513.658,43.12,513.35,44.268z M517.162,50.083
		c0.061,2.323,0.107,4.674,0.053,7.594c-0.42-3.062-0.932-5.596-1.521-7.698L517.162,50.083z M517.018,41.857
		c0.013,0.399,0.02,0.807,0.02,1.223c0,2.029,0.041,3.795,0.086,5.513l-2.119-0.785c-0.256-0.71-0.523-1.359-0.803-1.951
		c0.092-0.556,0.198-0.979,0.396-1.606c0.295-0.937,0.518-1.455,0.994-2.314L517.018,41.857z M510.869,28.637
		c2.023,1.16,3.538,2.856,4.561,5.147c-0.117,0.331-0.303,0.638-0.576,0.973c-0.192,0.237-0.32,0.36-0.562,0.545l-2.072-1.814
		c0.115-0.654,0-1.126-0.402-1.654c-0.316-0.416-0.604-0.612-1.107-0.756c-0.062-0.58-0.062-0.915,0-1.494
		C510.75,29.206,510.794,28.931,510.869,28.637z M500.264,29.418c-2.596-0.059-4.69,0.757-6.533,1.804
		c1.424-2.083,3.713-3.475,6.383-4.089c0.146,0.37,0.207,0.685,0.234,1.15C500.375,28.733,500.355,29.053,500.264,29.418z
		 M504.051,30.246c-0.484-0.261-1.004-0.462-1.539-0.57c-0.393-0.08-0.775-0.14-1.148-0.183c0.092-0.424,0.114-0.808,0.094-1.339
		c-0.02-0.495-0.066-0.847-0.177-1.237c0.603-0.085,1.221-0.133,1.849-0.142l1.09,1.091c0.177,0.698,0.177,1.148,0,1.846
		C504.167,29.92,504.115,30.088,504.051,30.246z M501.523,31.562c1.596-0.08,3.219,0.111,4.775,0.603
		c-0.301-0.398-0.682-0.798-1.122-1.159l0.022-1.55c0.128-0.529,0.191-0.83,0.289-1.365c0.084-0.455,0.132-0.752,0.185-1.147
		l0.2,0.031c0.482,0.076,0.949,0.168,1.398,0.276c0.315,0.718,0.883,1.959,1.205,2.334c0.262,0.306,0.418,0.473,0.705,0.756
		c0,0-0.66,1.181-0.771,1.713c-0.228,1.092-0.109,2.119,0.322,2.928l-2.101-1.496c-0.183,0.595-0.372,1.19-0.31,1.496
		c0.247,1.202,0.367,1.911,0.275,3.134c-0.045,0.589-0.102,0.979-0.222,1.469c-2.065-0.333-4.179-0.129-5.968,0.589
		c-0.096-0.648-0.09-1.132,0.004-1.866c0.109-0.854,0.487-1.269,0.609-2.121c0.091-0.639-0.035-1.017,0.064-1.654
		C501.158,34.065,501.342,32.492,501.523,31.562z M494.238,34.043c1.65-1.176,3.619-1.97,5.689-2.311
		c-0.215,1.384-0.348,2.286-0.561,3.78l-0.257,1.847l-0.948-0.096c-0.547-0.349-0.848-0.558-1.365-0.949
		C495.715,35.499,495.08,34.94,494.238,34.043z M489.76,40.039c0.827-1.987,1.998-3.768,3.028-4.781
		c0.147,0.785,0.269,1.362,0.508,2.262c0.287,1.076,0.493,1.675,0.931,2.699c-0.66-0.127-1.047-0.156-1.719-0.128
		c-0.601,0.025-0.926,0.261-1.525,0.224C490.486,40.285,490.145,40.211,489.76,40.039z M487.812,48.014
		c0.098-1.182,0.33-2.018,0.869-3.227c0-1.302,0.314-2.704,0.803-4.043l2.045,3.481l-0.867,1.986
		c-0.706,0.385-1.096,0.619-1.77,1.059C488.455,47.555,488.172,47.75,487.812,48.014z M489.117,54.531
		c-0.832-1.408-1.284-3.036-1.347-4.864c0.833,0.491,1.349,0.941,2.039,1.75c0.655,0.768,0.968,1.271,1.365,2.199
		c-0.312,0.226-0.503,0.337-0.853,0.5C489.876,54.323,489.502,54.456,489.117,54.531z M494.896,50.792
		c-1.126,2.495-1.573,5.351-1.449,7.684c-1.539-0.806-2.772-1.811-3.69-3.003c0.428-0.117,0.78-0.234,1.287-0.42
		c0.717-0.262,1.113-0.431,1.799-0.768c-0.104-1.059-0.291-1.674-0.795-2.611c-0.328-0.609-0.798-0.792-1.032-1.443
		c-0.152-0.424-0.197-0.689-0.192-1.141c0.601-0.092,0.973-0.066,1.553,0.109c0.506,0.152,0.748,0.354,1.197,0.631
		C494.125,50.169,494.454,50.407,494.896,50.792z M496.486,48.143c-0.162,0.205-0.318,0.416-0.467,0.633l-1.504-1.859l-1.494-0.641
		c0.218-0.551,0.719-1.547,1.053-1.926c-0.615-0.27-1.377-1.874-1.662-2.702c0.797,0.129,1.267,0.144,2.07,0.064
		c0.539-0.053,0.844-0.11,1.365-0.256l-1.43-5.045c1.287,0.385,2,0.71,3.135,1.43c0.944,0.599,1.787,0.774,2.231,1.801
		c0.116,0.27,0.177,0.462,0.214,0.708c-1.648,0.757-2.979,1.977-3.672,3.637c-0.098,0.718-0.121,1.13-0.107,1.854
		C496.237,46.754,496.299,47.309,496.486,48.143z M514.713,52.108c0.318,1.785,0.414,3.764,0.244,5.923
		c-0.805-1.937-1.693-3.916-2.704-5.732L514.713,52.108z M511.287,44.67c1.572,1.754,2.748,4.098,3.336,6.971
		c-0.488-0.43-0.973-0.682-1.698-0.916c-0.675-0.219-1.181-0.299-1.774-0.259l-0.455-0.67c0.228-0.688,0.354-1.267,0.479-2.123
		C511.348,46.493,511.383,45.711,511.287,44.67z M506.1,41.384c1.582,0.455,3.043,1.264,4.307,2.402
		c-0.166,0.741-0.318,1.513-0.404,2.183c-0.136,1.049-0.195,1.772-0.203,2.65c-1.439-1.74-3.088-3.036-5.012-3.542L506.1,41.384z
		 M499.036,42.072c1.647-0.884,3.455-1.314,5.61-1l0.176,0.027c-0.453,0.775-0.834,1.301-1.487,2.075
		c-0.485,0.576-0.781,0.885-1.333,1.397c-0.585-0.531-0.921-0.825-1.525-1.333C499.912,42.764,499.546,42.467,499.036,42.072z
		 M497.582,42.99c0.323-0.233,0.65-0.451,0.984-0.651c0.222,0.312,0.357,0.546,0.544,0.931c0.408,0.838,0.594,1.438,0.671,2.254
		c-0.815,0.361-1.545,0.852-2.193,1.438c-0.204-0.456-0.295-0.818-0.361-1.381C497.104,44.557,497.196,43.827,497.582,42.99z
		 M529.752,54.035c1.037-0.587,2.156-0.923,3.281-0.929c-0.342,0.387-0.592,0.793-0.871,1.368c-0.193,0.403-0.283,0.643-0.402,1.073
		c-0.318-0.499-0.574-0.756-1.072-1.073C530.352,54.261,530.061,54.12,529.752,54.035z M533.703,53.142
		c0.254,0.029,0.508,0.076,0.76,0.142c1.523,0.396,2.578,1.604,3.201,3.195c-0.92,0.425-1.514,0.866-2.297,1.673
		c-0.281,0.289-0.471,0.506-0.664,0.767c-0.391-0.311-0.84-0.549-1.35-0.695c-0.291-0.082-0.59-0.141-0.895-0.176
		c0.043-1.236,0.193-2.034,0.6-3.287C533.271,54.101,533.445,53.657,533.703,53.142z M538.248,58.846
		c0.348,2.706-0.193,5.82-1.512,8.021c0.299-1.852,0.195-3.998-0.475-5.709c0.754-0.379,1.213-0.838,1.664-1.638
		C538.064,59.276,538.17,59.06,538.248,58.846z M524.736,61.821c0.242-2.176,1.215-4.219,2.584-5.779
		c0.715,0.195,1.258,0.479,1.961,0.992c0.514,0.375,0.84,0.67,1.174,1.09C528.131,58.531,525.82,59.979,524.736,61.821z
		 M546.779,62.298c-4.514,7.677-10.43,11.427-13.338,11.375c0.533-0.822,0.709-1.952,0.658-2.615
		c-2.605,0.049-4.357-1.226-5.668-3.458c-1.055-1.798-0.75-5.292-0.75-5.292c-2.375-0.333-3.744,2.104-3.744,4.354v22.418
		c0,1.688,0.184,2.811,0.793,3.996c2.436,4.754,7.873,7.666,12.418,7.066c-2.004,2.205-4.025,3.738-7.254,4.084
		c-1.832,0.195-2.957,0.059-4.689-0.566c2.232,2.025,4.465,3.066,7.504,2.52c3.105-0.557,4.875-3.303,6.479-3.748
		c0.977-0.271,1.826-0.115,2.959,0.104c-1.41,0.156-2.428,0.93-3.127,1.857c-0.58,0.768-0.727,2.123-0.768,2.939
		c1.02,0.244,2.143,0.305,3.371-0.168c0.922-0.354,1.428-0.701,2.088-1.438c1.395,0.914,2.311,3.268,2.311,3.268
		c-1.35-0.568-2.779-0.619-4.043-0.189c-3.854,1.312-5.416,3.797-12.754,2.506c-3.219-0.566-4.244-2.855-6.848-3.252
		c0.873,0.523,1.391,1.268,1.766,2.352c0.275,0.797,0.332,1.312,0.23,2.15c4.189-1.025,6.771,1.375,9.564,1.557
		c3.723,0.242,4.184-3,10.104-2.934c1.85,0.021,4.459,1.314,5.268,3.352c-1.975-0.934-4.895-0.662-6.457-0.229
		c-2.424,0.67-3.871,1.479-5.584,3.357c1.75,0.689,2.871,0.885,4.754,0.83c1.59-0.047,2.516-0.234,4-0.809
		c-2.088,1.996-4.098,3.104-7.369,4.219c-2.191,0.746-3.637,0.488-5.881,0.01c0.662-0.355,1.02-1.004,1.02-1.004
		c-3.328-0.576-3.623-2.576-6.314-3.125c-0.715-0.145-1.127-0.199-1.854-0.246c2.709,5.08,8.873,8,13.773,6.854
		c2.354-0.549,5.449-1.533,7.832-4c-0.713,3.498-2.023,5.334-4.895,6.605c-3.838,1.699-6.812,1.996-10.75,0.516
		c1.746,1.543,3.75,2.188,6.416,2.666c1.75,0.314,2.789,0.354,4.559,0.168c-4.559,2.771-12.021,1.291-16.936-2.359
		c-3.5-2.6-5.438-5.201-6.939-9.473c0.545,4.648,1.568,9.703,6.213,12.627c2.189,1.379,4.287,2.291,6.311,2.039
		c-1.689,1.166-4.125,1.463-6.088,1.463c-3.914,0-7.559-3.668-9.248-7.982c0.355,4.83-1.55,7.982-4.926,7.982
		c-1.904,0-2.887-0.834-4.715-0.855c-1.146-0.012-1.967,0.238-3.127,0.705c0.539-1.193,0.77-1.986,1.73-2.875
		c1.976-1.83,5.766-1.844,7.162-4.938c0.897-1.984,0.754-3.35,0.482-5.562c-1.418,3.979-4,5.814-8.398,7.832
		c-2.403,1.104-3.623,3.463-4.168,5.48c-0.21-2.701-0.063-4.506,1.354-6.812c1.689-2.752,5.753-3.539,7.421-6.375
		c1.295-2.199,1.587-3.799,1.585-6.352c-0.88,3.002-2.192,5.166-3.756,6.248c-3.359,2.324-6.933,3.295-8.579,6.17
		c-1.336,2.332-1.412,4.141-0.957,6.766c-1.8-1.697-2.439-3.551-2.066-5.996c0.32-2.1,1.145-3.412,2.897-4.607
		c-2.487,0.252-4.22,1.658-4.978,4.041c-0.613,1.93-0.376,3.475,0.789,5.131c-4.23-1.109-3.924-6.988-1.25-9.877
		c4.587-4.957,12.713-4.588,9.312-13.648c-0.398,3.4-0.982,5.393-3.539,7.191c-4.062,2.854-10.332,2.561-11.463,9.312
		c-0.328-5.188,1.264-6.871,4.272-9.711c1.857-1.752,5.376-2.605,5.146-7.623c-1.166,2.75-2.814,3.854-5.104,4.852
		c-2.648,1.154-4.271,0.627-6.457,3.398c-0.105-2.023,0.588-3.912,2.499-5.047c1.753-1.039,3.623-0.811,4.956-2.807
		c0,0-1.514-0.586-3.707,0.266c2.088-2.625,3.623-1.953,5.689-2.953c1.271-0.613,1.787-1.15,2.709-2.107
		c-1.814-0.209-3.523-0.234-5.375,0.209c-2.186,0.523-4.523,2.373-4.523,2.373c1.334-3.742,6.57-6.898,11.728-8.355
		c6.995-1.975,9.83-2.686,11.137-5.105c0.896-1.658,1.056-2.203,1.056-6.033V64.821c0-2.53-4.016-1.75-5.197-0.569
		c-1.068,1.069-1.417,2.362-0.588,4.073c-5.033,0.066-6.379-3.896-6.379-3.896c-0.033,0.439-0.041,0.895-0.037,1.371
		c-1.785-0.869-2.732-1.732-3.764-3.43c-0.65-1.072-0.919-1.771-1.152-3.004c-1.566,1.242-5.721,1.641-6.392,1.15
		c-1.7-1.242-2.688-4.414-3.125-7.583c-0.403-2.928-0.228-4.747,0.733-7.542c-2.392-4.274-2.918-9.2-2.918-14.208
		c0-4.184,2.551-9.517,6.043-12.917c1.418-6.994,8.967-11.18,14.483-11.18c5.241,0,9.564,3.006,12.131,8.605
		c2.386-5.513,8.071-8.605,13.886-8.605c5.436,0,9.209,2.059,12.318,6.518c2.543,0.533,4.141,1.145,5.938,3.022
		c2.383,2.489,4.09,4.8,4.197,8.978c0.029,1.153-0.5,1.766-1.121,2.738c2.074,2.94,2.99,5.131,2.99,8.729
		c0,3.68-0.334,5.578-1.977,8.604c0.178,0.35,0.258,0.562,0.355,0.941c0.141,0.547,0.174,0.877,0.143,1.44
		c-1.182,0.391-2.484,0.311-2.809,1.511C548.184,50.618,550.406,55.774,546.779,62.298z M504.065,117.827
		c2.895-2.828,3.733-6.223,2.489-10.074c-0.766-2.367-1.768-3.705-3.822-5.105c0.59-0.648,0.947-0.996,1.609-1.57
		c0.558-0.484,0.887-0.744,1.49-1.17l0.723,1.943c0.926,2.484,2.336,4.016,2.402,6.361
		C509.076,112.409,506.463,115.94,504.065,117.827z M508.499,131.823c1.183-0.266,1.852-0.572,2.824-1.295
		c1.397-1.037,2.068-1.959,2.628-3.605c0.197,1.957-0.123,3.826-1.886,4.781C510.842,132.366,509.754,132.216,508.499,131.823z"/>
</g>
<g id="SCAN">
</g>
</svg>
