<?xml version="1.0" encoding="UTF-8" standalone="no"?>
<!-- Created with Inkscape (http://www.inkscape.org/) -->

<svg
   xmlns:dc="http://purl.org/dc/elements/1.1/"
   xmlns:cc="http://creativecommons.org/ns#"
   xmlns:rdf="http://www.w3.org/1999/02/22-rdf-syntax-ns#"
   xmlns:svg="http://www.w3.org/2000/svg"
   xmlns="http://www.w3.org/2000/svg"
   xmlns:xlink="http://www.w3.org/1999/xlink"
   xmlns:sodipodi="http://sodipodi.sourceforge.net/DTD/sodipodi-0.dtd"
   xmlns:inkscape="http://www.inkscape.org/namespaces/inkscape"
   id="svg2932"
   version="1.1"
   inkscape:version="0.47pre4 r22446"
   width="1074.947"
   height="161.50424"
   xml:space="preserve"
   sodipodi:docname="BALL_Unis.svg"
   inkscape:export-filename="/home/HPL/dstoeckel/source/BALL/data/HTMLBasedInterface/images/BALL-Unis.png"
   inkscape:export-xdpi="47.367176"
   inkscape:export-ydpi="47.367176"><metadata
     id="metadata2938"><rdf:RDF><cc:Work
         rdf:about=""><dc:format>image/svg+xml</dc:format><dc:type
           rdf:resource="http://purl.org/dc/dcmitype/StillImage" /><dc:title></dc:title></cc:Work></rdf:RDF></metadata><defs
     id="defs2936"><inkscape:perspective
       sodipodi:type="inkscape:persp3d"
       inkscape:vp_x="0 : 0.5 : 1"
       inkscape:vp_y="0 : 1000 : 0"
       inkscape:vp_z="1 : 0.5 : 1"
       inkscape:persp3d-origin="0.5 : 0.33333333 : 1"
       id="perspective2940" /><clipPath
       clipPathUnits="userSpaceOnUse"
       id="clipPath2950"><path
         d="M 0,1637.33 0,0 l 4087.08,0 0,1637.33 -4087.08,0 z"
         id="path2952" /></clipPath><clipPath
       id="clipPath3651"
       clipPathUnits="userSpaceOnUse"><path
         id="path3653"
         d="m 0,0 595.276,0 0,841.89 L 0,841.89 0,0 z" /></clipPath><clipPath
       id="clipPath3629"
       clipPathUnits="userSpaceOnUse"><path
         id="path3631"
         d="m 389.021,148.195 142.441,0 0,79.811 -142.441,0 0,-79.811 z" /></clipPath><clipPath
       id="clipPath3607"
       clipPathUnits="userSpaceOnUse"><path
         id="path3609"
         d="m 389.021,148.195 142.441,0 0,79.811 -142.441,0 0,-79.811 z" /></clipPath><clipPath
       id="clipPath3589"
       clipPathUnits="userSpaceOnUse"><path
         id="path3591"
         d="m 389.021,446.07 142.441,0 0,79.811 -142.441,0 0,-79.811 z" /></clipPath><clipPath
       id="clipPath3567"
       clipPathUnits="userSpaceOnUse"><path
         id="path3569"
         d="m 389.021,446.07 142.441,0 0,79.811 -142.441,0 0,-79.811 z" /></clipPath><clipPath
       id="clipPath3549"
       clipPathUnits="userSpaceOnUse"><path
         id="path3551"
         d="m 388.739,291.955 158.72,0 0,86.867 -158.72,0 0,-86.867 z" /></clipPath><clipPath
       id="clipPath3527"
       clipPathUnits="userSpaceOnUse"><path
         id="path3529"
         d="m 388.739,291.955 158.72,0 0,86.867 -158.72,0 0,-86.867 z" /></clipPath><clipPath
       id="clipPath3509"
       clipPathUnits="userSpaceOnUse"><path
         id="path3511"
         d="m 388.739,589.828 158.72,0 0,86.867 -158.72,0 0,-86.867 z" /></clipPath><clipPath
       id="clipPath3487"
       clipPathUnits="userSpaceOnUse"><path
         id="path3489"
         d="m 388.739,589.828 158.72,0 0,86.867 -158.72,0 0,-86.867 z" /></clipPath><clipPath
       id="clipPath3285"
       clipPathUnits="userSpaceOnUse"><path
         id="path3287"
         d="m 0,0 595.276,0 0,841.89 L 0,841.89 0,0 z" /></clipPath><clipPath
       id="clipPath3231"
       clipPathUnits="userSpaceOnUse"><path
         id="path3233"
         d="m 321.52,727.101 158.72,0 0,86.867 -158.72,0 0,-86.867 z" /></clipPath><clipPath
       id="clipPath3193"
       clipPathUnits="userSpaceOnUse"><path
         id="path3195"
         d="m 429.236,10.786 158.721,0 0,86.867 -158.721,0 0,-86.867 z" /></clipPath><inkscape:perspective
       id="perspective3183"
       inkscape:persp3d-origin="0.5 : 0.33333333 : 1"
       inkscape:vp_z="1 : 0.5 : 1"
       inkscape:vp_y="0 : 1000 : 0"
       inkscape:vp_x="0 : 0.5 : 1"
       sodipodi:type="inkscape:persp3d" /><inkscape:perspective
       id="perspective5282"
       inkscape:persp3d-origin="0.5 : 0.33333333 : 1"
       inkscape:vp_z="1 : 0.5 : 1"
       inkscape:vp_y="0 : 1000 : 0"
       inkscape:vp_x="0 : 0.5 : 1"
       sodipodi:type="inkscape:persp3d" /><inkscape:perspective
       id="perspective5335"
       inkscape:persp3d-origin="0.5 : 0.33333333 : 1"
       inkscape:vp_z="1 : 0.5 : 1"
       inkscape:vp_y="0 : 1000 : 0"
       inkscape:vp_x="0 : 0.5 : 1"
       sodipodi:type="inkscape:persp3d" /></defs><sodipodi:namedview
     pagecolor="#ffffff"
     bordercolor="#666666"
     borderopacity="1"
     objecttolerance="10"
     gridtolerance="10"
     guidetolerance="10"
     inkscape:pageopacity="0"
     inkscape:pageshadow="2"
     inkscape:window-width="1280"
     inkscape:window-height="950"
     id="namedview2934"
     showgrid="false"
     inkscape:zoom="1.3485026"
     inkscape:cx="198.08618"
     inkscape:cy="-0.16372246"
     inkscape:window-x="0"
     inkscape:window-y="25"
     inkscape:window-maximized="1"
     inkscape:current-layer="g2942" /><g
     id="g2942"
     inkscape:groupmode="layer"
     inkscape:label="ink_ext_XXXXXX"
     transform="matrix(1.25,0,0,-1.25,3.1461868,195.06357)"><rect
       style="fill:#000000;stroke:none"
       id="rect4163"
       width="859.95764"
       height="129.2034"
       x="-2.5169494"
       y="-156.05086"
       transform="scale(1,-1)" /><g
       id="g5425"><path
         d="m 106.18185,117.29494 0,-62.489688 -4.16811,0 c -7.797927,0 -14.974992,3.686846 -18.881318,7.398464 l 0,-10.78512 9.686126,0 3.987614,-7.671772 -1.842752,0 -4.194995,2.931568 -5.443125,0 1.938761,-2.096979 0.667589,-6.033879 -1.656492,0 -7.472135,8.130858 -11.857359,0 -2.574028,-2.931568 -1.653931,0 2.015185,7.671772 9.71224,0 -5.24176,5.700624 -19.533292,0 -5.24176,-5.700624 9.71224,0 2.017682,-7.671772 -1.657644,0 -2.572748,2.931568 -11.858767,0 -7.474504,-8.132108 -1.653931,0 0.667589,6.031378 1.938953,2.10073 -5.441845,0 -4.192947,-2.931568 -1.845184,0 3.990431,7.671772 9.78476,0 0,10.774879 C 31.934467,58.485634 24.759962,54.805252 16.97043,54.805252 l -4.17043,0 0,62.489688 c 0,5.26903 4.175435,8.22357 9.395984,8.22357 6.486945,0 11.231182,-4.56687 13.976427,-9.12542 l 2.227751,26.95319 10.681109,0 c 0,0 3.247825,-4.61039 4.230455,-6.00446 l 11.921238,0 c 0.985062,1.38638 4.275452,6.00446 4.275452,6.00446 l 10.427514,0 2.804771,-27.06905 c 2.736925,4.59568 7.500939,9.24128 14.042418,9.24128 5.223581,0 9.398731,-2.95454 9.398731,-8.22357"
         style="fill:#094270;fill-opacity:1;fill-rule:nonzero;stroke:none"
         id="path2954" /><path
         d="m 59.327327,115.84967 -2.835303,-2.12886 2.835303,-6.39235 2.890284,6.39235 -2.890284,2.12886"
         style="fill:#000000;fill-opacity:1;fill-rule:nonzero;stroke:none"
         id="path2956" /><path
         d="m 77.227809,123.0805 c 0,-4.66672 -3.784009,-8.45208 -8.45323,-8.45208 -4.666724,0 -8.449645,3.78536 -8.449645,8.45208 0,4.66672 3.782921,8.45208 8.449645,8.45208 4.669221,0 8.45323,-3.78536 8.45323,-8.45208"
         style="fill:#000000;fill-opacity:1;fill-rule:nonzero;stroke:none"
         id="path2958" /><path
         d="m 75.189005,123.0805 c 0,-3.54277 -2.870314,-6.41283 -6.413209,-6.41283 -3.542832,0 -6.414426,2.87006 -6.414426,6.41283 0,3.54149 2.871594,6.41283 6.414426,6.41283 3.542895,0 6.413209,-2.87134 6.413209,-6.41283"
         style="fill:#173e7d;fill-opacity:1;fill-rule:nonzero;stroke:none"
         id="path2960" /><path
         d="m 72.472435,123.0805 c 0,-2.04181 -1.653931,-3.6983 -3.697856,-3.6983 -2.040211,0 -3.697919,1.65649 -3.697919,3.6983 0,2.04117 1.657708,3.69766 3.697919,3.69766 2.043925,0 3.697856,-1.65649 3.697856,-3.69766"
         style="fill:#ffffff;fill-opacity:1;fill-rule:nonzero;stroke:none"
         id="path2962" /><path
         d="m 58.382205,123.0805 c 0,-4.66672 -3.780361,-8.45208 -8.449582,-8.45208 -4.666724,0 -8.449645,3.78536 -8.449645,8.45208 0,4.66672 3.782921,8.45208 8.449645,8.45208 4.669221,0 8.449582,-3.78536 8.449582,-8.45208"
         style="fill:#000000;fill-opacity:1;fill-rule:nonzero;stroke:none"
         id="path2964" /><path
         d="m 56.345769,123.0805 c 0,-3.54277 -2.869034,-6.41283 -6.413146,-6.41283 -3.540399,0 -6.413209,2.87006 -6.413209,6.41283 0,3.54149 2.87281,6.41283 6.413209,6.41283 3.544112,0 6.413146,-2.87134 6.413146,-6.41283"
         style="fill:#173e7d;fill-opacity:1;fill-rule:nonzero;stroke:none"
         id="path2966" /><path
         d="m 53.630479,123.0805 c 0,-2.04181 -1.653931,-3.6983 -3.697856,-3.6983 -2.040211,0 -3.69792,1.65649 -3.69792,3.6983 0,2.04117 1.657709,3.69766 3.69792,3.69766 2.043925,0 3.697856,-1.65649 3.697856,-3.69766"
         style="fill:#ffffff;fill-opacity:1;fill-rule:nonzero;stroke:none"
         id="path2968" /><path
         d="m 47.231095,81.040423 c 0,0.610112 -0.497588,1.107635 -1.108915,1.107635 -0.611264,0 -1.108851,-0.497523 -1.108851,-1.107635 l 0,-7.175977 c 0,-0.423532 -0.302496,-0.768591 -0.677575,-0.768591 -0.373799,0 -0.68007,0.345059 -0.68007,0.768591 l 0,7.175977 c 0,0.610112 -0.495028,1.107635 -1.107571,1.107635 -0.611328,0 -1.106419,-0.497523 -1.106419,-1.107635 l 0,-12.977603 c 0,-1.646123 1.297671,-2.985014 2.89406,-2.985014 1.595174,0 2.895341,1.338891 2.895341,2.985014 l 0,12.977603"
         style="fill:#000000;fill-opacity:1;fill-rule:nonzero;stroke:none"
         id="path2970" /><path
         d="m 57.002093,78.076148 c 0,0.611327 -0.495027,1.109363 -1.106355,1.109363 -0.615103,0 -1.110131,-0.498036 -1.110131,-1.109363 l 0,-7.177001 c 0,-0.425069 -0.303775,-0.770064 -0.67879,-0.770064 -0.372583,0 -0.678855,0.344995 -0.678855,0.770064 l 0,7.177001 c 0,0.611327 -0.495027,1.109363 -1.106355,1.109363 -0.61504,0 -1.110131,-0.498036 -1.110131,-1.109363 l 0,-12.977348 c 0,-1.647403 1.300167,-2.985334 2.895341,-2.985334 1.597606,0 2.895276,1.337931 2.895276,2.985334 l 0,12.977348"
         style="fill:#000000;fill-opacity:1;fill-rule:nonzero;stroke:none"
         id="path2972" /><path
         d="m 67.285657,78.076148 c 0,0.611327 -0.497524,1.109363 -1.107635,1.109363 -0.613824,0 -1.108851,-0.498036 -1.108851,-1.109363 l 0,-7.177001 c 0,-0.425069 -0.303776,-0.770064 -0.678791,-0.770064 -0.375079,0 -0.678854,0.344995 -0.678854,0.770064 l 0,7.177001 c 0,0.611327 -0.495028,1.109363 -1.108851,1.109363 -0.612544,0 -1.107635,-0.498036 -1.107635,-1.109363 l 0,-12.977348 c 0,-1.647403 1.29767,-2.985334 2.89534,-2.985334 1.595174,0 2.895277,1.337931 2.895277,2.985334 l 0,12.977348"
         style="fill:#000000;fill-opacity:1;fill-rule:nonzero;stroke:none"
         id="path2974" /><path
         d="m 77.055631,81.040423 c 0,0.610112 -0.495283,1.107635 -1.106547,1.107635 -0.612607,0 -1.110131,-0.497523 -1.110131,-1.107635 l 0,-7.175977 c 0,-0.423532 -0.303775,-0.768591 -0.678854,-0.768591 -0.371239,0 -0.678791,0.345059 -0.678791,0.768591 l 0,7.175977 c 0,0.610112 -0.495091,1.107635 -1.106355,1.107635 -0.611327,0 -1.106355,-0.497523 -1.106355,-1.107635 l 0,-12.977603 c 0,-1.646123 1.297607,-2.985014 2.891501,-2.985014 1.597669,0 2.895532,1.338891 2.895532,2.985014 l 0,12.977603"
         style="fill:#000000;fill-opacity:1;fill-rule:nonzero;stroke:none"
         id="path2976" /><path
         d="m 47.231095,101.58208 c 0,0.61132 -0.497588,1.10782 -1.108915,1.10782 -0.611264,0 -1.108851,-0.4965 -1.108851,-1.10782 l 0,-7.177261 c 0,-0.423532 -0.302496,-0.768784 -0.677575,-0.768784 -0.373799,0 -0.68007,0.345252 -0.68007,0.768784 l 0,7.177261 c 0,0.61132 -0.495028,1.10782 -1.107571,1.10782 -0.611328,0 -1.106419,-0.4965 -1.106419,-1.10782 l 0,-12.978375 c 0,-1.646379 1.297671,-2.98527 2.89406,-2.98527 1.595174,0 2.895341,1.338891 2.895341,2.98527 l 0,12.978375"
         style="fill:#000000;fill-opacity:1;fill-rule:nonzero;stroke:none"
         id="path2978" /><path
         d="m 57.002093,98.6178 c 0,0.610304 -0.495027,1.106611 -1.106355,1.106611 -0.615103,0 -1.110131,-0.496307 -1.110131,-1.106611 l 0,-7.176553 c 0,-0.425004 -0.303775,-0.770064 -0.67879,-0.770064 -0.372583,0 -0.678855,0.34506 -0.678855,0.770064 l 0,7.176553 c 0,0.610304 -0.495027,1.106611 -1.106355,1.106611 -0.61504,0 -1.110131,-0.496307 -1.110131,-1.106611 l 0,-12.979395 c 0,-1.643883 1.300167,-2.98527 2.895341,-2.98527 1.597606,0 2.895276,1.341387 2.895276,2.98527 l 0,12.979395"
         style="fill:#000000;fill-opacity:1;fill-rule:nonzero;stroke:none"
         id="path2980" /><path
         d="m 67.285657,98.6178 c 0,0.610304 -0.497524,1.106611 -1.107635,1.106611 -0.613824,0 -1.108851,-0.496307 -1.108851,-1.106611 l 0,-7.176553 c 0,-0.425004 -0.303776,-0.770064 -0.678791,-0.770064 -0.375079,0 -0.678854,0.34506 -0.678854,0.770064 l 0,7.176553 c 0,0.610304 -0.495028,1.106611 -1.108851,1.106611 -0.612544,0 -1.107635,-0.496307 -1.107635,-1.106611 l 0,-12.979395 c 0,-1.643883 1.29767,-2.98527 2.89534,-2.98527 1.595174,0 2.895277,1.341387 2.895277,2.98527 l 0,12.979395"
         style="fill:#000000;fill-opacity:1;fill-rule:nonzero;stroke:none"
         id="path2982" /><path
         d="m 30.036798,71.16791 c 0,-1.646186 1.300103,-2.985269 2.897773,-2.985269 1.595173,0 2.892844,1.339083 2.892844,2.985269 l 0,36.3673 c 0,0.60998 -0.495091,1.10475 -1.106419,1.10475 -0.61376,0 -1.108851,-0.49477 -1.108851,-1.10475 l 0,-30.440156 c 0,-0.425068 -0.304992,-0.770128 -0.677574,-0.770128 -0.377512,0 -0.680071,0.34506 -0.680071,0.770128 l 0,35.175366 c 0,0.60998 -0.496307,1.10667 -1.107571,1.10667 -0.611327,0 -1.110131,-0.49669 -1.110131,-1.10667 l 0,-41.10251"
         style="fill:#000000;fill-opacity:1;fill-rule:nonzero;stroke:none"
         id="path2986" /><path
         d="m 20.267016,66.817955 c 0,-1.644139 1.29767,-2.984566 2.89534,-2.984566 1.59639,0 2.893997,1.340427 2.893997,2.984566 l 0,50.245925 c 0,0.60934 -0.497524,1.10603 -1.108852,1.10603 -0.611327,0 -1.106354,-0.49669 -1.106354,-1.10603 l 0,-39.346298 c 0,-0.421035 -0.305056,-0.767311 -0.678791,-0.767311 -0.375079,0 -0.678854,0.346276 -0.678854,0.767311 l 0,38.576298 c 0,0.6119 -0.495028,1.10731 -1.110132,1.10731 -0.611263,0 -1.106354,-0.49541 -1.106354,-1.10731 l 0,-49.475925"
         style="fill:#000000;fill-opacity:1;fill-rule:nonzero;stroke:none"
         id="path2988" /><path
         d="m 88.906461,112.27682 c 0,0.60998 -0.494771,1.10667 -1.106034,1.10667 -0.615104,0 -1.110516,-0.49669 -1.110516,-1.10667 l 0,-35.175558 c 0,-0.423788 -0.303391,-0.768527 -0.67847,-0.768527 -0.373799,0 -0.679111,0.344739 -0.679111,0.768527 l 0,30.439068 c 0,0.6119 -0.494771,1.10859 -1.106034,1.10859 -0.615104,0 -1.110516,-0.49669 -1.110516,-1.10859 l 0,-36.364675 c 0,-1.646379 1.299335,-2.98527 2.895661,-2.98527 1.597606,0 2.89502,1.338891 2.89502,2.98527 l 0,41.101165"
         style="fill:#000000;fill-opacity:1;fill-rule:nonzero;stroke:none"
         id="path2990" /><path
         d="m 98.678356,116.29964 c 0,0.61126 -0.497332,1.10731 -1.108595,1.10731 -0.611264,0 -1.108595,-0.49605 -1.108595,-1.10731 l 0,-38.574313 c 0,-0.42302 -0.302752,-0.770576 -0.680391,-0.770576 -0.371238,0 -0.67783,0.347556 -0.67783,0.770576 l 0,39.344313 c 0,0.61126 -0.494772,1.10795 -1.107315,1.10795 -0.611264,0 -1.107315,-0.49669 -1.107315,-1.10795 l 0,-50.244644 c 0,-1.643691 1.298695,-2.985078 2.89246,-2.985078 1.597606,0 2.897581,1.341387 2.897581,2.985078 l 0,49.474644"
         style="fill:#000000;fill-opacity:1;fill-rule:nonzero;stroke:none"
         id="path2992" /><path
         d="m 75.189005,123.0805 c 0,-3.54277 -2.870314,-6.41283 -6.413209,-6.41283 -3.542832,0 -6.414426,2.87006 -6.414426,6.41283 0,3.54149 2.871594,6.41283 6.414426,6.41283 3.542895,0 6.413209,-2.87134 6.413209,-6.41283"
         style="fill:#094270;fill-opacity:1;fill-rule:nonzero;stroke:none"
         id="path2998" /><path
         d="m 72.472435,123.0805 c 0,-2.04181 -1.653931,-3.6983 -3.697856,-3.6983 -2.040211,0 -3.697919,1.65649 -3.697919,3.6983 0,2.04117 1.657708,3.69766 3.697919,3.69766 2.043925,0 3.697856,-1.65649 3.697856,-3.69766"
         style="fill:#000000;fill-opacity:1;fill-rule:nonzero;stroke:none"
         id="path3000" /><path
         d="m 56.345769,123.0805 c 0,-3.54277 -2.869034,-6.41283 -6.413146,-6.41283 -3.540399,0 -6.413209,2.87006 -6.413209,6.41283 0,3.54149 2.87281,6.41283 6.413209,6.41283 3.544112,0 6.413146,-2.87134 6.413146,-6.41283"
         style="fill:#094270;fill-opacity:1;fill-rule:nonzero;stroke:none"
         id="path3004" /><path
         d="m 53.630479,123.0805 c 0,-2.04181 -1.653931,-3.6983 -3.697856,-3.6983 -2.040211,0 -3.69792,1.65649 -3.69792,3.6983 0,2.04117 1.657709,3.69766 3.69792,3.69766 2.043925,0 3.697856,-1.65649 3.697856,-3.69766"
         style="fill:#000000;fill-opacity:1;fill-rule:nonzero;stroke:none"
         id="path3006" /><path
         d="m 77.055631,101.58208 c 0,0.61132 -0.495283,1.10782 -1.106547,1.10782 -0.612607,0 -1.110131,-0.4965 -1.110131,-1.10782 l 0,-7.177261 c 0,-0.423532 -0.303775,-0.768784 -0.678854,-0.768784 -0.371239,0 -0.678791,0.345252 -0.678791,0.768784 l 0,7.177261 c 0,0.61132 -0.495091,1.10782 -1.106355,1.10782 -0.611327,0 -1.106355,-0.4965 -1.106355,-1.10782 l 0,-12.978375 c 0,-1.646379 1.297607,-2.98527 2.891501,-2.98527 1.597669,0 2.895532,1.338891 2.895532,2.98527 l 0,12.978375"
         style="fill:#000000;fill-opacity:1;fill-rule:nonzero;stroke:none"
         id="path3022" /><path
         d="m 136.21377,107.46288 c -3.18817,0 -5.72155,2.1615 -5.72155,5.45913 l 0,10.21738 3.03647,0 0,-10.10857 c 0,-1.79027 1.04587,-2.86046 2.68508,-2.86046 1.63665,0 2.70748,1.07019 2.70748,2.86046 l 0,10.10857 3.01216,0 0,-10.21738 c 0,-3.29763 -2.53211,-5.45913 -5.71964,-5.45913"
         style="fill:#094270;fill-opacity:1;fill-rule:nonzero;stroke:none"
         id="path3032" /><path
         d="m 155.3844,107.59409 -6.1568,9.54083 0,-9.54083 -3.03647,0 0,15.5453 2.70748,0 6.1568,-9.51843 0,9.51843 3.03455,0 0,-15.5453 -2.70556,0"
         style="fill:#094270;fill-opacity:1;fill-rule:nonzero;stroke:none"
         id="path3034" /><path
         d="m 163.02552,107.59409 3.03506,0 0,15.54536 -3.03506,0 0,-15.54536 z"
         style="fill:#094270;fill-opacity:1;fill-rule:nonzero;stroke:none"
         id="path3036" /><path
         d="m 176.21409,107.59409 -2.2716,0 -5.13013,15.5453 3.144,0 3.12289,-10.13098 3.12288,10.13098 3.16513,0 -5.15317,-15.5453"
         style="fill:#094270;fill-opacity:1;fill-rule:nonzero;stroke:none"
         id="path3038" /><path
         d="m 183.9,107.59409 0,15.5453 10.23851,0 0,-2.70813 -7.20459,0 0,-3.64517 6.13568,0 0,-2.70812 -6.13568,0 0,-3.77768 7.20459,0 0,-2.7062 -10.23851,0"
         style="fill:#094270;fill-opacity:1;fill-rule:nonzero;stroke:none"
         id="path3040" /><path
         d="m 203.8784,120.43126 -2.86174,0 0,-4.1041 2.86174,0 c 1.33134,0 2.20503,0.85129 2.20503,2.05141 0,1.20141 -0.87369,2.05269 -2.20503,2.05269 z m 2.35608,-12.83717 -3.03519,6.20033 -2.18263,0 0,-6.20033 -3.03391,0 0,15.5453 6.09023,0 c 3.16577,0 5.04436,-2.16023 5.04436,-4.76082 0,-2.18262 -1.33134,-3.53509 -2.83869,-4.0817 l 3.473,-6.70278 -3.51717,0"
         style="fill:#094270;fill-opacity:1;fill-rule:nonzero;stroke:none"
         id="path3042" /><path
         d="m 217.41324,107.46288 c -2.35736,0 -4.14763,0.50245 -5.67547,2.05205 l 1.96501,1.96565 c 0.98314,-0.98251 2.3132,-1.31022 3.75591,-1.31022 1.78898,0 2.74972,0.67783 2.74972,1.92148 0,0.54598 -0.15233,1.00362 -0.48069,1.31022 -0.30403,0.28354 -0.65414,0.43588 -1.37422,0.54533 l -1.87795,0.26115 c -1.33134,0.19714 -2.31384,0.61254 -3.01472,1.28973 -0.74055,0.74184 -1.11307,1.74674 -1.11307,3.05696 0,2.77149 2.05397,4.71537 5.41432,4.71537 2.14166,0 3.69062,-0.52421 5.02196,-1.81139 l -1.9202,-1.90036 c -0.9825,0.93898 -2.16278,1.0702 -3.18817,1.0702 -1.61617,0 -2.40217,-0.89482 -2.40217,-1.96501 0,-0.393 0.13377,-0.80776 0.45957,-1.11307 0.30531,-0.28483 0.80648,-0.52486 1.44015,-0.61255 l 1.83443,-0.26243 c 1.41839,-0.19586 2.3164,-0.58886 2.96991,-1.20012 0.82888,-0.78664 1.20012,-1.92148 1.20012,-3.29698 0,-3.01279 -2.50906,-4.71601 -5.76444,-4.71601"
         style="fill:#094270;fill-opacity:1;fill-rule:nonzero;stroke:none"
         id="path3044" /><path
         d="m 226.91311,107.59409 3.03381,0 0,15.54536 -3.03381,0 0,-15.54536 z"
         style="fill:#094270;fill-opacity:1;fill-rule:nonzero;stroke:none"
         id="path3046" /><path
         d="m 240.38459,120.43126 0,-12.83717 -3.03392,0 0,12.83717 -4.06186,0 0,2.70813 11.15764,0 0,-2.70813 -4.06186,0"
         style="fill:#094270;fill-opacity:1;fill-rule:nonzero;stroke:none"
         id="path3048" /><path
         d="m 252.78459,124.68963 0,2.72988 2.42522,0 0,-2.72988 -2.42522,0 z m -1.09003,-6.1344 -1.965,-5.65627 3.86408,0 -1.89908,5.65627 z m -3.73415,6.1344 0,2.72988 2.42266,0 0,-2.72988 -2.42266,0 z m 7.35821,-17.09554 -0.91658,2.75101 -5.52313,0 -0.9409,-2.75101 -3.16577,0 5.65563,15.5453 2.37913,0 5.67675,-15.5453 -3.16513,0"
         style="fill:#094270;fill-opacity:1;fill-rule:nonzero;stroke:none"
         id="path3050" /><path
         d="m 265.90852,120.43126 0,-12.83717 -3.0352,0 0,12.83717 -4.0593,0 0,2.70813 11.15508,0 0,-2.70813 -4.06058,0"
         style="fill:#094270;fill-opacity:1;fill-rule:nonzero;stroke:none"
         id="path3052" /><path
         d="m 137.82994,93.270941 c -0.52485,0.632578 -1.22253,0.961636 -2.27224,0.961636 l -2.29207,0 0,-10.131804 2.29207,0 c 1.04971,0 1.74739,0.328802 2.27224,0.9601 0.56646,0.70004 0.65543,1.813948 0.65543,4.170417 0,2.35698 -0.089,3.339866 -0.65543,4.039651 z m 2.11798,-10.392823 c -1.02667,-1.025066 -2.48922,-1.485146 -4.10539,-1.485146 l -5.61082,0 0,15.546126 5.61082,0 c 1.61617,0 3.07872,-0.457776 4.10539,-1.484186 1.74546,-1.747382 1.57008,-3.886356 1.57008,-6.223622 0,-2.335219 0.17538,-4.606751 -1.57008,-6.353172"
         style="fill:#094270;fill-opacity:1;fill-rule:nonzero;stroke:none"
         id="path3054" /><path
         d="m 145.31872,81.392972 0,15.546126 10.23978,0 0,-2.706521 -7.20459,0 0,-3.646395 6.13568,0 0,-2.707545 -6.13568,0 0,-3.777864 7.20459,0 0,-2.707801 -10.23978,0"
         style="fill:#094270;fill-opacity:1;fill-rule:nonzero;stroke:none"
         id="path3056" /><path
         d="m 163.68158,81.262974 c -2.35928,0 -4.14891,0.502517 -5.67803,2.052694 l 1.96501,1.965196 c 0.9825,-0.982566 2.31384,-1.310088 3.75655,-1.310088 1.79026,0 2.75036,0.676294 2.75036,1.921415 0,0.543801 -0.15361,1.00388 -0.48005,1.308872 -0.30723,0.285022 -0.65606,0.437549 -1.37614,0.547577 l -1.87667,0.260059 c -1.3339,0.19746 -2.3164,0.612543 -3.01408,1.288838 -0.74247,0.742605 -1.11371,1.747445 -1.11371,3.055805 0,2.773088 2.05141,4.715497 5.4156,4.715497 2.14038,0 3.69062,-0.52255 5.02196,-1.812412 l -1.92148,-1.897925 c -0.9825,0.937826 -2.16278,1.069103 -3.18817,1.069103 -1.61489,0 -2.40281,-0.893853 -2.40281,-1.965196 0,-0.391592 0.13122,-0.806356 0.46021,-1.113651 0.30531,-0.282526 0.80776,-0.522551 1.44143,-0.611328 l 1.83123,-0.261275 c 1.42031,-0.196244 2.3164,-0.589821 2.97055,-1.201085 0.83016,-0.786321 1.20012,-1.920199 1.20012,-3.296598 0,-3.012857 -2.51034,-4.715498 -5.76188,-4.715498"
         style="fill:#094270;fill-opacity:1;fill-rule:nonzero;stroke:none"
         id="path3058" /><path
         d="m 135.44889,55.062494 c -2.35672,0 -4.14827,0.500532 -5.67675,2.050197 l 1.96501,1.965708 c 0.9825,-0.980581 2.31512,-1.310344 3.75655,-1.310344 1.78898,0 2.75164,0.678535 2.75164,1.922952 0,0.544504 -0.15489,1.002344 -0.48261,1.310088 -0.30403,0.282269 -0.65542,0.434541 -1.3755,0.544825 l -1.87603,0.261019 c -1.33134,0.1965 -2.31384,0.611327 -3.01408,1.290374 -0.74247,0.742605 -1.11243,1.746677 -1.11243,3.056317 0,2.771552 2.05269,4.716009 5.41304,4.716009 2.14102,0 3.68998,-0.525558 5.02132,-1.812668 l -1.9202,-1.900485 c -0.9825,0.940386 -2.1615,1.071599 -3.18753,1.071599 -1.61681,0 -2.40153,-0.896797 -2.40153,-1.965644 0,-0.393577 0.12993,-0.80834 0.45893,-1.113651 0.30339,-0.284766 0.80584,-0.524791 1.44015,-0.611328 l 1.83379,-0.262491 c 1.42031,-0.195028 2.31384,-0.588797 2.97055,-1.200125 0.82824,-0.786577 1.20012,-1.920199 1.20012,-3.296854 0,-3.012793 -2.51034,-4.715498 -5.76444,-4.715498"
         style="fill:#094270;fill-opacity:1;fill-rule:nonzero;stroke:none"
         id="path3060" /><path
         d="m 150.1653,66.15363 -1.965,-5.655563 3.86408,0 -1.89908,5.655563 z m 3.62406,-10.962354 -0.91658,2.752798 -5.52441,0 -0.93706,-2.752798 -3.16833,0 5.65563,15.547854 2.38041,0 5.67547,-15.547854 -3.16513,0"
         style="fill:#094270;fill-opacity:1;fill-rule:nonzero;stroke:none"
         id="path3062" /><path
         d="m 165.40656,66.15363 -1.965,-5.655563 3.8628,0 -1.8978,5.655563 z m 3.62278,-10.962354 -0.91594,2.752798 -5.52313,0 -0.94026,-2.752798 -3.16641,0 5.65563,15.547854 2.38169,0 5.67419,-15.547854 -3.16577,0"
         style="fill:#094270;fill-opacity:1;fill-rule:nonzero;stroke:none"
         id="path3064" /><path
         d="m 180.88465,68.031585 -2.86046,0 0,-4.105386 2.86046,0 c 1.33134,0 2.20503,0.851288 2.20503,2.051413 0,1.200124 -0.87369,2.053973 -2.20503,2.053973 z m 2.35929,-12.840309 -3.03456,6.203396 -2.18519,0 0,-6.203396 -3.03519,0 0,15.547854 6.09343,0 c 3.16641,0 5.04244,-2.162209 5.04244,-4.761518 0,-2.182691 -1.33261,-3.536368 -2.83741,-4.08164 l 3.47044,-6.704696 -3.51396,0"
         style="fill:#094270;fill-opacity:1;fill-rule:nonzero;stroke:none"
         id="path3066" /><path
         d="m 190.14321,55.191276 0,15.547854 3.0352,0 0,-12.839861 7.05097,0 0,-2.707993 -10.08617,0"
         style="fill:#094270;fill-opacity:1;fill-rule:nonzero;stroke:none"
         id="path3068" /><path
         d="m 208.79027,66.15363 -1.96565,-5.655563 3.86408,0 -1.89843,5.655563 z m 3.62405,-10.962354 -0.91913,2.752798 -5.52314,0 -0.93897,-2.752798 -3.16513,0 5.65563,15.547854 2.37912,0 5.67675,-15.547854 -3.16513,0"
         style="fill:#094270;fill-opacity:1;fill-rule:nonzero;stroke:none"
         id="path3070" /><path
         d="m 227.56726,55.191276 -6.15616,9.542751 0,-9.542751 -3.0352,0 0,15.547854 2.70812,0 6.15552,-9.520989 0,9.520989 3.0352,0 0,-15.547854 -2.70748,0"
         style="fill:#094270;fill-opacity:1;fill-rule:nonzero;stroke:none"
         id="path3072" /><path
         d="m 242.80724,67.071485 c -0.52358,0.631106 -1.22253,0.9601 -2.26904,0.9601 l -2.29527,0 0,-10.132316 2.29527,0 c 1.04651,0 1.74546,0.329058 2.26904,0.96138 0.56902,0.6978 0.65671,1.812668 0.65671,4.169457 0,2.358708 -0.0877,3.341082 -0.65671,4.041379 z m 2.11926,-10.394551 c -1.02795,-1.026859 -2.4905,-1.485658 -4.10667,-1.485658 l -5.61082,0 0,15.547854 5.61082,0 c 1.61617,0 3.07872,-0.459568 4.10667,-1.48489 1.74482,-1.74623 1.57136,-3.887892 1.57136,-6.224134 0,-2.336755 0.17346,-4.605983 -1.57136,-6.353172"
         style="fill:#094270;fill-opacity:1;fill-rule:nonzero;stroke:none"
         id="path3074" /><path
         d="m 250.29666,55.191276 0,15.547854 10.24234,0 0,-2.707545 -7.20779,0 0,-3.647611 6.13504,0 0,-2.708313 -6.13504,0 0,-3.776392 7.20779,0 0,-2.707993 -10.24234,0"
         style="fill:#094270;fill-opacity:1;fill-rule:nonzero;stroke:none"
         id="path3076" /><path
         d="m 268.63904,55.062494 c -2.358,0 -4.15083,0.500532 -5.67739,2.050197 l 1.96565,1.965708 c 0.9825,-0.980581 2.31384,-1.310344 3.75399,-1.310344 1.79026,0 2.75292,0.678535 2.75292,1.922952 0,0.544504 -0.15425,1.002344 -0.48261,1.310088 -0.30531,0.282269 -0.65415,0.434541 -1.37422,0.544825 l -1.8786,0.261019 c -1.33133,0.1965 -2.31384,0.611327 -3.01151,1.290374 -0.74248,0.742605 -1.11436,1.746677 -1.11436,3.056317 0,2.771552 2.05206,4.716009 5.41369,4.716009 2.13974,0 3.68998,-0.525558 5.02388,-1.812668 l -1.92404,-1.900485 c -0.9825,0.940386 -2.16023,1.071599 -3.18753,1.071599 -1.61553,0 -2.40025,-0.896797 -2.40025,-1.965644 0,-0.393577 0.13121,-0.80834 0.45765,-1.113651 0.30723,-0.284766 0.80968,-0.524791 1.44271,-0.611328 l 1.83251,-0.262491 c 1.4203,-0.195028 2.3164,-0.588797 2.96862,-1.200125 0.83145,-0.786577 1.20013,-1.920199 1.20013,-3.296854 0,-3.012793 -2.50842,-4.715498 -5.76124,-4.715498"
         style="fill:#094270;fill-opacity:1;fill-rule:nonzero;stroke:none"
         id="path3078" /></g><g
       id="g4145"
       transform="matrix(1.6596861,0,0,1.6596861,868.90103,-317.33841)"><g
         transform="translate(-733.03403,-242.24161)"
         id="g3563"><g
           clip-path="url(#clipPath3567)"
           id="g3565"><text
             id="text3571"
             transform="matrix(1,0,0,-1,399.1869,468.7507)"><tspan
               id="tspan3573"
               sodipodi:role="line"
               y="0"
               x="0 2.7944808 8.4571753 13.3383 18.36689 23.690413 29.161402 33.260956"
               style="font-size:7.37330008px;font-variant:normal;font-weight:normal;font-stretch:normal;writing-mode:lr-tb;fill:#ffffff;fill-opacity:1;fill-rule:nonzero;stroke:none;font-family:Frutiger 55 Roman;-inkscape-font-specification:Frutiger-Roman">JOHANNES</tspan><tspan
               id="tspan3575"
               sodipodi:role="line"
               y="8.2580957"
               x="99.023422 105.68888 110.75434 113.02531 118.27511"
               style="font-size:7.37330008px;font-variant:normal;font-weight:normal;font-stretch:normal;writing-mode:lr-tb;fill:#ffffff;fill-opacity:1;fill-rule:nonzero;stroke:none;font-family:Frutiger 55 Roman;-inkscape-font-specification:Frutiger-Roman">MAINZ</tspan></text>
<text
             id="text3577"
             transform="matrix(1,0,0,-1,420.5449,456.849)"><tspan
               id="tspan3579"
               sodipodi:role="line"
               y="0"
               x="0 9.2259817 18.578001 21.95582 30.236517 37.622341 45.701378 52.381393 55.633175 61.002392 68.463844"
               style="font-size:12.60379982px;font-variant:normal;font-weight:normal;font-stretch:normal;writing-mode:lr-tb;fill:#ffffff;fill-opacity:1;fill-rule:nonzero;stroke:none;font-family:Frutiger 55 Roman;-inkscape-font-specification:Frutiger-Roman">UNIVERSITÄT</tspan><tspan
               id="tspan3581"
               sodipodi:role="line"
               y="-11.935799"
               x="17.746151 26.846094 35.567924 42.323559 49.709389 59.565559 67.581573 74.841362 82.416245"
               style="font-size:12.60379982px;font-variant:normal;font-weight:normal;font-stretch:normal;writing-mode:lr-tb;fill:#ffffff;fill-opacity:1;fill-rule:nonzero;stroke:none;font-family:Frutiger 55 Roman;-inkscape-font-specification:Frutiger-Roman">GUTENBERG</tspan></text>
</g></g><path
         id="path3583"
         style="fill:#c4122d;fill-opacity:1;fill-rule:nonzero;stroke:none"
         d="m -280.98103,242.35639 35.217,0 0,35.217 -35.217,0 0,-35.217 z" /><g
         transform="translate(-733.03403,-242.24161)"
         id="g3585"><g
           clip-path="url(#clipPath3589)"
           id="g3587"><text
             id="text3593"
             transform="matrix(1,0,0,-1,455.7945,497.6718)"><tspan
               id="tspan3595"
               sodipodi:role="line"
               y="0"
               x="0 4.6218414 15.43643"
               style="font-size:12.98270035px;font-variant:normal;font-weight:normal;font-stretch:normal;writing-mode:lr-tb;fill:#ffffff;fill-opacity:1;fill-rule:nonzero;stroke:none;font-family:Stempel Garamond;-inkscape-font-specification:StempelGaramond-RomanOsF">JG </tspan></text>
<text
             id="text3597"
             transform="matrix(1,0,0,-1,475.2517,497.5423)"><tspan
               id="tspan3599"
               y="0"
               x="0"
               style="font-size:13.23309994px;font-variant:normal;font-weight:normal;font-stretch:normal;writing-mode:lr-tb;fill:#ffffff;fill-opacity:1;fill-rule:nonzero;stroke:none;font-family:Frutiger LT;-inkscape-font-specification:FrutigerLT-Roman">U</tspan></text>
</g></g><path
         id="path3601"
         style="fill:#ffffff;fill-opacity:1;fill-rule:nonzero;stroke:none"
         d="m -259.85603,249.20439 0.704,0 0,21.854 -0.704,0 0,-21.854 z" /></g><image
       y="-143.34628"
       x="558.73865"
       id="image5337"
       height="104.8"
       width="285.60001"
       xlink:href="file:///home/HPL/dstoeckel/source/BALL/data/HTMLBasedInterface/images/tuebingen.png"
       transform="scale(1,-1)" /></g></svg>