<?xml version="1.0" encoding="UTF-8" standalone="no"?>
<svg
   xmlns:dc="http://purl.org/dc/elements/1.1/"
   xmlns:cc="http://creativecommons.org/ns#"
   xmlns:rdf="http://www.w3.org/1999/02/22-rdf-syntax-ns#"
   xmlns:svg="http://www.w3.org/2000/svg"
   xmlns="http://www.w3.org/2000/svg"
   version="1.1"
   id="svg3510"
   viewBox="0 0 679.98002 352.05126"
   height="99.356689mm"
   width="191.90547mm">
  <defs
     id="defs3512" />
  <metadata
     id="metadata3515">
    <rdf:RDF>
      <cc:Work
         rdf:about="">
        <dc:format>image/svg+xml</dc:format>
        <dc:type
           rdf:resource="http://purl.org/dc/dcmitype/StillImage" />
        <dc:title></dc:title>
      </cc:Work>
    </rdf:RDF>
  </metadata>
  <g
     transform="translate(-31.438571,-27.76515)"
     id="layer1">
    <g
       id="g12"
       transform="matrix(1.25,0,0,-1.25,31.438571,380.86765)">
      <path
         id="path14"
         style="fill:#6e7073;fill-opacity:1;fill-rule:nonzero;stroke:none"
         d="m 0,54.627 c 0.695,-0.278 1.668,-0.418 2.637,-0.418 5,0 6.527,3.054 6.527,6.386 l 0,16.938 -3.332,0 0,-15.965 c 0,-2.777 -0.832,-4.441 -3.75,-4.441 -0.695,0 -1.387,0 -2.082,0.277 l 0,-2.777 z" />
      <path
         id="path16"
         style="fill:#6e7073;fill-opacity:1;fill-rule:nonzero;stroke:none"
         d="m 17.051,66.15 c 0,4.582 2.496,9.023 7.496,8.887 5.137,0.136 7.637,-4.305 7.637,-8.887 0,-4.582 -2.364,-9.023 -7.637,-9.023 -5.277,0 -7.496,4.441 -7.496,9.023 z m -3.473,0 c 0,-7.082 4.027,-11.941 10.969,-11.941 7.078,0 11.105,4.859 11.105,11.941 0,6.805 -4.164,11.801 -11.105,11.801 -6.942,0 -10.969,-4.996 -10.969,-11.801 z" />
      <path
         id="path18"
         style="fill:#6e7073;fill-opacity:1;fill-rule:nonzero;stroke:none"
         d="m 40.094,54.627 3.332,0 0,10.414 10.969,0 0,-10.414 3.332,0 0,22.906 -3.332,0 0,-9.578 -10.969,0 0,9.578 -3.332,0 0,-22.906 z" />
      <path
         id="path20"
         style="fill:#6e7073;fill-opacity:1;fill-rule:nonzero;stroke:none"
         d="m 59.254,54.627 3.473,0 2.359,5.832 11.246,0 2.223,-5.832 3.609,0 -9.719,22.906 -3.472,0 -9.719,-22.906 z m 15.969,8.468 -9.164,0 4.582,11.383 4.582,-11.383 z" />
      <path
         id="path22"
         style="fill:#6e7073;fill-opacity:1;fill-rule:nonzero;stroke:none"
         d="m 84.191,54.627 3.332,0 0,18.882 0,0 10.411,-18.882 4.164,0 0,22.906 -3.192,0 0,-18.465 -0.14,0 -10.133,18.465 -4.442,0 0,-22.906 z" />
      <path
         id="path24"
         style="fill:#6e7073;fill-opacity:1;fill-rule:nonzero;stroke:none"
         d="m 107.93,54.627 3.332,0 0,18.882 0,0 10.414,-18.882 4.164,0 0,22.906 -3.192,0 0,-18.465 -0.14,0 -10.133,18.465 -4.445,0 0,-22.906 z" />
      <path
         id="path26"
         style="fill:#6e7073;fill-opacity:1;fill-rule:nonzero;stroke:none"
         d="m 132.477,54.627 12.91,0 0,2.914 -9.578,0 0,7.5 8.746,0 0,2.914 -8.746,0 0,6.804 9.578,0 0,2.774 -12.91,0 0,-22.906 z" />
      <path
         id="path28"
         style="fill:#6e7073;fill-opacity:1;fill-rule:nonzero;stroke:none"
         d="m 161.605,77.119 c -1.667,0.554 -3.472,0.832 -5,0.832 -4.164,0 -7.359,-2.082 -7.359,-6.246 0,-7.082 9.859,-5.696 9.859,-10.832 0,-2.637 -2.636,-3.746 -4.441,-3.746 -1.668,0 -3.75,0.691 -4.859,1.109 l -0.278,-3.055 c 1.524,-0.554 3.051,-0.972 4.719,-0.972 4.582,0 8.328,1.945 8.328,6.804 0,7.637 -9.855,6.664 -9.855,10.969 0,2.496 2.222,3.055 4.027,3.055 1.664,0 2.637,-0.278 4.301,-0.836 l 0.558,2.918 z" />
      <path
         id="path30"
         style="fill:#6e7073;fill-opacity:1;fill-rule:nonzero;stroke:none"
         d="m 444.051,17.779 3.332,0 0,19.855 0.137,0 7.5,-19.855 3.191,0 7.637,19.855 0.14,0 0,-19.855 3.192,0 0,22.91 -5.414,0 -7.082,-19.023 -7.219,19.023 -5.414,0 0,-22.91 z" />
      <path
         id="path32"
         style="fill:#6e7073;fill-opacity:1;fill-rule:nonzero;stroke:none"
         d="m 471.289,17.779 3.473,0 2.359,5.832 11.246,0 2.223,-5.832 3.609,0 -9.719,22.91 -3.472,0 -9.719,-22.91 z m 15.969,8.469 -9.164,0 4.582,11.386 4.582,-11.386 z" />
      <path
         id="path34"
         style="fill:#6e7073;fill-opacity:1;fill-rule:nonzero;stroke:none"
         d="m 496.391,17.779 3.332,0 0,22.91 -3.332,0 0,-22.91 z" />
      <path
         id="path36"
         style="fill:#6e7073;fill-opacity:1;fill-rule:nonzero;stroke:none"
         d="m 506.527,17.779 3.332,0 0,18.883 0,0 10.411,-18.883 4.168,0 0,22.91 -3.196,0 0,-18.465 -0.137,0 -10.136,18.465 -4.442,0 0,-22.91 z" />
      <path
         id="path38"
         style="fill:#6e7073;fill-opacity:1;fill-rule:nonzero;stroke:none"
         d="m 528.156,17.779 15.828,0 0,2.918 -12.078,0 11.938,17.074 0,2.918 -15.41,0 0,-2.777 11.523,0 -11.801,-17.215 0,-2.918 z" />
      <path
         id="path40"
         style="fill:#6e7073;fill-opacity:1;fill-rule:nonzero;stroke:none"
         d="m 130.145,40.826 -5.692,0 0,-22.352 c 0,-7.496 -2.363,-12.633 -9.582,-12.633 -7.219,0 -9.578,5.137 -9.578,12.633 l 0,22.352 -5.691,0 0,-23.047 c 0,-10.969 5.691,-16.938 15.269,-16.938 9.719,0 15.274,5.969 15.274,16.938 l 0,23.047 z" />
      <path
         id="path42"
         style="fill:#6e7073;fill-opacity:1;fill-rule:nonzero;stroke:none"
         d="m 140.777,1.537 5.555,0 0,32.207 0.141,0 17.769,-32.207 7.219,0 0,39.289 -5.691,0 0,-31.653 -0.141,0 -17.215,31.653 -7.637,0 0,-39.289 z" />
      <path
         id="path44"
         style="fill:#6e7073;fill-opacity:1;fill-rule:nonzero;stroke:none"
         d="m 182.512,1.537 5.691,0 0,39.289 -5.691,0 0,-39.289 z" />
      <path
         id="path46"
         style="fill:#6e7073;fill-opacity:1;fill-rule:nonzero;stroke:none"
         d="m 229.773,40.826 -5.972,0 -12.356,-34.293 -0.136,0 -12.079,34.293 -6.386,0 14.855,-39.289 7.078,0 14.996,39.289 z" />
      <path
         id="path48"
         style="fill:#6e7073;fill-opacity:1;fill-rule:nonzero;stroke:none"
         d="m 234.797,1.537 21.937,0 0,4.996 -16.242,0 0,12.914 14.856,0 0,4.859 -14.856,0 0,11.524 16.242,0 0,4.996 -21.937,0 0,-39.289 z" />
      <path
         id="path50"
         style="fill:#6e7073;fill-opacity:1;fill-rule:nonzero;stroke:none"
         d="m 267.203,1.537 5.551,0 0,17.492 3.332,0 c 3.055,0 4.859,0 6.664,-3.887 l 5.973,-13.605 6.386,0 -7.359,15.687 c -1.25,2.36 -2.082,3.192 -3.887,3.887 l 0,0.141 c 4.582,0.691 8.192,4.164 8.192,8.882 0,9.442 -7.5,10.692 -15.274,10.692 l -9.578,0 0,-39.289 z m 5.551,34.293 5.418,0 c 5.137,0 7.91,-2.223 7.91,-5.832 0,-3.75 -3.191,-6.11 -8.469,-6.11 l -4.859,0 0,11.942 z" />
      <path
         id="path52"
         style="fill:#6e7073;fill-opacity:1;fill-rule:nonzero;stroke:none"
         d="m 322.125,39.994 c -2.637,0.972 -5.832,1.527 -8.328,1.527 -7.082,0 -12.637,-3.75 -12.637,-10.691 0,-12.219 16.938,-9.856 16.938,-18.602 0,-4.582 -4.578,-6.387 -7.774,-6.387 -2.914,0 -6.246,1.11 -8.191,1.942 l -0.555,-5.274 c 2.637,-0.836 5.277,-1.668 8.051,-1.668 7.914,0 14.301,3.332 14.301,11.664 0,13.051 -16.797,11.243 -16.797,18.743 0,4.164 3.746,5.273 6.801,5.273 2.918,0 4.582,-0.555 7.359,-1.664 l 0.832,5.137 z" />
      <path
         id="path54"
         style="fill:#6e7073;fill-opacity:1;fill-rule:nonzero;stroke:none"
         d="m 333.316,1.537 5.692,0 0,39.289 -5.692,0 0,-39.289 z" />
      <path
         id="path56"
         style="fill:#6e7073;fill-opacity:1;fill-rule:nonzero;stroke:none"
         d="m 355.613,1.537 5.692,0 0,34.293 12.218,0 0,4.996 -30.128,0 0,-4.996 12.218,0 0,-34.293 z" />
      <path
         id="path58"
         style="fill:#6e7073;fill-opacity:1;fill-rule:nonzero;stroke:none"
         d="m 367.496,1.537 5.832,0 4.027,9.855 19.297,0 3.887,-9.855 6.25,0 -16.664,39.289 -5.828,0 -16.801,-39.289 z m 27.352,14.437 -15.688,0 7.774,19.578 7.914,-19.578 z m -14.996,28.047 5.277,0 0,5.691 -5.277,0 0,-5.691 z m 9.164,0 5.277,0 0,5.691 -5.277,0 0,-5.691 z" />
      <path
         id="path60"
         style="fill:#6e7073;fill-opacity:1;fill-rule:nonzero;stroke:none"
         d="m 412.867,1.537 5.692,0 0,34.293 12.218,0 0,4.996 -30.125,0 0,-4.996 12.215,0 0,-34.293 z" />
      <path
         id="path62"
         style="fill:#6e7073;fill-opacity:1;fill-rule:nonzero;stroke:none"
         d="m 209.059,92.697 c -3.332,1.109 -5.832,2.082 -11.524,2.082 -11.941,0 -20.824,-8.055 -20.824,-20.133 0,-12.496 8.328,-20.547 20.824,-20.547 6.11,0 9.719,0.973 11.938,1.805 l 0,20.41 -13.883,0 0,-4.723 8.191,0 0,-11.8 c -1.386,-0.278 -2.359,-0.696 -6.246,-0.696 -8.191,0 -14.855,6.11 -14.855,15.274 0,8.886 6.109,15.41 15.132,15.41 4.997,0 8.051,-0.973 10.829,-2.777 l 0.418,5.695 z" />
      <path
         id="path64"
         style="fill:#6e7073;fill-opacity:1;fill-rule:nonzero;stroke:none"
         d="m 249.93,94.084 -5.692,0 0,-22.352 c 0,-7.5 -2.359,-12.637 -9.578,-12.637 -7.219,0 -9.582,5.137 -9.582,12.637 l 0,22.352 -5.691,0 0,-23.047 c 0,-10.969 5.691,-16.938 15.273,-16.938 9.719,0 15.27,5.969 15.27,16.938 l 0,23.047 z" />
      <path
         id="path66"
         style="fill:#6e7073;fill-opacity:1;fill-rule:nonzero;stroke:none"
         d="m 266.09,54.795 5.695,0 0,34.289 12.215,0 0,5 -30.125,0 0,-5 12.215,0 0,-34.289 z" />
      <path
         id="path68"
         style="fill:#6e7073;fill-opacity:1;fill-rule:nonzero;stroke:none"
         d="m 288.723,54.795 21.933,0 0,4.996 -16.242,0 0,12.914 14.856,0 0,4.855 -14.856,0 0,11.524 16.242,0 0,5 -21.933,0 0,-39.289 z" />
      <path
         id="path70"
         style="fill:#6e7073;fill-opacity:1;fill-rule:nonzero;stroke:none"
         d="m 321.402,54.795 5.555,0 0,32.207 0.141,0 17.769,-32.207 7.219,0 0,39.289 -5.691,0 0,-31.657 -0.141,0 -17.215,31.657 -7.637,0 0,-39.289 z" />
      <path
         id="path72"
         style="fill:#6e7073;fill-opacity:1;fill-rule:nonzero;stroke:none"
         d="m 365.109,54.795 10.411,0 c 7.914,0 14.996,2.082 14.996,10.41 0,5.554 -3.75,9.023 -9.164,9.441 l 0,0.141 c 5,1.25 8.054,4.023 8.054,9.3 0,7.36 -5.554,9.997 -13.746,9.997 l -10.551,0 0,-39.289 z m 5.555,17.91 3.609,0 c 4.86,0 10.274,-0.836 10.274,-6.946 0,-5.273 -4.582,-6.382 -9.719,-6.382 l -4.164,0 0,13.328 z m 0,16.66 5.969,0 c 3.191,0 7.219,-1.113 7.219,-5.832 0,-5.692 -4.582,-6.25 -10.137,-6.25 l -3.051,0 0,12.082 z" />
      <path
         id="path74"
         style="fill:#6e7073;fill-opacity:1;fill-rule:nonzero;stroke:none"
         d="m 401.43,54.795 21.933,0 0,4.996 -16.242,0 0,12.914 14.856,0 0,4.855 -14.856,0 0,11.524 16.242,0 0,5 -21.933,0 0,-39.289 z" />
      <path
         id="path76"
         style="fill:#6e7073;fill-opacity:1;fill-rule:nonzero;stroke:none"
         d="m 433.277,54.795 5.555,0 0,17.492 3.332,0 c 3.051,0 4.859,0 6.664,-3.887 l 5.969,-13.605 6.387,0 -7.36,15.687 c -1.25,2.359 -2.082,3.191 -3.886,3.887 l 0,0.14 c 4.582,0.692 8.191,4.164 8.191,8.883 0,9.442 -7.496,10.692 -15.274,10.692 l -9.578,0 0,-39.289 z m 5.555,34.289 5.414,0 c 5.137,0 7.914,-2.219 7.914,-5.829 0,-3.75 -3.195,-6.109 -8.469,-6.109 l -4.859,0 0,11.938 z" />
      <path
         id="path78"
         style="fill:#6e7073;fill-opacity:1;fill-rule:nonzero;stroke:none"
         d="m 497.613,92.697 c -3.332,1.109 -5.832,2.082 -11.523,2.082 -11.942,0 -20.824,-8.055 -20.824,-20.133 0,-12.496 8.328,-20.547 20.824,-20.547 6.109,0 9.719,0.973 11.941,1.805 l 0,20.41 -13.886,0 0,-4.723 8.191,0 0,-11.8 c -1.387,-0.278 -2.359,-0.696 -6.246,-0.696 -8.192,0 -14.856,6.11 -14.856,15.274 0,8.886 6.11,15.41 15.133,15.41 5,0 8.055,-0.973 10.828,-2.777 l 0.418,5.695 z" />
      <path
         id="path80"
         style="fill:#bf0028;fill-opacity:1;fill-rule:nonzero;stroke:none"
         d="m 235.188,125.349 157.16,0 0,157.133 -157.16,0 0,-157.133 z" />
      <path
         id="path82"
         style="fill:#ffffff;fill-opacity:1;fill-rule:nonzero;stroke:none"
         d="m 260.512,185.216 c 0,-5.695 -0.278,-12.773 -3.196,-12.773 -1.664,0 -2.218,1.25 -2.636,2.5 -0.418,1.246 -0.973,2.496 -2.914,2.496 -1.528,0 -3.196,-1.25 -2.918,-2.914 0.554,-3.055 3.609,-4.305 6.527,-4.305 7.773,0 10.41,7.914 10.41,14.578 l 0,34.43 c 0,2.777 1.805,2.918 4.027,3.195 l 1.665,0 0.14,0.414 0,1.114 -0.277,0.277 c -2.36,0 -5.832,-0.277 -8.61,-0.277 -4.023,0 -5.828,0.277 -7.355,0.277 -0.418,0 -0.973,0 -0.973,-0.695 l 0,-0.832 0.278,-0.278 c 4.859,0 5.832,-0.832 5.832,-4.164 l 0,-33.043 z" />
      <path
         id="path84"
         style="fill:#ffffff;fill-opacity:1;fill-rule:nonzero;stroke:none"
         d="m 313.879,196.045 c 0,3.054 0.832,3.332 3.609,3.332 l 0.696,0 c 0.277,0 0.414,0.695 0.414,1.25 0,0.277 0,0.832 -0.414,0.832 l -16.661,0 c -0.554,0 -0.695,-0.696 -0.695,-1.387 0,-0.559 0.141,-0.973 0.418,-0.973 l 4.301,0 c 2.5,0 3.891,-0.832 3.891,-3.75 l 0,-4.027 c 0,-3.469 -3.473,-6.524 -10.278,-6.524 -9.023,0 -16.66,9.024 -16.66,19.161 0,13.882 10.691,18.878 17.496,18.878 7.774,0 11.246,-4.441 11.938,-8.746 0.14,-0.277 0.418,-0.277 0.695,-0.277 0.277,0 1.25,0.141 1.25,0.555 0,2.5 -0.277,7.082 -0.418,7.5 -3.469,1.804 -7.496,3.191 -12.91,3.191 -6.664,0 -24.574,-3.469 -24.574,-22.215 0,-8.746 7.359,-20.269 24.019,-20.269 2.637,0 9.442,0.836 13.883,3.609 l 0,9.86 z" />
      <path
         id="path86"
         style="fill:#ffffff;fill-opacity:1;fill-rule:nonzero;stroke:none"
         d="m 376.051,224.337 -5.973,0 0,-23.46 c 0,-7.915 -2.5,-13.329 -10.133,-13.329 -7.5,0 -9.996,5.414 -9.996,13.329 l 0,23.46 -5.972,0 0,-24.156 c 0,-11.523 5.832,-17.769 15.968,-17.769 10.274,0 16.106,6.246 16.106,17.769 l 0,24.156 z" />
      <path
         id="path88"
         style="fill:#ffffff;fill-opacity:1;fill-rule:nonzero;stroke:none"
         d="m 329.457,155.892 3.137,0 0,97.547 -3.137,0 0,-97.547 z" />
    </g>
  </g>
</svg>
